Godya Display Balinese.glyphspackage
{
glyphname = exclam;
layers = (
{
layerId = m01;
shapes = (
{
ref = period;
},
{
closed = 1;
nodes = (
(70,236,l),
(225,236,l),
(245,700,l),
(50,700,l)
);
}
);
width = 295;
}
);
unicode = 33;
}
{
glyphname = numbersign;
layers = (
{
layerId = m01;
shapes = (
{
closed = 1;
nodes = (
(277,0,l),
(369,700,l),
(222,700,l),
(114,0,l)
);
},
{
closed = 1;
nodes = (
(590,0,l),
(682,700,l),
(535,700,l),
(427,0,l)
);
},
{
closed = 1;
nodes = (
(53,396,l),
(769,396,l),
(789,551,l),
(73,551,l)
);
},
{
closed = 1;
nodes = (
(20,125,l),
(736,125,l),
(756,280,l),
(40,280,l)
);
}
);
width = 809;
}
);
unicode = 35;
}
{
glyphname = dollar;
kernLeft = S;
kernRight = S;
layers = (
{
layerId = m01;
shapes = (
{
ref = S;
},
{
closed = 1;
nodes = (
(167,629,l),
(362,629,l),
(362,800,l),
(167,800,l)
);
},
{
closed = 1;
nodes = (
(167,-100,l),
(362,-100,l),
(362,71,l),
(167,71,l)
);
}
);
width = 572;
}
);
metricLeft = S;
metricRight = S;
unicode = 36;
}
{
glyphname = percent;
layers = (
{
layerId = m01;
shapes = (
{
closed = 1;
nodes = (
(454,0,l),
(793,700,l),
(620,700,l),
(281,0,l)
);
},
{
closed = 1;
nodes = (
(390,271,o),
(444,371,o),
(444,493,cs),
(444,616,o),
(391,716,o),
(232,716,cs),
(81,716,o),
(20,616,o),
(20,493,cs),
(20,371,o),
(79,271,o),
(232,271,cs)
);
},
{
closed = 1;
nodes = (
(189,398,o),
(165,436,o),
(165,493,cs),
(165,551,o),
(189,588,o),
(232,588,cs),
(274,588,o),
(299,551,o),
(299,493,cs),
(299,436,o),
(274,398,o),
(232,398,cs)
);
},
{
closed = 1;
nodes = (
(802,111,o),
(778,149,o),
(778,206,cs),
(778,264,o),
(802,301,o),
(845,301,cs),
(887,301,o),
(912,264,o),
(912,206,cs),
(912,149,o),
(887,111,o),
(845,111,cs)
);
},
{
closed = 1;
nodes = (
(1003,-16,o),
(1057,84,o),
(1057,206,cs),
(1057,329,o),
(1004,429,o),
(845,429,cs),
(694,429,o),
(633,329,o),
(633,206,cs),
(633,84,o),
(692,-16,o),
(845,-16,cs)
);
}
);
width = 1077;
}
);
metricRight = "=|";
unicode = 37;
}
{
glyphname = ampersand;
kernLeft = ampersand;
kernRight = ampersand;
layers = (
{
layerId = m01;
shapes = (
{
closed = 1;
nodes = (
(512,608,l),
(466,686,o),
(392,716,o),
(307,716,cs),
(166,716,o),
(94,618,o),
(103,521,cs),
(108,460,o),
(134,421,o),
(172,384,c),
(182,423,l),
(75,369,o),
(12,282,o),
(21,177,cs),
(32,68,o),
(140,-16,o),
(281,-16,cs),
(355,-16,o),
(430,4,o),
(493,87,c),
(436,90,l),
(542,-16,l),
(661,90,l),
(511,233,l),
(530,167,l),
(576,267,o),
(582,382,o),
(571,437,c),
(439,437,l),
(442,406,o),
(441,354,o),
(415,293,c),
(458,293,l),
(407,351,o),
(313,440,o),
(309,484,cs),
(308,504,o),
(316,521,o),
(343,521,cs),
(366,521,o),
(375,504,o),
(389,480,c)
);
},
{
closed = 1;
nodes = (
(205,257,o),
(246,278,o),
(268,294,c),
(217,313,l),
(373,148,l),
(373,219,l),
(332,166,o),
(316,152,o),
(275,152,cs),
(240,152,o),
(212,174,o),
(210,207,cs)
);
}
);
width = 661;
}
);
unicode = 38;
}
{
glyphname = quotesingle;
layers = (
{
layerId = m01;
shapes = (
{
closed = 1;
nodes = (
(20,455,l),
(115,455,l),
(173,502,l),
(224,743,l),
(65,743,l)
);
}
);
width = 244;
}
);
unicode = 39;
}
{
glyphname = parenleft;
layers = (
{
layerId = m01;
shapes = (
{
closed = 1;
nodes = (
(336,-18,l),
(216,208,o),
(214,435,o),
(336,661,c),
(200,757,l),
(0,467,o),
(0,176,o),
(200,-114,c)
);
}
);
width = 366;
}
);
unicode = 40;
}
{
glyphname = asterisk;
layers = (
{
layerId = m01;
shapes = (
{
closed = 1;
nodes = (
(205,471,l),
(296,471,l),
(320,719,l),
(181,719,l)
);
},
{
closed = 1;
nodes = (
(320,265,l),
(296,513,l),
(205,513,l),
(181,265,l)
);
},
{
closed = 1;
nodes = (
(89,319,l),
(293,463,l),
(246,543,l),
(20,439,l)
);
},
{
closed = 1;
nodes = (
(209,522,l),
(256,442,l),
(482,546,l),
(413,666,l)
);
},
{
closed = 1;
nodes = (
(256,543,l),
(209,463,l),
(413,319,l),
(482,439,l)
);
},
{
closed = 1;
nodes = (
(20,546,l),
(246,442,l),
(293,522,l),
(89,666,l)
);
}
);
width = 502;
}
);
metricRight = "=|";
unicode = 42;
}
{
glyphname = plus;
kernLeft = plus;
kernRight = plus;
layers = (
{
layerId = m01;
shapes = (
{
closed = 1;
nodes = (
(20,412,l),
(20,267,l),
(469,267,l),
(469,412,l)
);
},
{
closed = 1;
nodes = (
(317,564,l),
(172,564,l),
(172,115,l),
(317,115,l)
);
}
);
width = 489;
}
);
unicode = 43;
}
{
glyphname = comma;
layers = (
{
layerId = m01;
shapes = (
{
closed = 1;
nodes = (
(210,-117,o),
(243,-22,o),
(243,67,cs),
(243,144,o),
(193,179,o),
(143,179,cs),
(91,179,o),
(50,137,o),
(50,87,cs),
(50,40,o),
(85,1,o),
(130,-5,c),
(130,-27,o),
(86,-33,o),
(53,-33,c),
(53,-117,l)
);
}
);
width = 293;
}
);
metricRight = "=|";
unicode = 44;
}
{
glyphname = hyphen;
layers = (
{
layerId = m01;
shapes = (
{
closed = 1;
nodes = (
(20,212,l),
(423,212,l),
(423,367,l),
(20,367,l)
);
}
);
width = 443;
}
);
unicode = 45;
}
{
glyphname = period;
kernLeft = period;
kernRight = period;
layers = (
{
layerId = m01;
shapes = (
{
closed = 1;
nodes = (
(201,-16,o),
(245,28,o),
(245,82,cs),
(245,135,o),
(201,179,o),
(148,179,cs),
(94,179,o),
(50,135,o),
(50,82,cs),
(50,28,o),
(94,-16,o),
(148,-16,cs)
);
}
);
width = 295;
}
);
unicode = 46;
}
{
glyphname = slash;
kernLeft = slash;
kernRight = slash;
layers = (
{
layerId = m01;
shapes = (
{
closed = 1;
nodes = (
(20,-114,l),
(203,-114,l),
(435,700,l),
(252,700,l)
);
}
);
width = 455;
}
);
metricRight = "=|";
unicode = 47;
}
{
glyphname = zero;
kernLeft = zero;
kernRight = zero;
layers = (
{
layerId = m01;
shapes = (
{
closed = 1;
nodes = (
(443,-16,o),
(602,38,o),
(602,351,cs),
(602,663,o),
(443,716,o),
(311,716,cs),
(178,716,o),
(20,663,o),
(20,351,cs),
(20,38,o),
(178,-16,o),
(311,-16,cs)
);
},
{
closed = 1;
nodes = (
(261,159,o),
(215,193,o),
(215,351,cs),
(215,508,o),
(261,541,o),
(311,541,cs),
(361,541,o),
(407,508,o),
(407,351,cs),
(407,193,o),
(361,159,o),
(311,159,cs)
);
}
);
width = 622;
}
);
metricRight = "=|";
unicode = 48;
}
{
glyphname = one;
kernLeft = one;
kernRight = one;
layers = (
{
layerId = m01;
shapes = (
{
closed = 1;
nodes = (
(20,505,l),
(142,505,l),
(142,700,l),
(20,700,l)
);
},
{
closed = 1;
nodes = (
(210,700,l),
(106,700,l),
(106,0,l),
(301,0,l),
(301,566,l)
);
}
);
width = 336;
}
);
unicode = 49;
}
{
glyphname = two;
kernLeft = two;
kernRight = two;
layers = (
{
layerId = m01;
shapes = (
{
closed = 1;
nodes = (
(321,361,o),
(159,165,o),
(47,130,c),
(47,0,l),
(537,0,l),
(537,170,l),
(278,170,l),
(302,136,l),
(396,197,o),
(512,317,o),
(512,465,cs),
(512,587,o),
(447,716,o),
(251,716,cs),
(72,716,o),
(10,608,o),
(10,518,cs),
(10,385,o),
(100,316,o),
(236,346,c),
(236,457,l),
(213,455,o),
(197,465,o),
(197,488,cs),
(197,512,o),
(234,521,o),
(249,521,cs),
(285,521,o),
(321,499,o),
(321,439,cs)
);
}
);
width = 557;
}
);
unicode = 50;
}
{
glyphname = three;
kernLeft = three;
kernRight = three;
layers = (
{
layerId = m01;
shapes = (
{
closed = 1;
nodes = (
(221,379,l),
(253,379,ls),
(326,379,o),
(377,320,o),
(377,255,cs),
(377,190,o),
(340,156,o),
(296,156,cs),
(244,156,o),
(223,182,o),
(223,202,cs),
(223,223,o),
(239,235,o),
(262,233,c),
(262,338,l),
(151,372,o),
(20,315,o),
(20,182,cs),
(20,92,o),
(79,-16,o),
(269,-16,cs),
(462,-16,o),
(548,113,o),
(548,255,cs),
(548,395,o),
(453,448,o),
(406,455,c),
(487,559,l),
(487,700,l),
(57,700,l),
(57,510,l),
(270,510,l),
(221,451,l)
);
}
);
width = 558;
}
);
unicode = 51;
}
{
glyphname = four;
kernLeft = four;
kernRight = four;
layers = (
{
layerId = m01;
shapes = (
{
closed = 1;
nodes = (
(317,268,l),
(362,362,l),
(158,362,l),
(158,201,l),
(262,201,l),
(317,195,o),
(317,168,o),
(317,89,cs),
(317,0,l),
(512,0,l),
(512,700,l),
(317,700,l)
);
},
{
closed = 1;
nodes = (
(88,201,l),
(188,201,l),
(267,700,l),
(77,700,l),
(10,335,l)
);
}
);
width = 552;
}
);
unicode = 52;
}
{
glyphname = five;
kernLeft = five;
kernRight = five;
layers = (
{
layerId = m01;
shapes = (
{
closed = 1;
nodes = (
(73,393,l),
(135,393,ls),
(279,393,o),
(367,351,o),
(367,255,cs),
(367,190,o),
(330,156,o),
(286,156,cs),
(234,156,o),
(213,182,o),
(213,202,cs),
(213,223,o),
(229,235,o),
(252,233,c),
(252,338,l),
(141,372,o),
(10,315,o),
(10,182,cs),
(10,92,o),
(69,-16,o),
(259,-16,cs),
(452,-16,o),
(538,113,o),
(538,255,cs),
(538,385,o),
(439,500,o),
(234,500,c),
(239,530,l),
(477,530,l),
(477,700,l),
(127,700,l),
(73,483,l)
);
}
);
width = 548;
}
);
unicode = 53;
}
{
glyphname = six;
kernLeft = six;
kernRight = six;
layers = (
{
background = {
shapes = (
{
closed = 1;
nodes = (
(454,716,l),
(415,716,ls),
(254,716,o),
(10,644,o),
(10,316,cs),
(10,137,o),
(61,-16,o),
(317,-16,cs),
(533,-16,o),
(581,90,o),
(581,205,cs),
(581,370,o),
(447,411,o),
(353,411,cs),
(302,411,o),
(246,401,o),
(208,370,c),
(208,520,o),
(349,530,o),
(414,530,cs),
(454,530,l)
);
},
{
closed = 1;
nodes = (
(219,246,o),
(260,272,o),
(313,272,cs),
(366,272,o),
(408,246,o),
(408,209,cs),
(408,166,o),
(366,146,o),
(313,146,cs),
(260,146,o),
(219,166,o),
(219,209,cs)
);
}
);
};
layerId = m01;
shapes = (
{
closed = 1;
nodes = (
(410,196,o),
(382,154,o),
(311,154,cs),
(241,154,o),
(210,196,o),
(210,237,cs),
(210,296,o),
(241,324,o),
(310,324,cs),
(382,324,o),
(410,288,o),
(410,237,cs)
);
},
{
closed = 1;
nodes = (
(538,475,l),
(560,600,o),
(482,716,o),
(319,716,cs),
(94,716,o),
(20,522,o),
(20,339,cs),
(20,76,o),
(131,-16,o),
(309,-16,cs),
(513,-16,o),
(590,106,o),
(590,232,cs),
(590,382,o),
(494,452,o),
(365,452,cs),
(251,452,o),
(195,395,o),
(183,339,c),
(215,379,l),
(215,406,ls),
(215,472,o),
(241,531,o),
(319,531,cs),
(348,531,o),
(382,518,o),
(382,475,c)
);
}
);
width = 600;
}
);
unicode = 54;
}
{
glyphname = seven;
kernLeft = seven;
kernRight = seven;
layers = (
{
layerId = m01;
shapes = (
{
closed = 1;
nodes = (
(459,700,l),
(20,700,l),
(20,515,l),
(298,515,l),
(269,547,l),
(136,0,l),
(342,0,l),
(459,507,l)
);
}
);
width = 479;
}
);
unicode = 55;
}
{
glyphname = eight;
kernLeft = eight;
kernRight = eight;
layers = (
{
layerId = m01;
shapes = (
{
closed = 1;
nodes = (
(20,93,o),
(78,-16,o),
(312,-16,cs),
(549,-16,o),
(601,93,o),
(601,203,cs),
(601,292,o),
(530,353,o),
(471,376,c),
(522,380,o),
(581,439,o),
(581,525,cs),
(581,637,o),
(502,716,o),
(312,716,cs),
(119,716,o),
(43,637,o),
(43,525,cs),
(43,439,o),
(90,387,o),
(133,376,c),
(67,344,o),
(20,292,o),
(20,203,cs)
);
},
{
closed = 1;
nodes = (
(226,277,o),
(261,316,o),
(312,316,cs),
(354,316,o),
(400,287,o),
(400,238,cs),
(400,188,o),
(358,156,o),
(313,156,cs),
(250,156,o),
(226,190,o),
(226,238,cs)
);
},
{
closed = 1;
nodes = (
(236,532,o),
(267,571,o),
(312,571,cs),
(350,571,o),
(390,542,o),
(390,493,cs),
(390,443,o),
(353,411,o),
(313,411,cs),
(257,411,o),
(236,445,o),
(236,493,cs)
);
}
);
width = 621;
}
);
unicode = 56;
}
{
glyphname = nine;
kernLeft = nine;
kernRight = nine;
layers = (
{
layerId = m01;
shapes = (
{
closed = 1;
nodes = (
(196,504,o),
(224,546,o),
(295,546,cs),
(365,546,o),
(396,504,o),
(396,463,cs),
(396,404,o),
(365,376,o),
(296,376,cs),
(224,376,o),
(196,412,o),
(196,463,cs)
);
},
{
closed = 1;
nodes = (
(38,205,l),
(38,88,o),
(98,-16,o),
(289,-16,cs),
(548,-16,o),
(586,130,o),
(586,376,cs),
(586,624,o),
(475,716,o),
(297,716,cs),
(93,716,o),
(16,604,o),
(16,463,cs),
(16,318,o),
(112,238,o),
(267,238,cs),
(402,238,o),
(449,300,o),
(449,356,c),
(391,321,l),
(391,274,ls),
(391,208,o),
(373,149,o),
(289,149,cs),
(219,149,o),
(196,176,o),
(196,205,c)
);
}
);
width = 606;
}
);
unicode = 57;
}
{
glyphname = equal;
kernLeft = plus;
kernRight = plus;
layers = (
{
layerId = m01;
shapes = (
{
closed = 1;
nodes = (
(20,500,l),
(20,355,l),
(469,355,l),
(469,500,l)
);
},
{
closed = 1;
nodes = (
(20,270,l),
(20,125,l),
(469,125,l),
(469,270,l)
);
}
);
width = 489;
}
);
metricLeft = plus;
metricRight = plus;
unicode = 61;
}
{
glyphname = greater;
kernLeft = greater;
kernRight = greater;
layers = (
{
layerId = m01;
shapes = (
{
closed = 1;
nodes = (
(30,574,l),
(30,410,l),
(257,352,ls),
(276,347,o),
(276,333,o),
(257,328,cs),
(30,269,l),
(30,105,l),
(479,278,l),
(479,402,l)
);
}
);
width = 499;
}
);
unicode = 62;
}
{
glyphname = question;
kernLeft = question;
kernRight = question;
layers = (
{
layerId = m01;
shapes = (
{
pos = (81,0);
ref = period;
},
{
closed = 1;
nodes = (
(322,388,o),
(271,380,o),
(196,380,c),
(139,291,l),
(139,212,l),
(319,212,l),
(319,237,ls),
(319,272,o),
(344,275,o),
(396,296,cs),
(469,326,o),
(517,388,o),
(517,477,cs),
(517,635,o),
(414,716,o),
(257,716,cs),
(139,716,o),
(57,653,o),
(20,535,c),
(167,461,l),
(177,503,o),
(195,539,o),
(252,539,cs),
(296,539,o),
(322,503,o),
(322,453,cs)
);
}
);
width = 537;
}
);
unicode = 63;
}
{
glyphname = at;
kernLeft = at;
kernRight = at;
layers = (
{
layerId = m01;
shapes = (
{
closed = 1;
nodes = (
(547,109,o),
(611,204,o),
(611,326,cs),
(611,422,o),
(547,516,o),
(439,516,cs),
(326,516,o),
(243,425,o),
(243,311,cs),
(243,199,o),
(326,109,o),
(439,109,cs)
);
},
{
closed = 1;
nodes = (
(416,227,o),
(383,263,o),
(383,311,cs),
(383,362,o),
(416,398,o),
(454,398,cs),
(493,398,o),
(525,362,o),
(525,311,cs),
(525,263,o),
(493,227,o),
(454,227,cs)
);
},
{
closed = 1;
nodes = (
(569,256,l),
(669,256,l),
(669,500,l),
(569,500,l)
);
},
{
closed = 1;
nodes = (
(302,43,o),
(185,137,o),
(185,305,cs),
(185,478,o),
(290,576,o),
(486,576,cs),
(714,576,o),
(764,458,o),
(764,355,cs),
(764,267,o),
(739,249,o),
(722,249,cs),
(685,249,o),
(669,279,o),
(669,333,c),
(569,333,l),
(569,227,ls),
(569,160,o),
(629,109,o),
(722,109,cs),
(816,109,o),
(929,148,o),
(929,362,cs),
(929,609,o),
(732,741,o),
(486,741,cs),
(227,741,o),
(20,596,o),
(20,315,cs),
(20,53,o),
(168,-122,o),
(499,-122,c),
(499,43,l)
);
}
);
width = 949;
}
);
unicode = 64;
}
{
glyphname = A;
kernLeft = A;
kernRight = A;
layers = (
{
anchors = (
{
name = bottom;
pos = (324,0);
},
{
name = ogonek;
pos = (583,10);
},
{
name = top;
pos = (324,750);
}
);
background = {
shapes = (
{
pos = (-18,0);
ref = H;
}
);
};
layerId = m01;
shapes = (
{
closed = 1;
nodes = (
(10,0,l),
(190,0,l),
(213,94,ls),
(220,122,o),
(221,203,o),
(324,203,cs),
(389,203,o),
(414,183,o),
(437,89,cs),
(458,0,l),
(638,0,l),
(473,700,l),
(175,700,l)
);
},
{
closed = 1;
nodes = (
(312,556,ls),
(316,575,o),
(332,575,o),
(336,556,cs),
(394,268,l),
(429,342,l),
(219,342,l),
(254,268,l)
);
}
);
width = 648;
}
);
unicode = 65;
}
{
glyphname = B;
kernLeft = H;
kernRight = B;
layers = (
{
layerId = m01;
shapes = (
{
closed = 1;
nodes = (
(50,0,l),
(391,0,ls),
(546,0,o),
(637,42,o),
(637,190,cs),
(637,346,o),
(556,369,o),
(488,369,c),
(488,375,l),
(538,375,o),
(573,429,o),
(573,527,cs),
(573,679,o),
(449,700,o),
(346,700,cs),
(50,700,l)
);
},
{
closed = 1;
nodes = (
(245,285,l),
(353,285,ls),
(402,285,o),
(447,276,o),
(447,215,cs),
(447,159,o),
(402,152,o),
(353,152,cs),
(245,152,l)
);
},
{
closed = 1;
nodes = (
(245,543,l),
(314,543,ls),
(342,543,o),
(383,546,o),
(383,475,cs),
(383,420,o),
(342,420,o),
(314,420,cs),
(245,420,l)
);
}
);
width = 647;
}
);
metricLeft = H;
unicode = 66;
}
{
glyphname = C;
kernLeft = O;
kernRight = C;
layers = (
{
anchors = (
{
name = bottom;
pos = (337,0);
},
{
name = top;
pos = (337,750);
}
);
background = {
shapes = (
{
ref = O;
}
);
};
layerId = m01;
shapes = (
{
closed = 1;
nodes = (
(521,264,l),
(473,191,o),
(423,175,o),
(366,175,cs),
(261,175,o),
(228,243,o),
(228,341,cs),
(228,468,o),
(276,521,o),
(345,521,cs),
(379,521,o),
(395,508,o),
(395,488,cs),
(395,472,o),
(379,455,o),
(356,457,c),
(356,346,l),
(492,316,o),
(600,393,o),
(600,508,cs),
(600,616,o),
(518,716,o),
(334,716,cs),
(175,716,o),
(20,603,o),
(20,351,cs),
(20,98,o),
(179,-16,o),
(353,-16,cs),
(540,-16,o),
(628,82,o),
(654,191,c)
);
}
);
width = 674;
}
);
metricLeft = O;
unicode = 67;
}
{
glyphname = D;
kernLeft = H;
kernRight = O;
layers = (
{
anchors = (
{
name = bottom;
pos = (334,0);
},
{
name = center;
pos = (167,350);
},
{
name = top;
pos = (304,750);
}
);
layerId = m01;
shapes = (
{
closed = 1;
nodes = (
(50,0,l),
(327,0,ls),
(503,0,o),
(647,109,o),
(647,353,cs),
(647,592,o),
(503,700,o),
(327,700,cs),
(50,700,l)
);
},
{
closed = 1;
nodes = (
(245,531,l),
(327,532,ls),
(394,533,o),
(452,478,o),
(452,351,cs),
(452,237,o),
(394,169,o),
(327,170,cs),
(245,171,l)
);
}
);
width = 667;
}
);
metricLeft = H;
metricRight = O;
unicode = 68;
}
{
glyphname = E;
kernLeft = H;
kernRight = E;
layers = (
{
anchors = (
{
name = bottom;
pos = (270,0);
},
{
name = ogonek;
pos = (478,10);
},
{
name = top;
pos = (270,750);
},
{
name = topleft;
pos = (30,700);
}
);
layerId = m01;
shapes = (
{
closed = 1;
nodes = (
(50,0,l),
(510,0,l),
(510,162,l),
(275,162,ls),
(243,162,o),
(225,180,o),
(225,212,cs),
(225,219,ls),
(225,251,o),
(243,269,o),
(275,269,cs),
(440,269,l),
(440,434,l),
(275,434,ls),
(243,434,o),
(225,452,o),
(225,484,cs),
(225,495,ls),
(225,527,o),
(243,545,o),
(275,545,cs),
(510,545,l),
(510,700,l),
(50,700,l)
);
}
);
width = 530;
}
);
metricLeft = H;
unicode = 69;
}
{
glyphname = F;
kernLeft = H;
kernRight = F;
layers = (
{
layerId = m01;
shapes = (
{
closed = 1;
nodes = (
(245,219,ls),
(245,251,o),
(263,269,o),
(295,269,cs),
(430,269,l),
(430,434,l),
(295,434,ls),
(263,434,o),
(245,452,o),
(245,484,cs),
(245,495,ls),
(245,527,o),
(263,545,o),
(295,545,cs),
(500,545,l),
(500,700,l),
(50,700,l),
(50,0,l),
(245,0,l)
);
}
);
width = 530;
}
);
metricLeft = H;
unicode = 70;
}
{
glyphname = G;
kernLeft = O;
kernRight = G;
layers = (
{
layerId = m01;
shapes = (
{
closed = 1;
nodes = (
(375,359,l),
(375,248,l),
(415,248,o),
(464,248,o),
(464,200,cs),
(464,152,o),
(409,149,o),
(371,149,cs),
(257,149,o),
(215,239,o),
(215,337,cs),
(215,457,o),
(274,525,o),
(362,525,cs),
(424,525,o),
(438,495,o),
(430,453,c),
(625,453,l),
(653,606,o),
(553,716,o),
(356,716,cs),
(172,716,o),
(20,602,o),
(20,349,cs),
(20,97,o),
(186,-16,o),
(370,-16,cs),
(549,-16,o),
(661,82,o),
(661,248,cs),
(661,359,l)
);
}
);
width = 681;
}
);
metricLeft = O;
unicode = 71;
}
{
glyphname = H;
kernLeft = H;
kernRight = H;
layers = (
{
anchors = (
{
name = bottom;
pos = (345,0);
},
{
name = center;
pos = (345,525);
},
{
name = top;
pos = (345,700);
},
{
name = topleft;
pos = (20,700);
}
);
layerId = m01;
shapes = (
{
closed = 1;
nodes = (
(50,0,l),
(245,0,l),
(245,205,ls),
(245,263,o),
(281,295,o),
(345,295,cs),
(409,295,o),
(445,263,o),
(445,205,cs),
(445,0,l),
(640,0,l),
(640,700,l),
(445,700,l),
(445,530,ls),
(445,462,o),
(409,430,o),
(345,430,cs),
(281,430,o),
(245,462,o),
(245,530,cs),
(245,700,l),
(50,700,l)
);
}
);
width = 690;
}
);
metricRight = "=|";
unicode = 72;
}
{
glyphname = I;
kernLeft = H;
kernRight = H;
layers = (
{
anchors = (
{
name = bottom;
pos = (148,0);
},
{
name = ogonek;
pos = (266,10);
},
{
name = top;
pos = (148,750);
},
{
name = topleft;
pos = (20,700);
}
);
layerId = m01;
shapes = (
{
closed = 1;
nodes = (
(50,0,l),
(245,0,l),
(245,700,l),
(50,700,l)
);
}
);
width = 295;
}
);
metricLeft = H;
metricRight = H;
unicode = 73;
}
{
glyphname = J;
kernLeft = J;
kernRight = U;
layers = (
{
layerId = m01;
shapes = (
{
closed = 1;
nodes = (
(10,285,l),
(10,203,ls),
(10,53,o),
(94,-14,o),
(240,-14,c),
(382,-14,o),
(470,53,o),
(470,203,cs),
(470,700,l),
(275,700,l),
(275,203,ls),
(275,171,o),
(266,144,o),
(240,144,cs),
(214,144,o),
(205,171,o),
(205,203,cs),
(205,285,l)
);
}
);
width = 510;
}
);
metricRight = U;
unicode = 74;
}
{
glyphname = K;
kernLeft = H;
kernRight = K;
layers = (
{
anchors = (
{
name = bottom;
pos = (324,0);
},
{
name = top;
pos = (324,750);
}
);
layerId = m01;
shapes = (
{
closed = 1;
nodes = (
(245,315,l),
(295,315,ls),
(402,315,o),
(437,180,o),
(382,0,c),
(587,0,l),
(617,123,o),
(611,406,o),
(418,409,c),
(618,700,l),
(408,700,l),
(246,461,l),
(246,700,l),
(50,700,l),
(50,0,l),
(245,0,l)
);
}
);
width = 638;
}
);
metricLeft = H;
unicode = 75;
}
{
glyphname = L;
kernLeft = H;
kernRight = L;
layers = (
{
anchors = (
{
name = bottom;
pos = (249,0);
},
{
name = center;
pos = (249,350);
},
{
name = top;
pos = (249,750);
},
{
name = topright;
pos = (478,700);
}
);
layerId = m01;
shapes = (
{
closed = 1;
nodes = (
(245,700,l),
(50,700,l),
(50,0,l),
(498,0,l),
(498,175,l),
(295,175,ls),
(263,175,o),
(245,193,o),
(245,225,cs)
);
}
);
width = 498;
}
);
metricLeft = H;
unicode = 76;
}
{
glyphname = M;
kernLeft = H;
kernRight = H;
layers = (
{
anchors = (
{
name = bottom;
pos = (422,0);
},
{
name = top;
pos = (424,750);
}
);
background = {
shapes = (
{
pos = (-61,0);
ref = H;
}
);
};
guides = (
{
pos = (527,421);
}
);
layerId = m01;
shapes = (
{
closed = 1;
nodes = (
(467,140,l),
(588,407,ls),
(593,417,o),
(598,421,o),
(605,421,cs),
(613,421,o),
(618,416,o),
(618,407,cs),
(618,0,l),
(793,0,l),
(793,700,l),
(551,700,l),
(434,430,ls),
(431,423,o),
(427,417,o),
(422,417,cs),
(416,417,o),
(412,423,o),
(409,430,cs),
(292,700,l),
(50,700,l),
(50,0,l),
(225,0,l),
(225,407,ls),
(225,416,o),
(230,421,o),
(238,421,cs),
(245,421,o),
(250,417,o),
(255,407,cs),
(376,140,l)
);
}
);
width = 843;
}
);
metricLeft = H;
metricRight = H;
unicode = 77;
}
{
glyphname = N;
kernLeft = H;
kernRight = H;
layers = (
{
anchors = (
{
name = bottom;
pos = (366,0);
},
{
name = top;
pos = (366,750);
}
);
background = {
shapes = (
{
closed = 1;
nodes = (
(51,0,l),
(246,0,l),
(246,215,ls),
(246,273,o),
(282,305,o),
(346,305,cs),
(410,305,o),
(446,273,o),
(446,215,cs),
(446,0,l),
(641,0,l),
(641,700,l),
(446,700,l),
(446,520,ls),
(446,452,o),
(410,420,o),
(346,420,cs),
(282,420,o),
(246,452,o),
(246,520,cs),
(246,700,l),
(51,700,l)
);
}
);
};
layerId = m01;
shapes = (
{
closed = 1;
nodes = (
(50,0,l),
(225,0,l),
(225,401,ls),
(225,414,o),
(228,421,o),
(235,421,cs),
(239,421,o),
(243,420,o),
(246,412,cs),
(383,0,l),
(682,0,l),
(682,700,l),
(507,700,l),
(507,222,ls),
(507,202,o),
(491,198,o),
(484,216,cs),
(320,700,l),
(50,700,l)
);
}
);
width = 732;
}
);
metricLeft = H;
metricRight = H;
unicode = 78;
}
{
glyphname = O;
kernLeft = O;
kernRight = O;
layers = (
{
anchors = (
{
name = bottom;
pos = (341,0);
},
{
name = center;
pos = (341,350);
},
{
name = ogonek;
pos = (613,10);
},
{
name = top;
pos = (341,750);
},
{
name = topleft;
pos = (20,700);
},
{
name = topright;
pos = (661,700);
}
);
layerId = m01;
shapes = (
{
closed = 1;
nodes = (
(517,-16,o),
(661,98,o),
(661,351,cs),
(661,603,o),
(517,716,o),
(341,716,cs),
(164,716,o),
(20,603,o),
(20,351,cs),
(20,98,o),
(164,-16,o),
(341,-16,cs)
);
},
{
closed = 1;
nodes = (
(273,169,o),
(215,223,o),
(215,351,cs),
(215,478,o),
(273,531,o),
(341,531,cs),
(408,531,o),
(466,478,o),
(466,351,cs),
(466,223,o),
(408,169,o),
(341,169,cs)
);
}
);
width = 681;
}
);
unicode = 79;
}
{
glyphname = P;
kernLeft = H;
kernRight = P;
layers = (
{
layerId = m01;
shapes = (
{
closed = 1;
nodes = (
(546,255,o),
(583,372,o),
(583,468,cs),
(583,585,o),
(546,700,o),
(319,700,cs),
(50,700,l),
(50,0,l),
(245,0,l),
(245,255,l),
(319,255,ls)
);
},
{
closed = 1;
nodes = (
(245,545,l),
(319,545,ls),
(342,545,o),
(403,536,o),
(403,468,cs),
(403,399,o),
(342,390,o),
(319,390,cs),
(245,390,l)
);
}
);
width = 603;
}
);
metricLeft = H;
unicode = 80;
}
{
glyphname = Q;
kernLeft = O;
kernRight = Q;
layers = (
{
layerId = m01;
shapes = (
{
ref = O;
},
{
closed = 1;
nodes = (
(508,-94,l),
(650,7,l),
(487,213,l),
(346,112,l)
);
}
);
width = 681;
}
);
metricLeft = O;
unicode = 81;
}
{
glyphname = R;
kernLeft = H;
kernRight = R;
layers = (
{
anchors = (
{
name = bottom;
pos = (310,0);
},
{
name = top;
pos = (310,750);
}
);
layerId = m01;
shapes = (
{
closed = 1;
nodes = (
(486,324,o),
(583,372,o),
(583,500,cs),
(583,585,o),
(546,700,o),
(319,700,cs),
(50,700,l),
(50,0,l),
(245,0,l),
(245,324,l),
(324,324,ls)
);
},
{
closed = 1;
nodes = (
(245,545,l),
(319,545,ls),
(342,545,o),
(403,536,o),
(403,468,cs),
(403,399,o),
(342,390,o),
(319,390,cs),
(245,390,l)
);
},
{
closed = 1;
nodes = (
(391,269,o),
(437,180,o),
(382,0,c),
(587,0,l),
(617,123,o),
(596,326,o),
(438,326,c),
(438,341,l),
(203,351,l),
(193,269,l)
);
}
);
width = 629;
}
);
metricLeft = H;
unicode = 82;
}
{
glyphname = S;
kernLeft = S;
kernRight = S;
layers = (
{
anchors = (
{
name = bottom;
pos = (286,0);
},
{
name = top;
pos = (286,750);
}
);
background = {
shapes = (
{
pos = (-46,0);
ref = H;
}
);
};
layerId = m01;
shapes = (
{
closed = 1;
nodes = (
(562,298,o),
(432,358,o),
(388,384,cs),
(302,435,o),
(227,455,o),
(227,504,cs),
(227,532,o),
(259,541,o),
(300,541,cs),
(350,541,o),
(373,500,o),
(339,486,c),
(346,443,l),
(398,411,o),
(532,414,o),
(532,537,cs),
(532,615,o),
(463,716,o),
(287,716,cs),
(107,716,o),
(21,632,o),
(21,514,cs),
(21,404,o),
(122,344,o),
(205,293,cs),
(286,244,o),
(355,229,o),
(355,180,cs),
(355,143,o),
(299,139,o),
(276,139,cs),
(216,139,o),
(179,174,o),
(202,242,c),
(26,282,l),
(-40,73,o),
(112,-16,o),
(274,-16,cs),
(486,-16,o),
(562,56,o),
(562,177,cs)
);
}
);
width = 572;
}
);
unicode = 83;
}
{
glyphname = T;
kernLeft = T;
kernRight = T;
layers = (
{
anchors = (
{
name = bottom;
pos = (315,0);
},
{
name = center;
pos = (315,350);
},
{
name = top;
pos = (315,750);
}
);
layerId = m01;
shapes = (
{
closed = 1;
nodes = (
(412,485,ls),
(412,517,o),
(430,535,o),
(462,535,cs),
(600,535,l),
(600,700,l),
(30,700,l),
(30,535,l),
(167,535,ls),
(199,535,o),
(217,517,o),
(217,485,cs),
(217,0,l),
(412,0,l)
);
}
);
width = 630;
}
);
metricRight = "=|";
unicode = 84;
}
{
glyphname = U;
kernLeft = U;
kernRight = U;
layers = (
{
anchors = (
{
name = bottom;
pos = (335,0);
},
{
name = ogonek;
pos = (595,10);
},
{
name = top;
pos = (335,750);
},
{
name = topright;
pos = (640,700);
}
);
background = {
shapes = (
{
pos = (-10,0);
ref = H;
}
);
};
layerId = m01;
shapes = (
{
closed = 1;
nodes = (
(535,-16,o),
(630,76,o),
(630,278,cs),
(630,700,l),
(435,700,l),
(435,253,ls),
(435,194,o),
(399,144,o),
(335,144,cs),
(271,144,o),
(235,194,o),
(235,253,cs),
(235,700,l),
(40,700,l),
(40,278,ls),
(40,70,o),
(142,-16,o),
(335,-16,cs)
);
}
);
width = 670;
}
);
metricRight = "=|";
unicode = 85;
}
{
glyphname = V;
kernLeft = V;
kernRight = V;
layers = (
{
layerId = m01;
shapes = (
{
closed = 1;
nodes = (
(493,0,l),
(605,700,l),
(405,700,l),
(323,154,ls),
(321,143,o),
(315,140,o),
(310,140,cs),
(305,140,o),
(299,143,o),
(297,154,cs),
(215,700,l),
(15,700,l),
(127,0,l)
);
}
);
width = 620;
}
);
metricRight = "=|";
unicode = 86;
}
{
glyphname = W;
kernLeft = V;
kernRight = V;
layers = (
{
layerId = m01;
shapes = (
{
closed = 1;
nodes = (
(215,700,l),
(15,700,l),
(127,0,l),
(458,0,l),
(522,425,ls),
(525,442,o),
(541,442,o),
(544,425,cs),
(608,0,l),
(940,0,l),
(1050,700,l),
(851,700,l),
(769,194,ls),
(766,175,o),
(750,175,o),
(745,194,cs),
(623,700,l),
(443,700,l),
(321,194,ls),
(316,175,o),
(300,175,o),
(297,194,cs)
);
}
);
width = 1065;
}
);
metricLeft = V;
metricRight = V;
unicode = 87;
}
{
glyphname = X;
kernLeft = X;
kernRight = X;
layers = (
{
layerId = m01;
shapes = (
{
closed = 1;
nodes = (
(644,700,l),
(426,700,l),
(20,0,l),
(237,0,l)
);
},
{
closed = 1;
nodes = (
(354,466,l),
(218,700,l),
(20,700,l),
(252,302,l)
);
},
{
closed = 1;
nodes = (
(292,302,l),
(467,0,l),
(665,0,l),
(394,466,l)
);
}
);
width = 685;
}
);
metricRight = "=|";
unicode = 88;
}
{
glyphname = Y;
kernLeft = Y;
kernRight = Y;
layers = (
{
layerId = m01;
shapes = (
{
closed = 1;
nodes = (
(403,273,l),
(600,700,l),
(400,700,l),
(318,482,ls),
(314,471,o),
(310,468,o),
(305,468,cs),
(300,468,o),
(296,471,o),
(292,482,cs),
(210,700,l),
(10,700,l),
(208,273,l)
);
},
{
closed = 1;
nodes = (
(208,0,l),
(403,0,l),
(403,273,l),
(208,273,l)
);
}
);
width = 610;
}
);
metricRight = "=|";
unicode = 89;
}
{
glyphname = Z;
kernLeft = Z;
kernRight = Z;
layers = (
{
layerId = m01;
shapes = (
{
closed = 1;
nodes = (
(50,700,l),
(50,545,l),
(499,545,l),
(499,700,l)
);
},
{
closed = 1;
nodes = (
(50,162,l),
(50,0,l),
(499,0,l),
(499,162,l)
);
},
{
closed = 1;
nodes = (
(50,162,l),
(255,162,l),
(499,545,l),
(294,545,l)
);
}
);
width = 549;
}
);
metricRight = "=|";
unicode = 90;
}
{
glyphname = bracketleft;
layers = (
{
layerId = m01;
shapes = (
{
closed = 1;
nodes = (
(245,-114,l),
(245,700,l),
(50,700,l),
(50,-114,l)
);
},
{
closed = 1;
nodes = (
(155,535,l),
(416,535,l),
(416,700,l),
(155,700,l)
);
},
{
closed = 1;
nodes = (
(155,-114,l),
(416,-114,l),
(416,51,l),
(155,51,l)
);
}
);
width = 446;
}
);
unicode = 91;
}
{
glyphname = asciicircum;
layers = (
{
layerId = m01;
shapes = (
{
closed = 1;
nodes = (
(10,383,l),
(174,383,l),
(231,541,ls),
(237,558,o),
(251,559,o),
(257,541,cs),
(315,383,l),
(479,383,l),
(306,700,l),
(182,700,l)
);
}
);
width = 489;
}
);
metricRight = "=|";
unicode = 94;
}
{
glyphname = underscore;
layers = (
{
layerId = m01;
shapes = (
{
closed = 1;
nodes = (
(20,-200,l),
(570,-200,l),
(570,-45,l),
(20,-45,l)
);
}
);
width = 590;
}
);
unicode = 95;
}
{
glyphname = braceleft;
layers = (
{
layerId = m01;
shapes = (
{
closed = 1;
nodes = (
(432,-114,l),
(432,31,l),
(283,31,l),
(283,186,ls),
(283,227,o),
(179,248,o),
(179,289,cs),
(179,331,o),
(283,359,o),
(283,401,cs),
(283,555,l),
(432,555,l),
(432,700,l),
(98,700,l),
(98,430,ls),
(98,383,o),
(20,341,o),
(20,289,cs),
(20,246,o),
(98,205,o),
(98,162,cs),
(98,-114,l)
);
}
);
width = 462;
}
);
unicode = 123;
}
{
glyphname = bar;
layers = (
{
layerId = m01;
shapes = (
{
closed = 1;
nodes = (
(50,-180,l),
(245,-180,l),
(245,700,l),
(50,700,l)
);
}
);
width = 295;
}
);
metricRight = "=|";
unicode = 124;
}
{
glyphname = asciitilde;
layers = (
{
layerId = m01;
shapes = (
{
closed = 1;
nodes = (
(577,419,o),
(564,396,o),
(543,396,cs),
(486,396,o),
(386,541,o),
(245,541,cs),
(107,541,o),
(20,413,o),
(20,298,c),
(220,298,l),
(220,317,o),
(235,346,o),
(261,346,cs),
(318,346,o),
(420,201,o),
(543,201,cs),
(673,201,o),
(777,333,o),
(777,431,c),
(577,431,l)
);
}
);
width = 797;
}
);
unicode = 126;
}
{
glyphname = cent;
layers = (
{
layerId = m01;
shapes = (
{
pos = (3,45);
ref = C;
scale = (0.8744,0.8744);
},
{
closed = 1;
nodes = (
(232,586,l),
(407,586,l),
(407,757,l),
(232,757,l)
);
},
{
closed = 1;
nodes = (
(232,-57,l),
(407,-57,l),
(407,114,l),
(232,114,l)
);
}
);
width = 595;
}
);
unicode = 162;
}
{
glyphname = sterling;
layers = (
{
layerId = m01;
shapes = (
{
closed = 1;
nodes = (
(191,0,o),
(300,0,o),
(300,236,cs),
(300,483,ls),
(300,522,o),
(326,541,o),
(359,541,cs),
(399,541,o),
(420,515,o),
(403,487,c),
(469,454,l),
(540,507,o),
(514,715,o),
(341,715,cs),
(218,715,o),
(125,642,o),
(125,477,cs),
(125,217,ls),
(125,145,o),
(98,145,o),
(55,145,c),
(55,0,l)
);
},
{
closed = 1;
nodes = (
(55,402,l),
(55,277,l),
(414,277,l),
(414,402,l)
);
},
{
closed = 1;
nodes = (
(20,145,l),
(20,0,l),
(493,0,l),
(544,75,l),
(544,145,l)
);
}
);
width = 564;
}
);
unicode = 163;
}
{
glyphname = currency;
layers = (
{
layerId = m01;
shapes = (
{
closed = 1;
nodes = (
(578,450,o),
(467,564,o),
(327,563,cs),
(187,564,o),
(73,450,o),
(73,310,cs),
(73,170,o),
(187,59,o),
(327,58,cs),
(467,59,o),
(578,170,o),
(578,310,cs)
);
},
{
closed = 1;
nodes = (
(435,251,o),
(385,200,o),
(327,201,cs),
(266,201,o),
(216,251,o),
(216,309,cs),
(216,370,o),
(265,419,o),
(327,420,cs),
(385,419,o),
(435,370,o),
(435,309,cs)
);
},
{
closed = 1;
nodes = (
(214,130,l),
(146,198,l),
(20,85,l),
(102,3,l)
);
},
{
closed = 1;
nodes = (
(551,616,l),
(438,490,l),
(506,422,l),
(633,534,l)
);
},
{
closed = 1;
nodes = (
(146,422,l),
(214,490,l),
(102,616,l),
(20,534,l)
);
},
{
closed = 1;
nodes = (
(633,85,l),
(506,198,l),
(438,130,l),
(551,3,l)
);
}
);
width = 653;
}
);
unicode = 164;
}
{
glyphname = brokenbar;
layers = (
{
layerId = m01;
shapes = (
{
closed = 1;
nodes = (
(20,328,l),
(215,328,l),
(215,700,l),
(20,700,l)
);
},
{
closed = 1;
nodes = (
(20,-180,l),
(215,-180,l),
(215,192,l),
(20,192,l)
);
}
);
width = 235;
}
);
unicode = 166;
}
{
glyphname = copyright;
layers = (
{
layerId = m01;
shapes = (
{
closed = 1;
nodes = (
(626,-41,o),
(801,134,o),
(801,350,cs),
(801,564,o),
(626,740,o),
(410,740,cs),
(196,740,o),
(20,564,o),
(20,350,cs),
(20,134,o),
(196,-41,o),
(410,-41,cs)
);
},
{
closed = 1;
nodes = (
(273,98,o),
(159,211,o),
(159,350,cs),
(159,487,o),
(273,601,o),
(410,601,cs),
(549,601,o),
(662,487,o),
(662,350,cs),
(662,211,o),
(549,98,o),
(410,98,cs)
);
},
{
closed = 1;
nodes = (
(502,304,l),
(476,266,o),
(450,257,o),
(419,257,cs),
(364,257,o),
(346,293,o),
(346,345,cs),
(346,412,o),
(371,440,o),
(408,440,cs),
(427,440,o),
(435,434,o),
(435,423,cs),
(435,415,o),
(427,406,o),
(414,407,c),
(414,348,l),
(486,332,o),
(544,372,o),
(544,434,cs),
(544,491,o),
(486,544,o),
(403,544,cs),
(318,544,o),
(236,484,o),
(236,351,cs),
(236,216,o),
(320,156,o),
(413,156,cs),
(511,156,o),
(558,208,o),
(572,266,c)
);
}
);
width = 821;
}
);
unicode = 169;
}
{
glyphname = logicalnot;
layers = (
{
layerId = m01;
shapes = (
{
closed = 1;
nodes = (
(20,267,l),
(453,267,l),
(453,412,l),
(20,412,l)
);
},
{
closed = 1;
nodes = (
(453,412,l),
(308,412,l),
(308,115,l),
(453,115,l)
);
}
);
width = 473;
}
);
unicode = 172;
}
{
glyphname = registered;
layers = (
{
layerId = m01;
shapes = (
{
closed = 1;
nodes = (
(389,287,o),
(494,392,o),
(494,524,cs),
(494,653,o),
(389,761,o),
(257,761,cs),
(128,761,o),
(20,653,o),
(20,524,cs),
(20,392,o),
(128,287,o),
(257,287,cs)
);
},
{
closed = 1;
nodes = (
(174,371,o),
(104,440,o),
(104,524,cs),
(104,607,o),
(174,677,o),
(257,677,cs),
(341,677,o),
(410,607,o),
(410,524,cs),
(410,440,o),
(341,371,o),
(257,371,cs)
);
},
{
pos = (182,434);
ref = R;
scale = (0.2737,0.2737);
}
);
width = 514;
}
);
unicode = 174;
}
{
glyphname = degree;
layers = (
{
layerId = m01;
shapes = (
{
closed = 1;
nodes = (
(350,313,o),
(443,406,o),
(443,524,cs),
(443,640,o),
(350,736,o),
(232,736,cs),
(116,736,o),
(20,640,o),
(20,524,cs),
(20,406,o),
(116,313,o),
(232,313,cs)
);
},
{
closed = 1;
nodes = (
(195,457,o),
(164,488,o),
(164,524,cs),
(164,561,o),
(195,592,o),
(232,592,cs),
(268,592,o),
(299,561,o),
(299,524,cs),
(299,488,o),
(268,457,o),
(232,457,cs)
);
}
);
width = 463;
}
);
unicode = 176;
}
{
glyphname = plusminus;
layers = (
{
layerId = m01;
shapes = (
{
closed = 1;
nodes = (
(30,551,l),
(30,409,l),
(479,409,l),
(479,551,l)
);
},
{
closed = 1;
nodes = (
(332,662,l),
(177,662,l),
(177,298,l),
(332,298,l)
);
},
{
closed = 1;
nodes = (
(30,247,l),
(30,115,l),
(479,115,l),
(479,247,l)
);
}
);
width = 509;
}
);
metricRight = "=|";
unicode = 177;
}
{
glyphname = divide;
kernLeft = plus;
kernRight = plus;
layers = (
{
layerId = m01;
shapes = (
{
closed = 1;
nodes = (
(20,412,l),
(20,267,l),
(469,267,l),
(469,412,l)
);
},
{
closed = 1;
nodes = (
(297,446,o),
(340,489,o),
(340,541,cs),
(340,593,o),
(297,636,o),
(245,636,cs),
(193,636,o),
(150,593,o),
(150,541,cs),
(150,489,o),
(193,446,o),
(245,446,cs)
);
},
{
closed = 1;
nodes = (
(297,33,o),
(340,76,o),
(340,128,cs),
(340,180,o),
(297,223,o),
(245,223,cs),
(193,223,o),
(150,180,o),
(150,128,cs),
(150,76,o),
(193,33,o),
(245,33,cs)
);
}
);
width = 489;
}
);
metricLeft = plus;
metricRight = plus;
unicode = 247;
}
{
glyphname = gravecomb;
layers = (
{
anchors = (
{
name = _top;
pos = (127,750);
},
{
name = top;
pos = (127,947);
}
);
layerId = m01;
shapes = (
{
closed = 1;
nodes = (
(20,947,l),
(132,750,l),
(233,750,l),
(159,947,l)
);
}
);
width = 253;
}
);
unicode = 768;
}
{
glyphname = tildecomb;
layers = (
{
anchors = (
{
name = _top;
pos = (219,750);
},
{
name = top;
pos = (219,946);
}
);
layerId = m01;
shapes = (
{
closed = 1;
nodes = (
(106,773,l),
(106,777,o),
(108,849,o),
(137,849,cs),
(183,849,o),
(203,750,o),
(286,750,cs),
(411,750,o),
(418,854,o),
(418,920,c),
(332,920,l),
(332,916,o),
(329,847,o),
(286,847,cs),
(260,847,o),
(219,946,o),
(137,946,cs),
(27,946,o),
(20,839,o),
(20,773,c)
);
}
);
width = 438;
}
);
unicode = 771;
}
{
glyphname = macroncomb;
layers = (
{
anchors = (
{
name = _top;
pos = (205,750);
},
{
name = top;
pos = (205,873);
}
);
layerId = m01;
shapes = (
{
closed = 1;
nodes = (
(20,787,l),
(390,787,l),
(390,873,l),
(20,873,l)
);
}
);
width = 410;
}
);
unicode = 772;
}
{
glyphname = brevecomb;
layers = (
{
anchors = (
{
name = _top;
pos = (203,750);
},
{
name = top;
pos = (203,897);
}
);
layerId = m01;
shapes = (
{
closed = 1;
nodes = (
(284,892,o),
(248,863,o),
(199,863,cs),
(150,863,o),
(118,892,o),
(118,948,c),
(20,948,l),
(20,847,o),
(83,779,o),
(200,779,cs),
(317,779,o),
(386,847,o),
(386,948,c),
(284,948,l)
);
}
);
width = 406;
}
);
unicode = 774;
}
{
glyphname = caroncomb;
layers = (
{
anchors = (
{
name = _top;
pos = (245,750);
},
{
name = top;
pos = (245,947);
}
);
layerId = m01;
shapes = (
{
closed = 1;
nodes = (
(20,947,l),
(182,750,l),
(298,750,l),
(470,947,l),
(331,947,l),
(242,836,l),
(159,947,l)
);
}
);
width = 490;
}
);
unicode = 780;
}
{
glyphname = ringbelowcomb;
layers = (
{
anchors = (
{
name = _bottom;
pos = (116,0);
},
{
name = bottom;
pos = (116,-244);
}
);
layerId = m01;
shapes = (
{
closed = 1;
nodes = (
(168,-244,o),
(211,-201,o),
(211,-148,cs),
(211,-96,o),
(168,-53,o),
(116,-53,cs),
(63,-53,o),
(20,-96,o),
(20,-148,cs),
(20,-201,o),
(63,-244,o),
(116,-244,cs)
);
},
{
closed = 1;
nodes = (
(99,-179,o),
(85,-165,o),
(85,-148,cs),
(85,-132,o),
(99,-118,o),
(116,-118,cs),
(132,-118,o),
(146,-132,o),
(146,-148,cs),
(146,-165,o),
(132,-179,o),
(116,-179,cs)
);
}
);
width = 231;
}
);
unicode = 805;
}
{
glyphname = cedillacomb;
layers = (
{
anchors = (
{
name = _bottom;
pos = (126,0);
},
{
name = bottom;
pos = (126,-239);
}
);
layerId = m01;
shapes = (
{
closed = 1;
nodes = (
(104,-239,ls),
(143,-239,o),
(232,-235,o),
(232,-142,cs),
(232,-56,o),
(158,-40,o),
(130,-30,c),
(143,24,l),
(40,24,l),
(20,-87,l),
(43,-87,ls),
(96,-87,o),
(126,-95,o),
(126,-119,cs),
(126,-146,o),
(109,-145,o),
(69,-145,cs),
(26,-145,l),
(26,-239,l)
);
}
);
width = 252;
}
);
unicode = 807;
}
{
glyphname = baht;
kernLeft = H;
kernRight = B;
layers = (
{
layerId = m01;
shapes = (
{
ref = B;
},
{
closed = 1;
nodes = (
(169,629,l),
(364,629,l),
(364,800,l),
(169,800,l)
);
},
{
closed = 1;
nodes = (
(169,-100,l),
(364,-100,l),
(364,71,l),
(169,71,l)
);
}
);
width = 647;
}
);
metricLeft = H;
metricRight = B;
unicode = 3647;
}
{
glyphname = "uluCandra-bali";
layers = (
{
anchors = (
{
name = _top;
pos = (499,800);
}
);
layerId = m01;
shapes = (
{
closed = 1;
nodes = (
(833,1217,l),
(823,1032,o),
(674,902,o),
(499,902,cs),
(321,902,o),
(173,1032,o),
(163,1217,c),
(20,1217,l),
(20,983,o),
(213,757,o),
(499,757,cs),
(780,757,o),
(976,983,o),
(976,1217,c)
);
},
{
closed = 1;
nodes = (
(561,1193,l),
(545,1484,l),
(452,1484,l),
(435,1193,l)
);
},
{
closed = 1;
nodes = (
(727,892,l),
(717,1050,ls),
(712,1125,o),
(642,1217,o),
(499,1217,cs),
(355,1217,o),
(289,1125,o),
(280,1050,cs),
(260,892,l),
(400,862,l),
(420,991,ls),
(427,1036,o),
(444,1070,o),
(499,1070,cs),
(553,1070,o),
(570,1036,o),
(577,991,cs),
(597,862,l)
);
}
);
width = 996;
}
);
unicode = 6913;
}
{
glyphname = "cecek-bali";
layers = (
{
anchors = (
{
name = _right;
pos = (36,800);
},
{
name = _top;
pos = (139,800);
}
);
layerId = m01;
shapes = (
{
closed = 1;
nodes = (
(468,773,l),
(412,1056,o),
(331,1308,o),
(290,1315,cs),
(236,1325,o),
(88,1207,o),
(20,1150,c),
(123,1016,l),
(150,1044,o),
(214,1107,o),
(222,1104,cs),
(234,1097,o),
(277,946,o),
(313,744,c)
);
}
);
width = 488;
}
);
unicode = 6914;
}
{
glyphname = "surang-bali";
layers = (
{
anchors = (
{
name = _top;
pos = (391,800);
}
);
layerId = m01;
shapes = (
{
closed = 1;
nodes = (
(757,877,l),
(506,905,o),
(265,1105,o),
(265,1316,c),
(20,1316,l),
(20,1048,o),
(310,785,o),
(666,744,c)
);
}
);
width = 777;
}
);
unicode = 6915;
}
{
glyphname = "bisah-bali";
layers = (
{
layerId = m01;
shapes = (
{
closed = 1;
nodes = (
(519,279,o),
(568,375,o),
(568,473,cs),
(568,593,o),
(473,716,o),
(255,716,cs),
(80,716,o),
(20,628,o),
(20,531,cs),
(20,397,o),
(129,350,o),
(212,393,c),
(216,455,l),
(197,455,o),
(188,468,o),
(188,484,cs),
(188,508,o),
(217,520,o),
(255,520,cs),
(326,520,o),
(376,482,o),
(376,428,cs),
(376,365,o),
(363,294,o),
(198,294,cs),
(177,294,l),
(177,128,l),
(198,128,ls),
(310,128,o),
(381,68,o),
(381,-27,cs),
(381,-141,o),
(316,-313,o),
(268,-471,cs),
(208,-668,o),
(183,-908,o),
(335,-1123,c),
(502,-1039,l),
(397,-836,o),
(406,-700,o),
(455,-543,cs),
(513,-359,o),
(603,-167,o),
(603,-12,cs),
(603,144,o),
(504,243,o),
(433,253,c)
);
}
);
width = 623;
}
);
unicode = 6916;
}
{
glyphname = "akaraTedung-bali";
layers = (
{
anchors = (
{
name = bottom;
pos = (1735,0);
},
{
name = cecek_bangkiang;
pos = (1091,429);
},
{
name = suwet_sa;
pos = (1093,297);
},
{
name = top;
pos = (953,800);
}
);
layerId = m01;
shapes = (
{
closed = 1;
nodes = (
(1440,123,l),
(1440,175,l),
(1030,175,ls),
(945,175,o),
(905,200,o),
(905,245,cs),
(905,252,l),
(710,252,l),
(710,147,o),
(767,0,o),
(1005,0,cs),
(1343,0,l)
);
},
{
pos = (928,0);
ref = _cecek_bangkiang;
},
{
closed = 1;
nodes = (
(808,684,l),
(732,758,o),
(621,800,o),
(463,800,cs),
(113,800,o),
(20,524,o),
(20,364,cs),
(20,59,o),
(230,-16,o),
(404,-16,cs),
(558,-16,o),
(683,38,o),
(683,181,cs),
(683,234,o),
(647,276,o),
(594,292,c),
(631,321,o),
(653,364,o),
(653,418,cs),
(653,513,o),
(570,565,o),
(471,565,cs),
(368,565,o),
(313,495,o),
(295,464,c),
(354,398,l),
(368,414,o),
(387,445,o),
(429,445,cs),
(463,445,o),
(483,425,o),
(483,398,cs),
(483,361,o),
(441,350,o),
(398,350,cs),
(379,350,l),
(379,265,l),
(422,265,ls),
(456,265,o),
(528,252,o),
(528,203,cs),
(528,163,o),
(487,140,o),
(404,140,cs),
(317,140,o),
(195,172,o),
(195,364,cs),
(195,543,o),
(308,635,o),
(464,635,cs),
(566,635,o),
(639,610,o),
(689,557,c)
);
},
{
closed = 1;
nodes = (
(1440,123,l),
(1440,267,ls),
(1440,370,o),
(1465,522,o),
(1659,522,cs),
(1792,522,o),
(1872,457,o),
(1872,330,cs),
(1872,202,o),
(1801,159,o),
(1747,159,cs),
(1707,159,o),
(1682,175,o),
(1682,202,cs),
(1682,224,o),
(1698,245,o),
(1721,243,c),
(1684,368,l),
(1587,390,o),
(1492,310,o),
(1492,186,cs),
(1492,102,o),
(1542,-16,o),
(1744,-16,cs),
(1892,-16,o),
(2067,67,o),
(2067,330,cs),
(2067,602,o),
(1855,716,o),
(1659,716,cs),
(1416,716,o),
(1245,579,o),
(1245,337,cs),
(1245,135,l)
);
}
);
width = 2087;
}
);
unicode = 6918;
}
{
glyphname = "ukara-bali";
layers = (
{
anchors = (
{
name = top;
pos = (597,800);
}
);
layerId = m01;
shapes = (
{
closed = 1;
nodes = (
(287,-188,o),
(172,-294,cs),
(-78,-524,o),
(-239,-728,o),
(-63,-1107,c),
(210,-1107,l),
(307,-984,l),
(246,-770,o),
(365,-673,o),
(534,-673,cs),
(833,-673,o),
(796,-931,o),
(796,-1107,c),
(989,-1107,l),
(989,-984,ls),
(989,-719,o),
(919,-478,o),
(536,-478,cs),
(192,-478,o),
(62,-733,o),
(102,-910,c),
(68,-910,l),
(7,-691,o),
(135,-562,o),
(287,-418,cs),
(458,-257,o),
(759,43,o),
(759,308,cs),
(759,538,o),
(651,716,o),
(390,716,cs),
(172,716,o),
(60,608,o),
(60,424,cs),
(60,275,o),
(217,209,o),
(338,249,c),
(338,349,l),
(277,349,o),
(252,389,o),
(255,424,cs),
(257,462,o),
(277,521,o),
(390,521,cs),
(521,521,o),
(564,406,o),
(564,302,cs),
(564,90,o)
);
}
);
width = 789;
}
);
unicode = 6921;
}
{
glyphname = "laLengaTedung-bali";
layers = (
{
layerId = m01;
shapes = (
{
closed = 1;
nodes = (
(1371,121,l),
(1384,459,o),
(1328,716,o),
(1091,716,cs),
(999,716,o),
(930,645,o),
(917,583,c),
(907,627,o),
(848,716,o),
(757,716,cs),
(495,716,o),
(463,406,o),
(509,123,c),
(542,0,l),
(605,0,l),
(702,123,l),
(670,312,o),
(674,521,o),
(782,521,cs),
(816,521,o),
(846,426,o),
(846,389,c),
(987,389,l),
(987,426,o),
(1010,521,o),
(1070,521,cs),
(1164,521,o),
(1189,353,o),
(1174,121,c)
);
},
{
closed = 1;
nodes = (
(473,-213,o),
(811,-297,o),
(1150,-354,c),
(1116,-313,l),
(1101,-470,o),
(1027,-721,o),
(977,-864,c),
(1027,-801,l),
(917,-657,o),
(268,-721,o),
(392,-413,cs)
);
},
{
closed = 1;
nodes = (
(1174,121,l),
(1168,26,o),
(1155,-81,o),
(1138,-191,c),
(1181,-152,l),
(717,-74,o),
(249,6,o),
(173,-397,cs),
(66,-963,o),
(1003,-798,o),
(927,-1048,cs),
(907,-1107,l),
(1066,-1107,l),
(1163,-984,l),
(1295,-581,o),
(1357,-172,o),
(1371,121,c)
);
},
{
closed = 1;
nodes = (
(1317,-724,l),
(1356,-763,o),
(1432,-787,o),
(1523,-787,cs),
(1623,-787,o),
(1805,-734,o),
(1805,-572,cs),
(1805,-508,o),
(1756,-487,o),
(1707,-472,c),
(1741,-446,o),
(1756,-381,o),
(1756,-331,cs),
(1756,-243,o),
(1674,-131,o),
(1553,-131,cs),
(1483,-131,o),
(1414,-188,o),
(1323,-182,c),
(1292,-354,l),
(1420,-363,o),
(1467,-302,o),
(1530,-302,cs),
(1573,-302,o),
(1584,-335,o),
(1584,-355,cs),
(1584,-397,o),
(1545,-419,o),
(1505,-419,cs),
(1487,-419,l),
(1487,-527,l),
(1527,-527,ls),
(1559,-527,o),
(1596,-548,o),
(1596,-581,cs),
(1596,-625,o),
(1558,-644,o),
(1504,-644,cs),
(1462,-644,o),
(1402,-626,o),
(1373,-593,c)
);
},
{
closed = 1;
nodes = (
(436,292,l),
(451,376,o),
(460,457,o),
(460,529,cs),
(460,634,o),
(386,716,o),
(231,716,cs),
(80,716,o),
(20,608,o),
(20,511,cs),
(20,393,o),
(112,338,o),
(212,411,c),
(216,455,l),
(172,455,o),
(177,520,o),
(220,520,cs),
(285,520,o),
(253,413,o),
(229,292,c)
);
},
{
closed = 1;
nodes = (
(229,292,l),
(226,278,o),
(223,264,o),
(221,250,cs),
(209,180,o),
(164,0,o),
(386,0,cs),
(585,0,l),
(585,175,l),
(469,175,ls),
(433,175,o),
(416,186,o),
(423,222,cs),
(436,292,l)
);
}
);
width = 1825;
}
);
unicode = 6926;
}
{
glyphname = "ekara-bali";
layers = (
{
layerId = m01;
shapes = (
{
closed = 1;
nodes = (
(229,218,l),
(204,261,o),
(175,521,o),
(433,521,c),
(433,716,l),
(-83,716,o),
(-84,-16,o),
(257,-16,c),
(344,123,l),
(344,174,o),
(361,234,o),
(466,234,cs),
(612,234,o),
(587,114,o),
(569,0,c),
(764,0,l),
(776,93,ls),
(807,337,o),
(680,429,o),
(493,429,cs),
(336,429,o),
(251,321,o),
(245,218,c)
);
}
);
width = 801;
}
);
unicode = 6927;
}
{
glyphname = "aikara-bali";
kernLeft = ha;
layers = (
{
anchors = (
{
name = bottom;
pos = (777,0);
},
{
name = repa;
pos = (890,0);
},
{
name = top;
pos = (785,800);
}
);
layerId = m01;
shapes = (
{
closed = 1;
nodes = (
(1145,139,o),
(1014,0,o),
(805,-158,cs),
(571,-335,o),
(308,-480,o),
(306,-755,cs),
(304,-998,o),
(493,-1123,o),
(702,-1123,cs),
(893,-1123,o),
(966,-1079,o),
(1007,-992,c),
(1054,-1077,o),
(1164,-1123,o),
(1326,-1123,cs),
(1632,-1123,o),
(1761,-931,o),
(1761,-621,cs),
(1761,393,l),
(1566,393,l),
(1566,-612,ls),
(1566,-861,o),
(1478,-928,o),
(1312,-928,cs),
(1164,-928,o),
(1127,-862,o),
(1116,-791,c),
(897,-791,l),
(889,-860,o),
(858,-928,o),
(706,-928,cs),
(581,-928,o),
(500,-887,o),
(501,-755,cs),
(502,-568,o),
(725,-484,o),
(921,-315,cs),
(1131,-134,o),
(1340,31,o),
(1340,364,cs),
(1340,500,o),
(1312,716,o),
(1089,716,cs),
(999,716,o),
(930,645,o),
(917,584,cs),
(917,583,ls),
(907,627,o),
(848,716,o),
(757,716,cs),
(495,716,o),
(463,406,o),
(509,123,c),
(542,0,l),
(605,0,l),
(702,123,l),
(670,312,o),
(674,521,o),
(782,521,cs),
(816,521,o),
(846,426,o),
(846,389,c),
(996,389,l),
(996,419,ls),
(996,469,o),
(1024,521,o),
(1074,521,cs),
(1140,521,o),
(1145,394,o),
(1145,346,cs)
);
},
{
closed = 1;
nodes = (
(1815,631,o),
(1698,569,o),
(1611,569,cs),
(1533,569,o),
(1495,578,o),
(1495,631,cs),
(1495,660,o),
(1511,670,o),
(1533,670,cs),
(1551,670,o),
(1566,657,o),
(1566,631,cs),
(1566,337,l),
(1761,337,l),
(1761,598,ls),
(1761,808,o),
(1644,865,o),
(1533,865,cs),
(1408,865,o),
(1326,785,o),
(1326,665,cs),
(1326,513,o),
(1433,428,o),
(1611,428,cs),
(1744,428,o),
(1930,490,o),
(1968,734,c),
(1828,759,l)
);
},
{
closed = 1;
nodes = (
(436,292,l),
(451,376,o),
(460,457,o),
(460,529,cs),
(460,634,o),
(386,716,o),
(231,716,cs),
(80,716,o),
(20,608,o),
(20,511,cs),
(20,393,o),
(112,338,o),
(212,411,c),
(216,455,l),
(172,455,o),
(177,520,o),
(220,520,cs),
(285,520,o),
(253,413,o),
(229,292,c)
);
},
{
closed = 1;
nodes = (
(229,292,l),
(226,278,o),
(223,264,o),
(221,250,cs),
(209,180,o),
(164,0,o),
(386,0,cs),
(585,0,l),
(585,175,l),
(469,175,ls),
(433,175,o),
(416,186,o),
(423,222,cs),
(436,292,l)
);
}
);
width = 1948;
}
);
unicode = 6928;
}
{
glyphname = "okara-bali";
kernLeft = ha;
layers = (
{
anchors = (
{
name = top;
pos = (785,800);
}
);
layerId = m01;
shapes = (
{
closed = 1;
nodes = (
(1139,-115,l),
(1255,8,o),
(1340,152,o),
(1340,364,cs),
(1340,500,o),
(1312,716,o),
(1089,716,cs),
(999,716,o),
(930,645,o),
(917,584,cs),
(917,583,ls),
(907,627,o),
(848,716,o),
(757,716,cs),
(495,716,o),
(463,406,o),
(509,123,c),
(542,0,l),
(605,0,l),
(702,123,l),
(670,312,o),
(674,521,o),
(782,521,cs),
(816,521,o),
(846,426,o),
(846,389,c),
(996,389,l),
(996,419,ls),
(996,469,o),
(1024,521,o),
(1074,521,cs),
(1140,521,o),
(1145,394,o),
(1145,346,cs),
(1145,198,o),
(1078,85,o),
(964,-25,c)
);
},
{
closed = 1;
nodes = (
(964,-25,l),
(918,-69,o),
(865,-113,o),
(805,-158,cs),
(392,-468,o),
(143,-631,o),
(364,-1107,c),
(637,-1107,l),
(734,-984,l),
(673,-770,o),
(792,-673,o),
(961,-673,cs),
(1260,-673,o),
(1223,-931,o),
(1223,-1107,c),
(1416,-1107,l),
(1416,-984,ls),
(1416,-719,o),
(1346,-478,o),
(963,-478,cs),
(619,-478,o),
(489,-733,o),
(529,-910,c),
(495,-910,l),
(413,-614,o),
(695,-510,o),
(921,-315,cs),
(997,-249,o),
(1073,-186,o),
(1139,-115,c)
);
},
{
closed = 1;
nodes = (
(436,292,l),
(451,376,o),
(460,457,o),
(460,529,cs),
(460,634,o),
(386,716,o),
(231,716,cs),
(80,716,o),
(20,608,o),
(20,511,cs),
(20,393,o),
(112,338,o),
(212,411,c),
(216,455,l),
(172,455,o),
(177,520,o),
(220,520,cs),
(285,520,o),
(253,413,o),
(229,292,c)
);
},
{
closed = 1;
nodes = (
(229,292,l),
(226,278,o),
(223,264,o),
(221,250,cs),
(209,180,o),
(164,0,o),
(386,0,cs),
(585,0,l),
(585,175,l),
(469,175,ls),
(433,175,o),
(416,186,o),
(423,222,cs),
(436,292,l)
);
}
);
width = 1360;
}
);
unicode = 6929;
}
{
glyphname = "ga-bali";
kernLeft = ha;
layers = (
{
anchors = (
{
name = bottom;
pos = (1631,0);
},
{
name = cecek_bangkiang;
pos = (903,429);
},
{
name = gantungan_cenik;
pos = (866,0);
},
{
name = top;
pos = (851,800);
}
);
guides = (
{
angle = 90;
pos = (1631,-111);
}
);
layerId = m01;
shapes = (
{
pos = (1232,0);
ref = _belakang_ha;
},
{
closed = 1;
nodes = (
(717,123,l),
(674,348,o),
(670,521,o),
(910,521,cs),
(1165,521,o),
(1142,206,o),
(1086,0,c),
(1276,0,l),
(1362,393,o),
(1354,716,o),
(910,716,cs),
(511,716,o),
(429,451,o),
(550,0,c),
(620,0,l)
);
},
{
closed = 1;
nodes = (
(436,292,l),
(451,376,o),
(460,457,o),
(460,529,cs),
(460,634,o),
(386,716,o),
(231,716,cs),
(80,716,o),
(20,608,o),
(20,511,cs),
(20,393,o),
(112,338,o),
(212,411,c),
(216,455,l),
(172,455,o),
(177,520,o),
(220,520,cs),
(285,520,o),
(253,413,o),
(229,292,c)
);
},
{
closed = 1;
nodes = (
(229,292,l),
(226,278,o),
(223,264,o),
(221,250,cs),
(209,180,o),
(164,0,o),
(386,0,cs),
(585,0,l),
(585,175,l),
(469,175,ls),
(433,175,o),
(416,186,o),
(423,222,cs),
(436,292,l)
);
}
);
width = 1651;
}
);
unicode = 6933;
}
{
glyphname = "nga-bali";
kernLeft = ha;
layers = (
{
anchors = (
{
name = bottom;
pos = (1335,0);
},
{
name = gantungan_cenik;
pos = (890,0);
},
{
name = repa;
pos = (890,0);
},
{
name = top;
pos = (885,800);
}
);
guides = (
{
angle = 90;
pos = (1335,-111);
}
);
layerId = m01;
shapes = (
{
closed = 1;
nodes = (
(1011,446,o),
(1017,521,o),
(1051,521,cs),
(1183,521,o),
(1155,206,o),
(1099,0,c),
(1294,0,l),
(1380,393,o),
(1343,716,o),
(1087,716,cs),
(1000,716,o),
(926,627,o),
(917,584,c),
(907,628,o),
(848,716,o),
(757,716,cs),
(495,716,o),
(463,406,o),
(509,123,c),
(542,0,l),
(605,0,l),
(702,123,l),
(670,312,o),
(674,521,o),
(782,521,cs),
(816,521,o),
(822,446,o),
(822,389,c),
(1011,389,l)
);
},
{
closed = 1;
nodes = (
(436,292,l),
(451,376,o),
(460,457,o),
(460,529,cs),
(460,634,o),
(386,716,o),
(231,716,cs),
(80,716,o),
(20,608,o),
(20,511,cs),
(20,393,o),
(112,338,o),
(212,411,c),
(216,455,l),
(172,455,o),
(177,520,o),
(220,520,cs),
(285,520,o),
(253,413,o),
(229,292,c)
);
},
{
closed = 1;
nodes = (
(229,292,l),
(226,278,o),
(223,264,o),
(221,250,cs),
(209,180,o),
(164,0,o),
(386,0,cs),
(585,0,l),
(585,175,l),
(469,175,ls),
(433,175,o),
(416,186,o),
(423,222,cs),
(436,292,l)
);
}
);
width = 1356;
}
);
unicode = 6935;
}
{
glyphname = "ca-bali";
layers = (
{
anchors = (
{
name = bottom;
pos = (1226,0);
},
{
name = top;
pos = (612,800);
}
);
guides = (
{
angle = 90;
pos = (1206,-111);
}
);
layerId = m01;
shapes = (
{
closed = 1;
nodes = (
(923,123,l),
(970,285,o),
(957,387,o),
(918,444,cs),
(866,519,o),
(790,511,o),
(790,526,cs),
(790,537,o),
(819,540,o),
(856,539,cs),
(957,536,o),
(1125,457,o),
(987,0,c),
(1180,0,l),
(1287,455,o),
(1214,716,o),
(866,716,cs),
(752,716,o),
(582,683,o),
(582,461,cs),
(582,418,l),
(797,418,o),
(788,260,o),
(721,116,c),
(707,61,l),
(826,0,l)
);
},
{
closed = 1;
nodes = (
(760,168,ls),
(529,168,o),
(474,391,o),
(256,391,cs),
(63,391,o),
(20,283,o),
(20,182,cs),
(20,67,o),
(111,-18,o),
(225,-18,cs),
(441,-18,o),
(473,203,o),
(473,359,cs),
(473,583,o),
(383,716,o),
(236,716,cs),
(104,716,o),
(30,634,o),
(30,528,cs),
(30,435,o),
(135,405,o),
(212,435,c),
(212,504,l),
(201,504,o),
(185,512,o),
(185,528,cs),
(185,543,o),
(199,555,o),
(219,555,cs),
(331,555,o),
(356,144,o),
(237,144,cs),
(210,144,o),
(200,159,o),
(200,190,cs),
(200,223,o),
(222,252,o),
(256,252,cs),
(407,252,o),
(454,0,o),
(764,0,cs),
(826,0,l),
(826,168,l)
);
}
);
width = 1245;
}
);
unicode = 6936;
}
{
glyphname = "ja-bali";
layers = (
{
anchors = (
{
name = bottom;
pos = (1091,0);
},
{
name = gantungan_cenik;
pos = (624,0);
},
{
name = top;
pos = (618,800);
}
);
guides = (
{
angle = 90;
pos = (1091,-111);
}
);
layerId = m01;
shapes = (
{
closed = 1;
nodes = (
(624,0,l),
(721,123,l),
(681,307,o),
(659,521,o),
(792,521,cs),
(920,521,o),
(922,387,o),
(764,387,c),
(764,269,l),
(822,269,o),
(928,180,o),
(873,0,c),
(1068,0,l),
(1098,123,o),
(1127,239,o),
(969,293,c),
(1156,391,o),
(1142,716,o),
(792,716,cs),
(422,716,o),
(470,293,o),
(555,0,c)
);
},
{
closed = 1;
nodes = (
(436,292,l),
(451,376,o),
(460,457,o),
(460,529,cs),
(460,634,o),
(386,716,o),
(231,716,cs),
(80,716,o),
(20,608,o),
(20,511,cs),
(20,393,o),
(112,338,o),
(212,411,c),
(216,455,l),
(172,455,o),
(177,520,o),
(220,520,cs),
(285,520,o),
(253,413,o),
(229,292,c)
);
},
{
closed = 1;
nodes = (
(229,292,l),
(226,278,o),
(223,264,o),
(221,250,cs),
(209,180,o),
(164,0,o),
(386,0,cs),
(585,0,l),
(585,175,l),
(469,175,ls),
(433,175,o),
(416,186,o),
(423,222,cs),
(436,292,l)
);
}
);
width = 1112;
}
);
unicode = 6938;
}
{
glyphname = "nya-bali";
layers = (
{
anchors = (
{
name = bottom;
pos = (1929,0);
},
{
name = nya_gantungan;
pos = (836,0);
},
{
name = top;
pos = (928,800);
}
);
guides = (
{
angle = 90;
pos = (1929,-111);
}
);
layerId = m01;
shapes = (
{
ref = "nga-bali";
},
{
closed = 1;
nodes = (
(1348,64,l),
(1396,13,o),
(1480,-16,o),
(1586,-16,cs),
(1848,-16,o),
(1929,207,o),
(1929,320,cs),
(1929,674,o),
(1562,716,o),
(1414,716,cs),
(1334,716,o),
(1279,475,o),
(1302,419,c),
(1334,279,l),
(1348,413,o),
(1420,514,o),
(1514,514,cs),
(1620,514,o),
(1734,439,o),
(1734,320,cs),
(1734,199,o),
(1666,178,o),
(1586,178,cs),
(1569,178,o),
(1514,178,o),
(1470,219,c)
);
}
);
width = 1949;
}
);
unicode = 6940;
}
{
glyphname = "taMurdaMahaprana-bali";
kernLeft = ha;
layers = (
{
anchors = (
{
name = bottom;
pos = (1383,0);
},
{
name = top;
pos = (885,800);
}
);
guides = (
{
angle = 90;
pos = (1339,-111);
}
);
layerId = m01;
shapes = (
{
closed = 1;
nodes = (
(229,292,l),
(226,278,o),
(223,264,o),
(221,250,cs),
(210,186,o),
(203,-16,o),
(515,-16,cs),
(734,-16,o),
(798,117,o),
(798,255,cs),
(798,295,l),
(603,295,l),
(603,250,ls),
(603,165,o),
(538,158,o),
(503,158,cs),
(467,158,o),
(412,177,o),
(428,252,cs),
(436,292,l)
);
},
{
closed = 1;
nodes = (
(436,292,l),
(451,376,o),
(460,457,o),
(460,529,cs),
(460,634,o),
(386,716,o),
(231,716,cs),
(80,716,o),
(20,608,o),
(20,511,cs),
(20,393,o),
(112,338,o),
(212,411,c),
(216,455,l),
(172,455,o),
(177,520,o),
(220,520,cs),
(285,520,o),
(253,413,o),
(229,292,c)
);
},
{
closed = 1;
nodes = (
(695,409,l),
(707,476,o),
(735,521,o),
(785,521,cs),
(819,521,o),
(825,446,o),
(825,389,c),
(1014,389,l),
(1014,446,o),
(1020,521,o),
(1054,521,cs),
(1186,521,o),
(1163,206,o),
(1107,0,c),
(1297,0,l),
(1383,393,o),
(1351,716,o),
(1079,716,cs),
(992,716,o),
(929,626,o),
(920,583,c),
(910,627,o),
(851,716,o),
(760,716,cs),
(587,716,o),
(515,581,o),
(498,409,c)
);
}
);
width = 1359;
}
);
unicode = 6942;
}
{
glyphname = "daMurdaMahaprana-bali";
layers = (
{
anchors = (
{
name = Gantungan_Lurus;
pos = (858,-16);
},
{
name = bottom;
pos = (1191,0);
},
{
name = top;
pos = (695,800);
}
);
layerId = m01;
shapes = (
{
closed = 1;
nodes = (
(647,115,l),
(688,75,o),
(743,-16,o),
(867,-16,cs),
(1104,-16,o),
(1170,445,o),
(995,716,c),
(832,607,l),
(923,428,o),
(902,185,o),
(799,185,cs),
(748,185,o),
(744,247,o),
(744,297,cs),
(744,346,l),
(652,346,l)
);
},
{
closed = 1;
nodes = (
(436,292,l),
(451,376,o),
(460,457,o),
(460,529,cs),
(460,634,o),
(386,716,o),
(231,716,cs),
(80,716,o),
(20,608,o),
(20,511,cs),
(20,393,o),
(112,338,o),
(212,411,c),
(216,455,l),
(172,455,o),
(177,520,o),
(220,520,cs),
(285,520,o),
(253,413,o),
(229,292,c)
);
},
{
closed = 1;
nodes = (
(661,346,l),
(549,346,l),
(549,264,ls),
(549,225,o),
(532,192,o),
(490,192,cs),
(464,192,o),
(424,221,o),
(436,292,cs),
(441,321,l),
(235,320,l),
(221,250,ls),
(192,105,o),
(251,-16,o),
(424,-16,cs),
(550,-16,o),
(601,71,o),
(647,115,c),
(661,104,l)
);
}
);
width = 1111;
}
);
unicode = 6944;
}
{
glyphname = "naRambat-bali";
layers = (
{
anchors = (
{
name = bottom;
pos = (1415,0);
},
{
name = top;
pos = (692,800);
}
);
layerId = m01;
shapes = (
{
pos = (1016,0);
ref = _belakang_ha;
},
{
closed = 1;
nodes = (
(217,343,o),
(202,461,o),
(237,608,c),
(47,608,l),
(20,517,o),
(14,426,o),
(27,335,cs),
(59,112,o),
(233,148,o),
(344,148,c),
(451,284,l),
(452,356,ls),
(457,437,o),
(481,521,o),
(548,521,cs),
(582,521,o),
(588,446,o),
(588,389,c),
(777,389,l),
(777,446,o),
(783,521,o),
(817,521,cs),
(949,521,o),
(926,206,o),
(870,0,c),
(1060,0,l),
(1146,393,o),
(1114,716,o),
(842,716,cs),
(755,716,o),
(692,626,o),
(683,583,c),
(673,627,o),
(614,716,o),
(523,716,cs),
(329,716,o),
(261,546,o),
(258,343,c)
);
}
);
width = 1435;
}
);
unicode = 6945;
}
{
glyphname = "ta-bali";
kernLeft = ha;
layers = (
{
anchors = (
{
name = bottom;
pos = (1531,0);
},
{
name = suwet_ta;
pos = (560,297);
},
{
name = top;
pos = (841,800);
}
);
guides = (
{
angle = 90;
pos = (1523,-111);
}
);
layerId = m01;
shapes = (
{
closed = 0;
nodes = (
(358,0,l)
);
},
{
alignment = -1;
pos = (1174,0);
ref = _belakang_ha;
},
{
closed = 1;
nodes = (
(1345,455,o),
(1189,716,o),
(871,716,cs),
(656,716,o),
(545,635,o),
(545,458,cs),
(545,342,o),
(584,256,o),
(696,256,cs),
(741,256,o),
(770,253,o),
(770,192,cs),
(769,0,l),
(873,0,l),
(970,123,l),
(970,200,ls),
(970,364,o),
(890,428,o),
(786,428,cs),
(766,428,o),
(740,429,o),
(740,461,cs),
(740,521,o),
(775,521,o),
(869,521,cs),
(1141,521,o),
(1101,206,o),
(1045,0,c),
(1238,0,l)
);
},
{
closed = 1;
nodes = (
(940,123,l),
(940,165,l),
(483,165,l),
(483,0,l),
(843,0,l)
);
},
{
closed = 1;
nodes = (
(436,292,l),
(451,376,o),
(460,457,o),
(460,529,cs),
(460,634,o),
(386,716,o),
(231,716,cs),
(80,716,o),
(20,608,o),
(20,511,cs),
(20,393,o),
(112,338,o),
(212,411,c),
(216,455,l),
(172,455,o),
(177,520,o),
(220,520,cs),
(285,520,o),
(253,413,o),
(229,292,c)
);
},
{
closed = 1;
nodes = (
(229,292,l),
(226,278,o),
(223,264,o),
(221,250,cs),
(209,180,o),
(164,0,o),
(386,0,cs),
(585,0,l),
(585,165,l),
(469,165,ls),
(433,165,o),
(417,176,o),
(423,212,cs),
(436,292,l)
);
}
);
width = 1593;
}
);
unicode = 6946;
}
{
glyphname = "da-bali";
kernLeft = ha;
layers = (
{
anchors = (
{
name = bottom;
pos = (1313,0);
},
{
name = top;
pos = (747,800);
}
);
guides = (
{
angle = 90;
pos = (1313,-111);
}
);
layerId = m01;
shapes = (
{
closed = 1;
nodes = (
(452,411,l),
(457,449,o),
(460,486,o),
(460,529,cs),
(460,634,o),
(386,716,o),
(231,716,cs),
(80,716,o),
(20,608,o),
(20,511,cs),
(20,393,o),
(112,338,o),
(212,411,c),
(216,455,l),
(172,455,o),
(177,520,o),
(220,520,cs),
(262,520,o),
(264,475,o),
(253,411,c)
);
},
{
closed = 1;
nodes = (
(253,411,l),
(245,364,o),
(231,307,o),
(221,250,cs),
(209,180,o),
(166,-16,o),
(373,-16,cs),
(516,-16,o),
(585,192,o),
(710,243,c),
(689,395,l),
(628,370,o),
(546,330,o),
(499,268,cs),
(446,199,o),
(407,196,o),
(423,268,cs),
(436,327,o),
(446,369,o),
(452,411,c)
);
},
{
closed = 1;
nodes = (
(649,214,o),
(678,252,o),
(766,252,cs),
(854,252,o),
(899,238,o),
(899,195,cs),
(899,166,o),
(890,146,o),
(833,146,cs),
(740,146,o),
(703,234,o),
(703,316,cs),
(703,484,o),
(776,521,o),
(898,521,cs),
(1101,521,o),
(1171,378,o),
(1090,0,c),
(1280,0,l),
(1372,481,o),
(1277,716,o),
(899,716,cs),
(630,716,o),
(508,586,o),
(508,316,cs),
(508,195,o),
(577,-16,o),
(818,-16,cs),
(1031,-16,o),
(1079,90,o),
(1079,205,cs),
(1079,370,o),
(922,411,o),
(791,411,cs),
(678,411,o),
(594,354,o),
(515,281,c),
(582,164,l)
);
}
);
width = 1333;
}
);
unicode = 6948;
}
{
glyphname = "daMadu-bali";
kernLeft = ha;
layers = (
{
anchors = (
{
name = bottom;
pos = (1407,0);
},
{
name = top;
pos = (695,800);
}
);
layerId = m01;
shapes = (
{
closed = 1;
nodes = (
(1452,393,o),
(1418,716,o),
(1094,716,cs),
(933,716,o),
(809,657,o),
(809,461,cs),
(809,348,l),
(927,348,o),
(955,316,o),
(955,264,c),
(955,265,l),
(1150,285,l),
(1150,335,ls),
(1150,501,o),
(1020,434,o),
(1020,481,cs),
(1020,527,o),
(1159,561,o),
(1194,464,cs),
(1225,364,o),
(1222,206,o),
(1166,0,c),
(1366,0,l)
);
},
{
closed = 1;
nodes = (
(436,292,l),
(451,376,o),
(460,457,o),
(460,529,cs),
(460,634,o),
(386,716,o),
(231,716,cs),
(80,716,o),
(20,608,o),
(20,511,cs),
(20,393,o),
(112,338,o),
(212,411,c),
(216,455,l),
(172,455,o),
(177,520,o),
(220,520,cs),
(285,520,o),
(253,413,o),
(229,292,c)
);
},
{
closed = 1;
nodes = (
(955,265,l),
(955,221,o),
(920,179,o),
(862,179,cs),
(795,179,o),
(744,225,o),
(744,280,cs),
(744,346,l),
(549,346,l),
(549,279,ls),
(549,225,o),
(532,179,o),
(481,179,cs),
(455,179,o),
(419,193,o),
(436,292,cs),
(441,321,l),
(235,320,l),
(221,250,ls),
(192,105,o),
(251,-16,o),
(424,-16,cs),
(550,-16,o),
(601,71,o),
(647,115,c),
(683,71,o),
(727,-16,o),
(873,-16,cs),
(1082,-16,o),
(1150,115,o),
(1150,285,c)
);
}
);
width = 1427;
}
);
unicode = 6949;
}
{
glyphname = "na-bali";
layers = (
{
anchors = (
{
name = bottom;
pos = (1302,0);
},
{
name = top;
pos = (654,800);
}
);
layerId = m01;
shapes = (
{
closed = 1;
nodes = (
(508,411,o),
(354,411,o),
(256,411,cs),
(63,411,o),
(20,283,o),
(20,182,cs),
(20,67,o),
(111,-16,o),
(225,-16,cs),
(441,-16,o),
(473,203,o),
(473,359,cs),
(473,583,o),
(383,716,o),
(236,716,cs),
(104,716,o),
(30,634,o),
(30,528,cs),
(30,435,o),
(135,405,o),
(212,435,c),
(212,504,l),
(201,504,o),
(185,512,o),
(185,528,cs),
(185,543,o),
(199,555,o),
(219,555,cs),
(331,555,o),
(356,144,o),
(237,144,cs),
(210,144,o),
(200,159,o),
(200,190,cs),
(200,223,o),
(222,252,o),
(276,252,cs),
(529,252,l),
(529,411,l)
);
},
{
closed = 1;
nodes = (
(755,252,ls),
(843,252,o),
(888,238,o),
(888,195,cs),
(888,166,o),
(879,146,o),
(822,146,cs),
(729,146,o),
(692,234,o),
(692,316,cs),
(692,484,o),
(765,521,o),
(887,521,cs),
(1090,521,o),
(1160,378,o),
(1079,0,c),
(1269,0,l),
(1361,481,o),
(1266,716,o),
(888,716,cs),
(619,716,o),
(497,586,o),
(497,316,cs),
(497,195,o),
(566,-16,o),
(807,-16,cs),
(1020,-16,o),
(1068,90,o),
(1068,205,cs),
(1068,370,o),
(911,411,o),
(780,411,cs),
(667,411,o),
(554,411,o),
(441,411,c),
(441,252,l)
);
}
);
width = 1322;
}
);
unicode = 6950;
}
{
glyphname = "pa-bali";
kernLeft = ha;
layers = (
{
anchors = (
{
name = bottom;
pos = (1233,0);
},
{
name = cecek_bangkiang;
pos = (608,429);
},
{
name = repa;
pos = (598,0);
},
{
name = suwet_sa;
pos = (598,297);
},
{
name = top;
pos = (710,800);
}
);
guides = (
{
angle = 90;
pos = (1173,-111);
}
);
layerId = m01;
shapes = (
{
closed = 1;
nodes = (
(938,123,l),
(938,175,l),
(569,175,l),
(569,0,l),
(841,0,l)
);
},
{
closed = 1;
nodes = (
(938,123,l),
(938,461,ls),
(938,508,o),
(949,521,o),
(980,521,cs),
(1081,521,o),
(1058,206,o),
(1002,0,c),
(1192,0,l),
(1278,393,o),
(1244,716,o),
(949,716,cs),
(843,716,o),
(743,681,o),
(743,474,cs),
(743,123,l)
);
},
{
closed = 1;
nodes = (
(436,292,l),
(451,376,o),
(460,457,o),
(460,529,cs),
(460,634,o),
(386,716,o),
(231,716,cs),
(80,716,o),
(20,608,o),
(20,511,cs),
(20,393,o),
(112,338,o),
(212,411,c),
(216,455,l),
(172,455,o),
(177,520,o),
(220,520,cs),
(285,520,o),
(253,413,o),
(229,292,c)
);
},
{
closed = 1;
nodes = (
(229,292,l),
(226,278,o),
(223,264,o),
(221,250,cs),
(209,180,o),
(164,0,o),
(386,0,cs),
(585,0,l),
(585,175,l),
(469,175,ls),
(433,175,o),
(416,186,o),
(423,222,cs),
(436,292,l)
);
}
);
width = 1253;
}
);
unicode = 6951;
}
{
glyphname = "paKapal-bali";
layers = (
{
anchors = (
{
name = Gantungan_Lurus;
pos = (598,0);
},
{
name = bottom;
pos = (980,0);
},
{
name = gantungan_cenik;
pos = (548,0);
},
{
name = top;
pos = (560,800);
}
);
layerId = m01;
shapes = (
{
closed = 1;
nodes = (
(436,292,l),
(451,376,o),
(460,457,o),
(460,529,cs),
(460,634,o),
(386,716,o),
(231,716,cs),
(80,716,o),
(20,608,o),
(20,511,cs),
(20,393,o),
(112,338,o),
(212,411,c),
(216,455,l),
(172,455,o),
(177,520,o),
(220,520,cs),
(285,520,o),
(253,413,o),
(229,292,c)
);
},
{
closed = 1;
nodes = (
(229,292,l),
(226,278,o),
(223,264,o),
(221,250,cs),
(209,180,o),
(164,0,o),
(465,0,cs),
(585,0,l),
(585,175,l),
(548,175,ls),
(433,175,o),
(416,186,o),
(431,265,cs),
(436,292,l)
);
},
{
closed = 1;
nodes = (
(743,389,l),
(743,365,ls),
(743,228,o),
(700,175,o),
(552,175,cs),
(512,175,l),
(512,0,l),
(627,0,ls),
(818,0,o),
(938,143,o),
(938,362,cs),
(938,389,l)
);
},
{
closed = 1;
nodes = (
(992,631,o),
(875,569,o),
(788,569,cs),
(710,569,o),
(672,578,o),
(672,631,cs),
(672,660,o),
(688,670,o),
(710,670,cs),
(728,670,o),
(743,657,o),
(743,631,cs),
(743,373,l),
(938,373,l),
(938,598,ls),
(938,808,o),
(821,865,o),
(710,865,cs),
(585,865,o),
(503,785,o),
(503,665,cs),
(503,513,o),
(610,428,o),
(788,428,cs),
(921,428,o),
(1107,490,o),
(1145,734,c),
(1005,759,l)
);
}
);
width = 1165;
}
);
unicode = 6952;
}
{
glyphname = "baKembang-bali";
layers = (
{
anchors = (
{
name = bottom;
pos = (1270,0);
},
{
name = top;
pos = (747,800);
}
);
guides = (
{
angle = 90;
pos = (1270,-111);
}
);
layerId = m01;
shapes = (
{
closed = 1;
nodes = (
(417,387,l),
(452,442,o),
(460,486,o),
(460,529,cs),
(460,634,o),
(386,716,o),
(231,716,cs),
(80,716,o),
(20,608,o),
(20,511,cs),
(20,393,o),
(112,338,o),
(212,411,c),
(216,455,l),
(172,455,o),
(177,520,o),
(220,520,cs),
(267,520,o),
(314,464,o),
(300,387,c)
);
},
{
closed = 1;
nodes = (
(606,214,o),
(635,252,o),
(723,252,cs),
(811,252,o),
(856,238,o),
(856,195,cs),
(856,166,o),
(847,146,o),
(790,146,cs),
(697,146,o),
(660,234,o),
(660,316,cs),
(660,484,o),
(733,521,o),
(855,521,cs),
(1058,521,o),
(1128,378,o),
(1047,0,c),
(1237,0,l),
(1329,481,o),
(1234,716,o),
(856,716,cs),
(587,716,o),
(465,586,o),
(465,316,cs),
(465,195,o),
(534,-16,o),
(775,-16,cs),
(988,-16,o),
(1036,90,o),
(1036,205,cs),
(1036,370,o),
(879,411,o),
(748,411,cs),
(635,411,o),
(551,354,o),
(472,281,c),
(539,164,l)
);
},
{
closed = 1;
nodes = (
(130,264,l),
(130,259,o),
(129,255,o),
(128,250,cs),
(116,180,o),
(73,-16,o),
(280,-16,cs),
(423,-16,o),
(532,192,o),
(657,243,c),
(636,395,l),
(575,370,o),
(493,330,o),
(446,268,cs),
(394,200,o),
(316,196,o),
(329,264,c)
);
}
);
width = 1290;
}
);
unicode = 6954;
}
{
glyphname = "ma-bali";
layers = (
{
anchors = (
{
name = bottom;
pos = (1251,0);
},
{
name = top;
pos = (712,800);
}
);
guides = (
{
angle = 90;
pos = (1251,-111);
}
);
layerId = m01;
shapes = (
{
closed = 1;
nodes = (
(603,175,l),
(526,175,ls),
(489,175,o),
(469,185,o),
(469,225,cs),
(469,272,o),
(489,279,o),
(526,279,cs),
(626,279,l),
(626,426,l),
(532,426,ls),
(489,426,o),
(469,426,o),
(469,468,cs),
(469,510,o),
(489,510,o),
(532,510,cs),
(694,510,l),
(694,700,l),
(686,700,o),
(572,700,o),
(563,700,cs),
(348,700,o),
(276,601,o),
(276,481,cs),
(276,398,o),
(310,350,o),
(378,350,c),
(310,350,o),
(276,286,o),
(276,205,cs),
(276,83,o),
(347,0,o),
(490,0,c),
(603,0,l)
);
},
{
closed = 1;
nodes = (
(603,0,l),
(859,0,l),
(956,123,l),
(761,175,l),
(626,175,l),
(618,175,o),
(610,175,o),
(603,175,c)
);
},
{
closed = 1;
nodes = (
(956,123,l),
(956,461,ls),
(956,508,o),
(967,521,o),
(998,521,cs),
(1099,521,o),
(1076,206,o),
(1020,0,c),
(1210,0,l),
(1296,393,o),
(1262,716,o),
(967,716,cs),
(861,716,o),
(761,681,o),
(761,474,cs),
(761,164,l)
);
},
{
closed = 1;
nodes = (
(525,533,l),
(561,700,l),
(456,700,l),
(276,700,o),
(20,672,o),
(20,441,cs),
(20,342,o),
(97,239,o),
(240,298,c),
(245,342,l),
(120,366,o),
(218,533,o),
(324,533,c)
);
}
);
width = 1271;
}
);
unicode = 6955;
}
{
glyphname = "ya-bali";
kernLeft = ha;
layers = (
{
anchors = (
{
name = bottom;
pos = (1361,0);
},
{
name = top;
pos = (695,800);
}
);
guides = (
{
angle = 90;
pos = (1351,-111);
}
);
layerId = m01;
shapes = (
{
closed = 1;
nodes = (
(1056,296,l),
(1056,461,ls),
(1056,508,o),
(1067,521,o),
(1098,521,cs),
(1199,521,o),
(1176,206,o),
(1120,0,c),
(1320,0,l),
(1406,393,o),
(1372,716,o),
(1077,716,cs),
(971,716,o),
(861,681,o),
(861,474,cs),
(861,233,l)
);
},
{
closed = 1;
nodes = (
(436,292,l),
(451,376,o),
(460,457,o),
(460,529,cs),
(460,634,o),
(386,716,o),
(231,716,cs),
(80,716,o),
(20,608,o),
(20,511,cs),
(20,393,o),
(112,338,o),
(212,411,c),
(216,455,l),
(172,455,o),
(177,520,o),
(220,520,cs),
(285,520,o),
(253,413,o),
(229,292,c)
);
},
{
closed = 1;
nodes = (
(661,583,l),
(549,583,l),
(549,264,ls),
(549,225,o),
(532,189,o),
(490,189,cs),
(464,189,o),
(421,206,o),
(436,292,cs),
(441,321,l),
(235,320,l),
(221,250,ls),
(192,105,o),
(251,-16,o),
(424,-16,cs),
(550,-16,o),
(601,71,o),
(647,115,c),
(661,104,l)
);
},
{
closed = 1;
nodes = (
(630,102,l),
(647,115,l),
(693,71,o),
(743,-16,o),
(867,-16,cs),
(983,-16,o),
(1056,75,o),
(1056,241,c),
(1056,301,l),
(861,301,l),
(861,285,l),
(861,197,o),
(833,189,o),
(799,189,cs),
(748,189,o),
(744,247,o),
(744,297,cs),
(744,583,l),
(630,583,l)
);
}
);
width = 1381;
}
);
unicode = 6956;
}
{
glyphname = "ra-bali";
layers = (
{
anchors = (
{
name = bottom;
pos = (1085,0);
},
{
name = gantungan_cenik;
pos = (624,0);
},
{
name = top;
pos = (607,800);
}
);
guides = (
{
angle = 90;
pos = (1085,-111);
}
);
layerId = m01;
shapes = (
{
closed = 1;
nodes = (
(514,716,o),
(221,716,cs),
(70,716,o),
(10,608,o),
(10,511,cs),
(10,393,o),
(102,338,o),
(202,411,c),
(206,455,l),
(162,455,o),
(167,520,o),
(210,520,cs),
(302,520,o),
(207,146,o),
(130,123,c),
(130,0,l),
(551,0,l),
(643,123,l),
(666,321,o),
(647,520,o),
(796,520,cs),
(956,520,o),
(910,206,o),
(854,0,c),
(1044,0,l),
(1130,393,o),
(1098,716,o),
(794,715,cs),
(647,715,o),
(523,672,o),
(493,472,cs),
(456,224,o),
(452,151,o),
(404,151,cs),
(371,151,l),
(461,318,o)
);
}
);
width = 1105;
}
);
unicode = 6957;
}
{
glyphname = "la-bali";
kernLeft = ha;
layers = (
{
anchors = (
{
name = bottom;
pos = (1705,0);
},
{
name = top;
pos = (948,800);
}
);
guides = (
{
angle = 90;
pos = (1705,-111);
}
);
layerId = m01;
shapes = (
{
closed = 1;
nodes = (
(602,0,l),
(699,123,l),
(699,461,ls),
(699,508,o),
(710,521,o),
(741,521,cs),
(842,521,o),
(840,239,o),
(763,0,c),
(884,0,l),
(981,123,l),
(1048,502,o),
(966,716,o),
(730,716,cs),
(599,716,o),
(504,653,o),
(504,474,cs),
(504,0,l)
);
},
{
closed = 1;
nodes = (
(1410,123,l),
(1410,461,ls),
(1410,508,o),
(1421,521,o),
(1452,521,cs),
(1553,521,o),
(1530,206,o),
(1474,0,c),
(1664,0,l),
(1750,393,o),
(1716,716,o),
(1421,716,cs),
(1315,716,o),
(1215,681,o),
(1215,474,cs),
(1215,104,l)
);
},
{
closed = 1;
nodes = (
(436,292,l),
(451,376,o),
(460,457,o),
(460,529,cs),
(460,634,o),
(386,716,o),
(231,716,cs),
(80,716,o),
(20,608,o),
(20,511,cs),
(20,393,o),
(112,338,o),
(212,411,c),
(216,455,l),
(172,455,o),
(177,520,o),
(220,520,cs),
(285,520,o),
(253,413,o),
(229,292,c)
);
},
{
closed = 1;
nodes = (
(1410,123,l),
(1410,175,l),
(856,175,l),
(856,0,l),
(1313,0,l)
);
},
{
closed = 1;
nodes = (
(229,292,l),
(226,278,o),
(223,264,o),
(221,250,cs),
(209,180,o),
(164,0,o),
(386,0,cs),
(585,0,l),
(585,175,l),
(469,175,ls),
(433,175,o),
(416,186,o),
(423,222,cs),
(436,292,l)
);
}
);
width = 1725;
}
);
unicode = 6958;
}
{
glyphname = "wa-bali";
kernLeft = ha;
layers = (
{
anchors = (
{
name = bottom;
pos = (1238,0);
},
{
name = cecek_bangkiang;
pos = (608,429);
},
{
name = suwet_sa;
pos = (598,297);
},
{
name = top;
pos = (627,800);
}
);
guides = (
{
angle = 90;
pos = (1228,-111);
}
);
layerId = m01;
shapes = (
{
closed = 0;
nodes = (
(448,0,l)
);
},
{
closed = 1;
nodes = (
(436,292,l),
(451,376,o),
(460,457,o),
(460,529,cs),
(460,634,o),
(386,716,o),
(231,716,cs),
(80,716,o),
(20,608,o),
(20,511,cs),
(20,393,o),
(112,338,o),
(212,411,c),
(216,455,l),
(172,455,o),
(177,520,o),
(220,520,cs),
(285,520,o),
(253,413,o),
(229,292,c)
);
},
{
closed = 1;
nodes = (
(869,519,o),
(793,511,o),
(793,526,cs),
(793,537,o),
(822,540,o),
(859,539,cs),
(960,536,o),
(1128,457,o),
(990,0,c),
(1183,0,l),
(1290,455,o),
(1217,716,o),
(869,716,cs),
(755,716,o),
(585,683,o),
(585,461,cs),
(585,418,l),
(800,418,o),
(791,260,o),
(724,116,c),
(710,61,l),
(829,0,l),
(926,123,l),
(973,285,o),
(960,387,o),
(921,444,cs)
);
},
{
closed = 1;
nodes = (
(926,123,l),
(926,165,l),
(569,165,l),
(569,0,l),
(829,0,l)
);
},
{
closed = 1;
nodes = (
(229,292,l),
(226,278,o),
(223,264,o),
(221,250,cs),
(209,180,o),
(164,0,o),
(386,0,cs),
(585,0,l),
(585,165,l),
(469,165,ls),
(433,165,o),
(417,176,o),
(423,212,cs),
(436,292,l)
);
}
);
width = 1248;
}
);
unicode = 6959;
}
{
glyphname = "sa-bali";
layers = (
{
anchors = (
{
name = bottom;
pos = (1219,0);
},
{
name = suwet_sa;
pos = (608,297);
},
{
name = top;
pos = (627,800);
}
);
guides = (
{
angle = 90;
pos = (1199,-111);
}
);
layerId = m01;
shapes = (
{
closed = 1;
nodes = (
(676,169,ls),
(529,171,o),
(474,391,o),
(256,391,cs),
(63,391,o),
(20,283,o),
(20,182,cs),
(20,67,o),
(111,-18,o),
(225,-18,cs),
(441,-18,o),
(473,203,o),
(473,359,cs),
(473,583,o),
(383,716,o),
(236,716,cs),
(104,716,o),
(30,634,o),
(30,528,cs),
(30,435,o),
(135,405,o),
(212,435,c),
(212,504,l),
(201,504,o),
(185,512,o),
(185,528,cs),
(185,543,o),
(199,555,o),
(219,555,cs),
(331,555,o),
(356,144,o),
(237,144,cs),
(210,144,o),
(200,159,o),
(200,190,cs),
(200,223,o),
(222,252,o),
(256,252,cs),
(407,252,o),
(454,0,o),
(680,0,cs),
(739,0,l),
(739,168,l)
);
},
{
closed = 1;
nodes = (
(826,0,l),
(923,123,l),
(923,461,ls),
(923,508,o),
(935,521,o),
(966,521,cs),
(1067,521,o),
(1044,206,o),
(988,0,c),
(1178,0,l),
(1264,393,o),
(1229,716,o),
(934,716,cs),
(828,716,o),
(728,681,o),
(728,474,cs),
(728,0,l)
);
}
);
width = 1239;
}
);
unicode = 6962;
}
{
glyphname = "ha-bali";
layers = (
{
anchors = (
{
name = bottom;
pos = (1551,0);
},
{
name = top;
pos = (762,800);
}
);
guides = (
{
angle = 90;
pos = (1551,-111);
}
);
layerId = m01;
shapes = (
{
pos = (1152,0);
ref = _belakang_ha;
},
{
closed = 1;
nodes = (
(858,123,l),
(858,175,l),
(509,175,l),
(509,0,l),
(761,0,l)
);
},
{
closed = 1;
nodes = (
(436,292,l),
(451,376,o),
(460,457,o),
(460,529,cs),
(460,634,o),
(386,716,o),
(231,716,cs),
(80,716,o),
(20,608,o),
(20,511,cs),
(20,393,o),
(112,338,o),
(212,411,c),
(216,455,l),
(172,455,o),
(177,520,o),
(220,520,cs),
(285,520,o),
(253,413,o),
(229,292,c)
);
},
{
closed = 1;
nodes = (
(858,123,l),
(858,381,ls),
(858,467,o),
(869,521,o),
(935,521,cs),
(1109,521,o),
(1037,130,o),
(1002,0,c),
(1192,0,l),
(1298,521,o),
(1201,716,o),
(949,716,cs),
(758,716,o),
(663,612,o),
(663,394,cs),
(663,123,l)
);
},
{
closed = 1;
nodes = (
(229,292,l),
(226,278,o),
(223,264,o),
(221,250,cs),
(209,180,o),
(164,0,o),
(386,0,cs),
(585,0,l),
(585,175,l),
(469,175,ls),
(433,175,o),
(416,186,o),
(423,222,cs),
(436,292,l)
);
}
);
width = 1571;
}
);
unicode = 6963;
}
{
glyphname = "rerekan-bali";
layers = (
{
anchors = (
{
name = _top;
pos = (345,800);
},
{
name = right;
pos = (639,813);
}
);
layerId = m01;
shapes = (
{
closed = 1;
nodes = (
(413,1058,o),
(469,1114,o),
(470,1182,cs),
(469,1250,o),
(413,1307,o),
(346,1307,cs),
(276,1307,o),
(220,1250,o),
(221,1182,cs),
(220,1114,o),
(276,1058,o),
(346,1058,cs)
);
},
{
closed = 1;
nodes = (
(213,757,o),
(269,813,o),
(269,881,cs),
(269,949,o),
(213,1006,o),
(146,1006,cs),
(76,1006,o),
(20,949,o),
(20,881,cs),
(20,813,o),
(76,757,o),
(146,757,cs)
);
},
{
closed = 1;
nodes = (
(613,757,o),
(669,813,o),
(669,881,cs),
(669,949,o),
(613,1006,o),
(546,1006,cs),
(476,1006,o),
(420,949,o),
(420,881,cs),
(420,813,o),
(476,757,o),
(546,757,cs)
);
}
);
width = 689;
}
);
unicode = 6964;
}
{
category = Mark;
glyphname = "ulu-bali";
layers = (
{
anchors = (
{
name = _top;
pos = (538,800);
},
{
name = dot_ulu_bali;
pos = (535,964);
},
{
name = right;
pos = (904,800);
}
);
layerId = m01;
shapes = (
{
closed = 1;
nodes = (
(773,742,l),
(957,960,o),
(899,1294,o),
(555,1294,cs),
(377,1294,o),
(230,1226,o),
(206,1111,c),
(284,945,l),
(273,932,l),
(120,1091,l),
(20,894,l),
(342,751,l),
(447,827,l),
(332,950,o),
(377,1119,o),
(538,1119,cs),
(672,1119,o),
(750,1003,o),
(627,826,c)
);
}
);
width = 896;
}
);
subCategory = Nonspacing;
unicode = 6966;
}
{
glyphname = "suku-bali";
layers = (
{
anchors = (
{
name = _Gantungan_Lurus;
pos = (497,0);
},
{
name = _bottom;
pos = (497,0);
}
);
layerId = m01;
shapes = (
{
closed = 1;
nodes = (
(399,10,l),
(399,-101,ls),
(399,-206,o),
(419,-926,o),
(302,-926,cs),
(255,-926,o),
(239,-900,o),
(240,-858,cs),
(244,-756,o),
(330,-515,o),
(330,-180,cs),
(330,-165,l),
(148,-165,l),
(148,-180,ls),
(148,-516,o),
(20,-795,o),
(20,-926,cs),
(20,-1038,o),
(122,-1123,o),
(284,-1123,cs),
(575,-1123,o),
(594,-949,o),
(594,-101,cs),
(594,10,l)
);
}
);
width = 614;
}
);
unicode = 6968;
}
{
glyphname = "sukuIlut-bali";
layers = (
{
anchors = (
{
name = _Gantungan_Lurus;
pos = (197,0);
},
{
name = _bottom;
pos = (197,0);
}
);
layerId = m01;
shapes = (
{
closed = 1;
nodes = (
(111,-1123,l),
(282,-1053,o),
(377,-815,o),
(377,-686,cs),
(377,-485,o),
(263,-432,o),
(244,-320,cs),
(230,-236,o),
(294,-124,o),
(294,-13,cs),
(294,14,l),
(99,14,l),
(99,-13,ls),
(99,-121,o),
(33,-189,o),
(47,-335,cs),
(65,-518,o),
(184,-552,o),
(184,-689,cs),
(184,-787,o),
(109,-918,o),
(20,-964,c)
);
}
);
width = 397;
}
);
unicode = 6969;
}
{
glyphname = "taling-bali";
layers = (
{
anchors = (
{
name = top;
pos = (493,800);
}
);
layerId = m01;
shapes = (
{
closed = 1;
nodes = (
(159,-292,o),
(469,-1107,c),
(636,-1023,l),
(418,-577,o),
(638,69,o),
(699,403,cs),
(737,608,o),
(626,716,o),
(480,716,cs),
(320,716,o),
(233,608,o),
(233,531,cs),
(233,467,o),
(261,440,o),
(253,440,cs),
(210,440,o),
(181,567,o),
(181,665,c),
(20,665,l),
(20,400,o),
(159,285,o),
(397,285,c),
(439,455,l),
(392,476,o),
(400,520,o),
(443,520,cs),
(699,520,o)
);
}
);
width = 727;
}
);
unicode = 6974;
}
{
glyphname = "pepet-bali";
layers = (
{
anchors = (
{
name = _top;
pos = (538,800);
},
{
name = right;
pos = (1055,800);
}
);
layerId = m01;
shapes = (
{
closed = 1;
nodes = (
(281,759,l),
(394,759,l),
(394,868,o),
(393,965,o),
(434,1032,cs),
(502,1142,o),
(807,1203,o),
(807,1096,c),
(462,979,l),
(462,855,l),
(985,963,l),
(989,1119,ls),
(994,1300,o),
(810,1306,o),
(738,1304,cs),
(543,1298,o),
(354,1221,o),
(252,1138,c),
(257,877,l)
);
},
{
closed = 1;
nodes = (
(255,956,l),
(259,936,o),
(259,905,o),
(254,902,cs),
(238,892,o),
(205,989,o),
(182,1053,c),
(20,976,l),
(184,759,l),
(314,759,l)
);
}
);
width = 1009;
}
);
unicode = 6978;
}
{
category = Mark;
glyphname = "adegadeg-bali";
layers = (
{
layerId = m01;
shapes = (
{
closed = 1;
nodes = (
(-197,881,l),
(-265,992,o),
(-144,1096,o),
(-41,1096,cs),
(106,1096,o),
(164,999,o),
(164,772,cs),
(164,359,o),
(-158,-284,o),
(112,-1121,c),
(292,-1049,l),
(25,-222,o),
(359,228,o),
(359,772,cs),
(359,1117,o),
(227,1291,o),
(-41,1291,cs),
(-380,1291,o),
(-504,934,o),
(-363,779,c)
);
}
);
width = 379;
}
);
subCategory = Spacing;
unicode = 6980;
}
{
glyphname = "kafSasak-bali";
layers = (
{
anchors = (
{
name = bottom;
pos = (1821,0);
},
{
name = top;
pos = (778,800);
}
);
layerId = m01;
shapes = (
{
closed = 1;
nodes = (
(608,411,o),
(354,411,o),
(256,411,cs),
(63,411,o),
(20,283,o),
(20,182,cs),
(20,67,o),
(111,-16,o),
(225,-16,cs),
(441,-16,o),
(473,203,o),
(473,359,cs),
(473,583,o),
(383,716,o),
(236,716,cs),
(104,716,o),
(30,634,o),
(30,528,cs),
(30,435,o),
(135,405,o),
(212,435,c),
(212,504,l),
(201,504,o),
(185,512,o),
(185,528,cs),
(185,543,o),
(199,555,o),
(219,555,cs),
(331,555,o),
(356,144,o),
(237,144,cs),
(210,144,o),
(200,159,o),
(200,190,cs),
(200,223,o),
(222,252,o),
(256,252,cs),
(354,252,o),
(608,252,o),
(629,252,c),
(629,411,l)
);
},
{
closed = 1;
nodes = (
(664,252,o),
(877,252,o),
(965,252,cs),
(1053,252,o),
(1098,238,o),
(1098,195,cs),
(1098,166,o),
(1089,146,o),
(1032,146,cs),
(939,146,o),
(902,234,o),
(902,316,cs),
(902,484,o),
(975,521,o),
(1097,521,cs),
(1300,521,o),
(1370,378,o),
(1289,0,c),
(1479,0,l),
(1571,481,o),
(1476,716,o),
(1098,716,cs),
(829,716,o),
(707,586,o),
(707,316,cs),
(707,195,o),
(776,-16,o),
(1017,-16,cs),
(1230,-16,o),
(1278,90,o),
(1278,205,cs),
(1278,370,o),
(1121,411,o),
(990,411,cs),
(877,411,o),
(664,411,o),
(551,411,c),
(551,252,l)
);
},
{
pos = (1422,0);
ref = _belakang_ha;
},
{
pos = (491,0);
ref = _suwet_ka;
}
);
width = 1841;
}
);
unicode = 6981;
}
{
glyphname = "asyuraSasak-bali";
layers = (
{
anchors = (
{
name = bottom;
pos = (2013,0);
},
{
name = top;
pos = (1109,800);
}
);
layerId = m01;
shapes = (
{
closed = 1;
nodes = (
(1718,296,l),
(1718,461,ls),
(1718,508,o),
(1729,521,o),
(1760,521,cs),
(1861,521,o),
(1838,206,o),
(1782,0,c),
(1972,0,l),
(2058,393,o),
(2024,716,o),
(1729,716,cs),
(1623,716,o),
(1523,681,o),
(1523,474,cs),
(1523,233,l)
);
},
{
closed = 1;
nodes = (
(887,518,o),
(894,496,o),
(894,461,cs),
(894,297,l),
(1089,297,l),
(1089,467,ls),
(1089,608,o),
(1009,716,o),
(853,716,cs),
(693,716,o),
(618,608,o),
(618,467,cs),
(618,172,l),
(716,0,l),
(813,123,l),
(813,461,ls),
(813,496,o),
(819,518,o),
(853,518,cs)
);
},
{
closed = 1;
nodes = (
(630,171,ls),
(529,175,o),
(474,391,o),
(256,391,cs),
(63,391,o),
(20,283,o),
(20,182,cs),
(20,67,o),
(111,-16,o),
(225,-16,cs),
(441,-16,o),
(473,203,o),
(473,359,cs),
(473,583,o),
(383,716,o),
(236,716,cs),
(104,716,o),
(30,634,o),
(30,528,cs),
(30,435,o),
(135,405,o),
(212,435,c),
(212,504,l),
(201,504,o),
(185,512,o),
(185,528,cs),
(185,543,o),
(199,555,o),
(219,555,cs),
(331,555,o),
(356,144,o),
(237,144,cs),
(210,144,o),
(200,159,o),
(200,190,cs),
(200,223,o),
(222,252,o),
(256,252,cs),
(407,252,o),
(454,0,o),
(634,0,cs),
(716,0,l),
(716,168,l)
);
},
{
closed = 1;
nodes = (
(1297,127,l),
(1309,115,l),
(1355,71,o),
(1405,-16,o),
(1529,-16,cs),
(1645,-16,o),
(1718,75,o),
(1718,241,c),
(1718,301,l),
(1523,301,l),
(1523,285,l),
(1523,197,o),
(1495,189,o),
(1461,189,cs),
(1410,189,o),
(1406,247,o),
(1406,297,cs),
(1406,583,l),
(1292,583,l)
);
},
{
closed = 1;
nodes = (
(1206,583,l),
(1206,297,ls),
(1206,247,o),
(1202,189,o),
(1151,189,cs),
(1117,189,o),
(1089,197,o),
(1089,285,c),
(1089,301,l),
(894,301,l),
(894,241,l),
(894,75,o),
(967,-16,o),
(1083,-16,cs),
(1207,-16,o),
(1257,71,o),
(1303,115,c),
(1314,126,l),
(1315,583,l)
);
}
);
width = 2033;
}
);
unicode = 6987;
}
{
glyphname = "zero-bali";
layers = (
{
layerId = m01;
shapes = (
{
closed = 1;
nodes = (
(586,-16,o),
(751,150,o),
(752,351,cs),
(753,552,o),
(587,716,o),
(387,716,cs),
(187,716,o),
(21,552,o),
(20,351,cs),
(19,150,o),
(185,-16,o),
(385,-16,cs)
);
},
{
closed = 1;
nodes = (
(322,177,o),
(228,256,o),
(212,351,cs),
(195,446,o),
(261,525,o),
(355,525,cs),
(449,525,o),
(543,446,o),
(560,351,cs),
(576,256,o),
(510,177,o),
(416,177,cs)
);
}
);
width = 772;
}
);
unicode = 6992;
}
{
glyphname = "one-bali";
layers = (
{
layerId = m01;
shapes = (
{
ref = "nga-bali";
},
{
closed = 1;
nodes = (
(1541,389,l),
(1541,365,ls),
(1541,228,o),
(1498,175,o),
(1350,175,cs),
(1250,175,l),
(1250,0,l),
(1425,0,ls),
(1616,0,o),
(1736,143,o),
(1736,362,cs),
(1736,389,l)
);
},
{
closed = 1;
nodes = (
(1790,631,o),
(1673,569,o),
(1586,569,cs),
(1508,569,o),
(1470,578,o),
(1470,631,cs),
(1470,660,o),
(1486,670,o),
(1508,670,cs),
(1526,670,o),
(1541,657,o),
(1541,631,cs),
(1541,373,l),
(1736,373,l),
(1736,598,ls),
(1736,808,o),
(1619,865,o),
(1508,865,cs),
(1383,865,o),
(1301,785,o),
(1301,665,cs),
(1301,513,o),
(1408,428,o),
(1586,428,cs),
(1719,428,o),
(1905,490,o),
(1943,734,c),
(1803,759,l)
);
}
);
width = 1983;
}
);
unicode = 6993;
}
{
glyphname = "four-bali";
layers = (
{
layerId = m01;
shapes = (
{
closed = 1;
nodes = (
(122,807,l),
(46,696,o),
(20,561,o),
(20,462,cs),
(20,78,o),
(246,-16,o),
(465,-16,cs),
(659,-16,o),
(816,52,o),
(816,232,cs),
(816,299,o),
(771,351,o),
(704,371,c),
(751,408,o),
(778,462,o),
(778,530,cs),
(778,650,o),
(674,715,o),
(549,715,cs),
(420,715,o),
(350,627,o),
(328,588,c),
(402,505,l),
(420,525,o),
(444,564,o),
(496,564,cs),
(539,564,o),
(564,539,o),
(564,505,cs),
(564,458,o),
(512,444,o),
(457,444,cs),
(434,444,l),
(434,338,l),
(488,338,ls),
(530,338,o),
(621,321,o),
(621,249,cs),
(621,193,o),
(569,168,o),
(465,168,cs),
(356,168,o),
(202,221,o),
(202,462,cs),
(202,558,o),
(225,636,o),
(264,694,c)
);
}
);
width = 836;
}
);
unicode = 6996;
}
{
glyphname = "five-bali";
layers = (
{
layerId = m01;
shapes = (
{
closed = 1;
nodes = (
(250,-16,o),
(424,-16,cs),
(578,-16,o),
(703,38,o),
(703,181,cs),
(703,234,o),
(667,276,o),
(614,292,c),
(651,321,o),
(673,364,o),
(673,418,cs),
(673,513,o),
(590,565,o),
(491,565,cs),
(388,565,o),
(333,495,o),
(315,464,c),
(374,398,l),
(388,414,o),
(407,445,o),
(449,445,cs),
(483,445,o),
(503,425,o),
(503,398,cs),
(503,361,o),
(461,350,o),
(418,350,cs),
(399,350,l),
(399,265,l),
(442,265,ls),
(476,265,o),
(548,252,o),
(548,203,cs),
(548,163,o),
(507,140,o),
(424,140,cs),
(337,140,o),
(215,172,o),
(215,364,cs),
(215,543,o),
(328,635,o),
(484,635,cs),
(755,635,o),
(828,455,o),
(768,59,cs),
(735,-161,o),
(719,-391,o),
(826,-582,c),
(980,-494,l),
(899,-349,o),
(909,-168,o),
(938,13,cs),
(1009,459,o),
(932,800,o),
(483,800,cs),
(133,800,o),
(40,524,o),
(40,364,cs),
(40,59,o)
);
}
);
width = 1000;
}
);
unicode = 6997;
}
{
glyphname = "seven-bali";
layers = (
{
layerId = m01;
shapes = (
{
closed = 1;
nodes = (
(602,0,l),
(699,123,l),
(699,461,ls),
(699,508,o),
(710,521,o),
(741,521,cs),
(842,521,o),
(840,239,o),
(763,0,c),
(884,0,l),
(981,123,l),
(1048,502,o),
(966,716,o),
(730,716,cs),
(599,716,o),
(504,653,o),
(504,474,cs),
(504,0,l)
);
},
{
closed = 1;
nodes = (
(436,292,l),
(451,376,o),
(460,457,o),
(460,529,cs),
(460,634,o),
(386,716,o),
(231,716,cs),
(80,716,o),
(20,608,o),
(20,511,cs),
(20,393,o),
(112,338,o),
(212,411,c),
(216,455,l),
(172,455,o),
(177,520,o),
(220,520,cs),
(285,520,o),
(253,413,o),
(229,292,c)
);
},
{
closed = 1;
nodes = (
(229,292,l),
(226,278,o),
(223,264,o),
(221,250,cs),
(209,180,o),
(164,0,o),
(386,0,cs),
(585,0,l),
(585,175,l),
(469,175,ls),
(433,175,o),
(416,186,o),
(423,222,cs),
(436,292,l)
);
},
{
closed = 1;
nodes = (
(1335,389,l),
(1335,365,ls),
(1335,228,o),
(1292,175,o),
(1144,175,cs),
(844,175,l),
(844,0,l),
(1249,0,ls),
(1410,0,o),
(1530,143,o),
(1530,362,cs),
(1530,389,l)
);
},
{
closed = 1;
nodes = (
(1584,631,o),
(1467,569,o),
(1380,569,cs),
(1302,569,o),
(1264,578,o),
(1264,631,cs),
(1264,660,o),
(1280,670,o),
(1302,670,cs),
(1320,670,o),
(1335,657,o),
(1335,631,cs),
(1335,373,l),
(1530,373,l),
(1530,598,ls),
(1530,808,o),
(1413,865,o),
(1302,865,cs),
(1177,865,o),
(1095,785,o),
(1095,665,cs),
(1095,513,o),
(1202,428,o),
(1380,428,cs),
(1513,428,o),
(1699,490,o),
(1737,734,c),
(1597,759,l)
);
}
);
width = 1757;
}
);
unicode = 6999;
}
{
glyphname = "nine-bali";
kernLeft = ha;
layers = (
{
anchors = (
{
name = bottom;
pos = (1351,0);
},
{
name = top;
pos = (695,800);
}
);
layerId = m01;
shapes = (
{
closed = 1;
nodes = (
(436,292,l),
(451,376,o),
(460,457,o),
(460,529,cs),
(460,634,o),
(386,716,o),
(231,716,cs),
(80,716,o),
(20,608,o),
(20,511,cs),
(20,393,o),
(112,338,o),
(212,411,c),
(216,455,l),
(172,455,o),
(177,520,o),
(220,520,cs),
(285,520,o),
(253,413,o),
(229,292,c)
);
},
{
closed = 1;
nodes = (
(1110,631,o),
(993,569,o),
(906,569,cs),
(828,569,o),
(790,578,o),
(790,631,cs),
(790,660,o),
(806,670,o),
(828,670,cs),
(846,670,o),
(861,657,o),
(861,631,cs),
(861,323,l),
(1056,323,l),
(1056,598,ls),
(1056,808,o),
(939,865,o),
(828,865,cs),
(703,865,o),
(621,785,o),
(621,665,cs),
(621,513,o),
(728,428,o),
(906,428,cs),
(1039,428,o),
(1225,490,o),
(1263,734,c),
(1123,759,l)
);
},
{
closed = 1;
nodes = (
(661,423,l),
(549,423,l),
(549,264,ls),
(549,225,o),
(532,189,o),
(490,189,cs),
(464,189,o),
(421,206,o),
(436,292,cs),
(441,321,l),
(235,320,l),
(221,250,ls),
(192,105,o),
(251,-16,o),
(424,-16,cs),
(550,-16,o),
(601,71,o),
(647,115,c),
(661,104,l)
);
},
{
closed = 1;
nodes = (
(630,102,l),
(647,115,l),
(693,71,o),
(743,-16,o),
(867,-16,cs),
(983,-16,o),
(1056,75,o),
(1056,241,c),
(1056,341,l),
(861,341,l),
(861,285,l),
(861,197,o),
(833,189,o),
(799,189,cs),
(748,189,o),
(744,247,o),
(744,297,cs),
(744,423,l),
(630,423,l)
);
}
);
width = 1283;
}
);
unicode = 7001;
}
{
glyphname = "panti-bali";
layers = (
{
layerId = m01;
shapes = (
{
closed = 1;
nodes = (
(1379,258,l),
(1379,491,ls),
(1379,634,o),
(1283,716,o),
(1132,716,cs),
(971,716,o),
(876,634,o),
(876,491,cs),
(876,241,ls),
(876,199,o),
(853,179,o),
(815,179,cs),
(780,179,o),
(755,199,o),
(755,241,cs),
(755,491,ls),
(755,634,o),
(659,716,o),
(502,716,cs),
(347,716,o),
(252,633,o),
(252,491,cs),
(252,215,ls),
(252,191,o),
(236,180,o),
(220,180,cs),
(177,180,o),
(172,245,o),
(216,245,c),
(212,289,l),
(126,339,o),
(20,278,o),
(20,169,cs),
(20,78,o),
(79,0,o),
(252,0,cs),
(349,0,l),
(446,123,l),
(446,448,ls),
(446,486,o),
(460,521,o),
(505,521,cs),
(547,521,o),
(560,486,o),
(560,448,cs),
(561,248,ls),
(562,120,o),
(613,0,o),
(787,0,cs),
(974,0,l),
(1071,123,l),
(1071,448,ls),
(1071,486,o),
(1084,521,o),
(1132,521,cs),
(1171,521,o),
(1184,486,o),
(1184,448,cs),
(1184,258,l)
);
},
{
closed = 1;
nodes = (
(1184,258,l),
(1184,25,ls),
(1184,-134,o),
(1283,-216,o),
(1420,-216,cs),
(1560,-216,o),
(1620,-108,o),
(1620,-11,cs),
(1620,107,o),
(1528,162,o),
(1428,89,c),
(1424,45,l),
(1468,45,o),
(1463,-20,o),
(1420,-20,cs),
(1386,-20,o),
(1379,9,o),
(1379,54,cs),
(1379,258,l)
);
}
);
width = 1429;
}
);
unicode = 7002;
}
{
glyphname = "pamada-bali";
kernLeft = ha;
layers = (
{
layerId = m01;
shapes = (
{
ref = "nga-bali";
},
{
closed = 1;
nodes = (
(566,-209,l),
(252,-344,o),
(138,-547,o),
(136,-755,cs),
(134,-998,o),
(323,-1123,o),
(532,-1123,cs),
(723,-1123,o),
(796,-1079,o),
(837,-992,c),
(884,-1077,o),
(994,-1123,o),
(1156,-1123,cs),
(1462,-1123,o),
(1591,-931,o),
(1591,-621,cs),
(1591,393,l),
(1396,393,l),
(1396,-612,ls),
(1396,-861,o),
(1308,-928,o),
(1142,-928,cs),
(994,-928,o),
(957,-862,o),
(946,-791,c),
(727,-791,l),
(719,-860,o),
(688,-928,o),
(536,-928,cs),
(411,-928,o),
(330,-887,o),
(331,-755,cs),
(332,-628,o),
(398,-467,o),
(676,-349,c)
);
},
{
closed = 1;
nodes = (
(1591,321,l),
(1591,417,ls),
(1591,469,o),
(1595,521,o),
(1646,521,cs),
(1680,521,o),
(1705,507,o),
(1705,417,cs),
(1705,-1107,l),
(1900,-1107,l),
(1900,417,ls),
(1900,650,o),
(1790,716,o),
(1646,716,cs),
(1500,716,o),
(1396,650,o),
(1396,417,cs),
(1396,321,l)
);
},
{
closed = 1;
nodes = (
(2101,-435,o),
(1800,-230,o),
(1542,-230,cs),
(1389,-230,o),
(1159,-281,o),
(1159,-521,cs),
(1159,-558,o),
(1145,-565,o),
(1119,-565,cs),
(1066,-565,o),
(1048,-464,o),
(1048,-398,c),
(884,-398,l),
(884,-585,o),
(965,-716,o),
(1121,-716,cs),
(1254,-716,o),
(1321,-662,o),
(1321,-562,cs),
(1321,-400,o),
(1444,-398,o),
(1542,-398,cs),
(1702,-398,o),
(1976,-548,o),
(2082,-819,c),
(2237,-755,l)
);
}
);
width = 1920;
}
);
unicode = 7003;
}
{
glyphname = "carikPamungkah-bali";
layers = (
{
layerId = m01;
shapes = (
{
closed = 1;
nodes = (
(401,639,l),
(394,578,o),
(361,517,o),
(260,517,cs),
(181,517,o),
(170,568,o),
(170,588,cs),
(170,609,o),
(181,621,o),
(196,621,cs),
(209,621,o),
(226,609,o),
(216,559,c),
(297,559,l),
(334,630,o),
(288,715,o),
(181,715,cs),
(41,715,o),
(20,602,o),
(20,549,cs),
(20,467,o),
(96,362,o),
(260,362,cs),
(434,362,o),
(526,448,o),
(553,609,c)
);
},
{
closed = 1;
nodes = (
(401,261,l),
(394,200,o),
(361,139,o),
(260,139,cs),
(181,139,o),
(170,190,o),
(170,210,cs),
(170,231,o),
(181,243,o),
(196,243,cs),
(209,243,o),
(226,231,o),
(216,181,c),
(297,181,l),
(334,252,o),
(288,337,o),
(181,337,cs),
(41,337,o),
(20,224,o),
(20,171,cs),
(20,89,o),
(96,-16,o),
(260,-16,cs),
(434,-16,o),
(526,70,o),
(553,231,c)
);
}
);
width = 573;
}
);
unicode = 7005;
}
{
glyphname = "carikSiki-bali";
layers = (
{
layerId = m01;
shapes = (
{
closed = 1;
nodes = (
(438,-278,l),
(369,604,ls),
(360,722,o),
(260,724,o),
(191,696,cs),
(20,627,l),
(54,448,l),
(132,485,ls),
(153,495,o),
(169,487,o),
(172,461,cs),
(263,-278,l)
);
}
);
width = 458;
}
);
unicode = 7006;
}
{
glyphname = "pameneng-bali";
layers = (
{
layerId = m01;
shapes = (
{
closed = 1;
nodes = (
(20,69,l),
(74,17,o),
(178,-16,o),
(302,-16,cs),
(439,-16,o),
(597,52,o),
(597,232,cs),
(597,300,o),
(552,352,o),
(485,373,c),
(531,409,o),
(559,463,o),
(559,532,cs),
(559,652,o),
(455,716,o),
(330,716,cs),
(200,716,o),
(130,629,o),
(108,590,c),
(182,507,l),
(200,526,o),
(264,566,o),
(316,566,cs),
(360,566,o),
(385,540,o),
(385,507,cs),
(385,460,o),
(332,446,o),
(277,446,cs),
(253,446,l),
(253,339,l),
(308,339,ls),
(351,339,o),
(402,311,o),
(402,244,cs),
(402,164,o),
(350,138,o),
(276,138,cs),
(219,138,o),
(137,163,o),
(97,207,c)
);
}
);
width = 617;
}
);
unicode = 7008;
}
{
glyphname = "dung-bali";
layers = (
{
layerId = m01;
shapes = (
{
closed = 1;
nodes = (
(399,665,l),
(399,169,ls),
(399,64,o),
(419,-656,o),
(302,-656,cs),
(255,-656,o),
(239,-630,o),
(240,-588,cs),
(244,-486,o),
(330,-245,o),
(330,90,cs),
(330,105,l),
(148,105,l),
(148,90,ls),
(148,-246,o),
(20,-525,o),
(20,-656,cs),
(20,-768,o),
(122,-853,o),
(284,-853,cs),
(575,-853,o),
(594,-679,o),
(594,169,cs),
(594,665,l)
);
}
);
width = 614;
}
);
unicode = 7011;
}
{
glyphname = "daing-bali";
kernLeft = ha;
layers = (
{
anchors = (
{
name = top;
pos = (996,800);
}
);
layerId = m01;
shapes = (
{
closed = 1;
nodes = (
(648,521,o),
(782,521,cs),
(816,521,o),
(846,426,o),
(846,389,c),
(996,389,l),
(996,419,ls),
(996,469,o),
(1024,521,o),
(1074,521,cs),
(1140,521,o),
(1145,394,o),
(1145,346,cs),
(1145,198,o),
(1078,85,o),
(964,-25,cs),
(918,-69,o),
(865,-113,o),
(805,-158,cs),
(392,-468,o),
(143,-631,o),
(364,-1107,c),
(637,-1107,l),
(734,-984,l),
(673,-770,o),
(792,-673,o),
(907,-673,cs),
(1145,-673,o),
(1227,-1107,o),
(1427,-1107,cs),
(1509,-1107,l),
(1606,-984,l),
(1606,417,ls),
(1606,469,o),
(1610,521,o),
(1661,521,cs),
(1695,521,o),
(1720,507,o),
(1720,417,cs),
(1720,-1107,l),
(1915,-1107,l),
(1915,417,ls),
(1915,650,o),
(1805,716,o),
(1661,716,cs),
(1515,716,o),
(1411,650,o),
(1411,417,cs),
(1411,-838,l),
(1395,-838,l),
(1323,-788,o),
(1205,-478,o),
(921,-478,cs),
(652,-478,o),
(489,-733,o),
(529,-910,c),
(495,-910,l),
(413,-614,o),
(695,-510,o),
(921,-315,cs),
(997,-249,o),
(1073,-186,o),
(1139,-115,cs),
(1255,8,o),
(1340,152,o),
(1340,364,cs),
(1340,500,o),
(1312,716,o),
(1089,716,cs),
(999,716,o),
(930,645,o),
(917,584,cs),
(917,583,ls),
(907,627,o),
(848,716,o),
(757,716,cs),
(495,716,o),
(469,400,o),
(501,175,c),
(469,175,ls),
(433,175,o),
(416,186,o),
(423,222,cs),
(436,292,ls),
(451,376,o),
(460,457,o),
(460,529,cs),
(460,634,o),
(386,716,o),
(231,716,cs),
(80,716,o),
(20,608,o),
(20,511,cs),
(20,393,o),
(112,338,o),
(212,411,c),
(216,455,l),
(172,455,o),
(177,520,o),
(220,520,cs),
(285,520,o),
(253,413,o),
(229,292,cs),
(226,278,o),
(223,264,o),
(221,250,cs),
(209,180,o),
(164,0,o),
(386,0,cs),
(605,0,l),
(702,123,l),
(685,215,o)
);
}
);
width = 1935;
}
);
unicode = 7017;
}
{
glyphname = "tegeh-bali";
layers = (
{
anchors = (
{
name = _top;
pos = (321,800);
}
);
layerId = m01;
shapes = (
{
closed = 1;
nodes = (
(20,796,o),
(266,703,o),
(434,784,c),
(434,923,l),
(331,882,o),
(195,912,o),
(195,1035,cs),
(195,1106,o),
(238,1142,o),
(285,1142,cs),
(321,1142,o),
(337,1122,o),
(353,1076,c),
(462,1132,l),
(453,1231,o),
(364,1293,o),
(278,1293,cs),
(96,1293,o),
(20,1161,o),
(20,1020,cs)
);
}
);
width = 482;
}
);
unicode = 7019;
}
{
glyphname = "kempli-bali";
layers = (
{
anchors = (
{
name = _top;
pos = (321,800);
}
);
layerId = m01;
shapes = (
{
closed = 1;
nodes = (
(20,948,l),
(192,889,o),
(466,891,o),
(622,973,c),
(585,1068,l),
(459,1007,o),
(213,1016,o),
(71,1071,c)
);
}
);
width = 642;
}
);
unicode = 7022;
}
{
glyphname = "jegogan-bali";
layers = (
{
anchors = (
{
name = _top;
pos = (393,800);
}
);
layerId = m01;
shapes = (
{
closed = 1;
nodes = (
(332,1132,o),
(182,858,o),
(20,764,c),
(119,684,l),
(324,794,o),
(473,1077,o),
(506,1261,c),
(332,1270,l)
);
},
{
closed = 1;
nodes = (
(591,839,o),
(506,1000,o),
(436,1169,c),
(313,1093,l),
(393,900,o),
(499,733,o),
(673,673,c),
(702,800,l)
);
}
);
width = 722;
}
);
unicode = 7023;
}
{
glyphname = "kempliJegogan-bali";
layers = (
{
anchors = (
{
name = _top;
pos = (321,800);
}
);
layerId = m01;
shapes = (
{
ref = "kempli-bali";
},
{
closed = 1;
nodes = (
(167,722,o),
(262,791,o),
(321,873,c),
(379,792,o),
(474,722,o),
(597,674,c),
(614,814,l),
(496,860,o),
(424,925,o),
(397,988,c),
(244,988,l),
(217,925,o),
(145,860,o),
(27,814,c),
(44,674,l)
);
}
);
width = 642;
}
);
unicode = 7025;
}
{
glyphname = "bende-bali";
layers = (
{
layerId = m01;
shapes = (
{
closed = 1;
nodes = (
(532,1208,o),
(399,1015,o),
(399,853,c),
(291,915,o),
(214,1097,o),
(194,1175,c),
(20,1131,l),
(71,931,o),
(239,727,o),
(472,679,c),
(509,888,o),
(605,1040,o),
(764,1149,c),
(662,1297,l)
);
}
);
width = 784;
}
);
unicode = 7026;
}
{
glyphname = "gong-bali";
layers = (
{
anchors = (
{
name = _top;
pos = (333,800);
}
);
layerId = m01;
shapes = (
{
closed = 1;
nodes = (
(500,716,o),
(639,855,o),
(639,1026,cs),
(639,1196,o),
(500,1335,o),
(330,1335,cs),
(159,1335,o),
(20,1196,o),
(20,1026,cs),
(20,855,o),
(159,716,o),
(330,716,cs)
);
},
{
closed = 1;
nodes = (
(234,851,o),
(155,930,o),
(155,1026,cs),
(155,1121,o),
(234,1200,o),
(330,1200,cs),
(425,1200,o),
(504,1121,o),
(504,1026,cs),
(504,930,o),
(425,851,o),
(330,851,cs)
);
},
{
closed = 1;
nodes = (
(274,927,o),
(231,970,o),
(231,1026,cs),
(231,1081,o),
(274,1124,o),
(330,1124,cs),
(385,1124,o),
(428,1081,o),
(428,1026,cs),
(428,970,o),
(385,927,o),
(330,927,cs)
);
}
);
width = 659;
}
);
unicode = 7027;
}
{
glyphname = "rightHandOpenDug-bali";
layers = (
{
layerId = m01;
shapes = (
{
closed = 1;
nodes = (
(72,0,l),
(272,0,l),
(394,546,ls),
(396,557,o),
(402,560,o),
(407,560,cs),
(412,560,o),
(418,557,o),
(420,546,cs),
(542,0,l),
(742,0,l),
(590,700,l),
(224,700,l)
);
}
);
width = 832;
}
);
unicode = 7028;
}
{
glyphname = "leftHandOpenPang-bali";
layers = (
{
layerId = m01;
shapes = (
{
closed = 1;
nodes = (
(658,314,l),
(658,500,l),
(20,500,l),
(20,314,l)
);
}
);
width = 678;
}
);
unicode = 7032;
}
{
glyphname = "leftHandOpenPung-bali";
layers = (
{
layerId = m01;
shapes = (
{
closed = 1;
nodes = (
(715,-2,l),
(715,192,l),
(356,193,ls),
(341,193,o),
(339,196,o),
(339,201,cs),
(339,209,o),
(350,218,o),
(353,221,cs),
(681,583,l),
(536,713,l),
(29,157,l),
(118,-2,l)
);
}
);
width = 735;
}
);
unicode = 7033;
}
{
glyphname = "leftHandOpenPing-bali";
layers = (
{
layerId = m01;
shapes = (
{
closed = 1;
nodes = (
(204,295,o),
(258,348,o),
(258,414,cs),
(258,479,o),
(204,533,o),
(139,533,cs),
(73,533,o),
(20,479,o),
(20,414,cs),
(20,348,o),
(73,295,o),
(139,295,cs)
);
}
);
width = 278;
}
);
unicode = 7036;
}
{
glyphname = emdash;
layers = (
{
layerId = m01;
shapes = (
{
closed = 1;
nodes = (
(20,216,l),
(570,216,l),
(570,371,l),
(20,371,l)
);
}
);
width = 590;
}
);
unicode = 8212;
}
{
glyphname = perthousand;
layers = (
{
layerId = m01;
shapes = (
{
ref = percent;
},
{
closed = 1;
nodes = (
(1270,111,o),
(1246,149,o),
(1246,206,cs),
(1246,264,o),
(1270,301,o),
(1313,301,cs),
(1355,301,o),
(1380,264,o),
(1380,206,cs),
(1380,149,o),
(1355,111,o),
(1313,111,cs)
);
},
{
closed = 1;
nodes = (
(1471,-16,o),
(1525,84,o),
(1525,206,cs),
(1525,329,o),
(1472,429,o),
(1313,429,cs),
(1162,429,o),
(1101,329,o),
(1101,206,cs),
(1101,84,o),
(1160,-16,o),
(1313,-16,cs)
);
}
);
width = 1545;
}
);
metricLeft = percent;
metricRight = percent;
unicode = 8240;
}
{
glyphname = guilsinglleft;
kernLeft = guilsinglleft;
kernRight = guilsinglleft;
layers = (
{
layerId = m01;
shapes = (
{
closed = 1;
nodes = (
(40,287,l),
(534,-48,l),
(534,195,l),
(315,346,l),
(534,497,l),
(534,740,l),
(40,405,l)
);
}
);
width = 594;
}
);
unicode = 8249;
}
{
glyphname = won;
layers = (
{
layerId = m01;
shapes = (
{
pos = (100,0);
ref = W;
},
{
closed = 1;
nodes = (
(312,419,l),
(40,419,l),
(40,254,l),
(312,254,l)
);
},
{
closed = 1;
nodes = (
(1215,419,l),
(943,419,l),
(943,254,l),
(1215,254,l)
);
}
);
width = 1255;
}
);
unicode = 8361;
}
{
glyphname = euro;
layers = (
{
layerId = m01;
shapes = (
{
closed = 1;
nodes = (
(20,485,l),
(20,370,l),
(432,370,l),
(432,485,l)
);
},
{
closed = 1;
nodes = (
(20,315,l),
(20,200,l),
(432,200,l),
(432,315,l)
);
},
{
closed = 1;
nodes = (
(549,238,l),
(537,211,o),
(496,161,o),
(438,161,cs),
(399,161,o),
(287,166,o),
(287,351,cs),
(287,534,o),
(399,539,o),
(438,539,cs),
(496,539,o),
(533,500,o),
(550,461,c),
(673,547,l),
(653,646,o),
(558,716,o),
(424,716,cs),
(271,716,o),
(103,612,o),
(102,351,cs),
(102,88,o),
(271,-16,o),
(424,-16,cs),
(569,-16,o),
(649,77,o),
(676,170,c)
);
}
);
width = 696;
}
);
unicode = 8364;
}
{
glyphname = partialdiff;
layers = (
{
layerId = m01;
shapes = (
{
closed = 1;
nodes = (
(160,591,l),
(253,569,o),
(367,459,o),
(367,344,cs),
(367,262,o),
(346,146,o),
(252,146,cs),
(211,146,o),
(190,176,o),
(190,195,cs),
(190,227,o),
(211,252,o),
(252,252,cs),
(311,252,o),
(331,227,o),
(370,177,c),
(500,225,l),
(417,345,o),
(319,411,o),
(208,411,cs),
(144,411,o),
(10,370,o),
(10,205,cs),
(10,90,o),
(84,-16,o),
(230,-16,cs),
(457,-16,o),
(518,128,o),
(518,316,cs),
(518,591,o),
(346,716,o),
(214,732,c)
);
}
);
width = 528;
}
);
unicode = 8706;
}
{
glyphname = product;
layers = (
{
layerId = m01;
shapes = (
{
closed = 1;
nodes = (
(20,700,l),
(20,555,l),
(140,555,l),
(140,-114,l),
(305,-114,l),
(305,505,ls),
(305,537,o),
(324,555,o),
(350,555,cs),
(382,555,o),
(395,537,o),
(395,505,cs),
(395,-114,l),
(560,-114,l),
(560,555,l),
(680,555,l),
(680,700,l)
);
}
);
width = 700;
}
);
unicode = 8719;
}
{
glyphname = summation;
layers = (
{
layerId = m01;
shapes = (
{
closed = 1;
nodes = (
(30,577,l),
(183,293,l),
(30,9,l),
(30,-114,l),
(536,-114,l),
(536,31,l),
(272,31,ls),
(257,31,o),
(250,41,o),
(257,55,cs),
(381,293,l),
(257,531,ls),
(250,545,o),
(257,555,o),
(272,555,cs),
(536,555,l),
(536,700,l),
(30,700,l)
);
}
);
width = 566;
}
);
unicode = 8721;
}
{
glyphname = minus;
kernLeft = plus;
kernRight = plus;
layers = (
{
layerId = m01;
shapes = (
{
closed = 1;
nodes = (
(20,412,l),
(20,267,l),
(469,267,l),
(469,412,l)
);
}
);
width = 489;
}
);
metricLeft = plus;
metricRight = plus;
unicode = 8722;
}
{
glyphname = radical;
layers = (
{
layerId = m01;
shapes = (
{
closed = 1;
nodes = (
(421,-114,l),
(511,600,l),
(460,535,l),
(690,535,l),
(690,700,l),
(340,700,l),
(263,92,ls),
(261,72,o),
(245,71,o),
(240,90,cs),
(203,219,l),
(20,219,l),
(115,-114,l)
);
}
);
width = 710;
}
);
unicode = 8730;
}
{
glyphname = infinity;
layers = (
{
layerId = m01;
shapes = (
{
closed = 1;
nodes = (
(609,149,o),
(678,236,o),
(678,349,cs),
(678,455,o),
(609,551,o),
(487,551,cs),
(367,551,o),
(298,457,o),
(298,349,cs),
(298,236,o),
(367,149,o),
(487,149,cs)
);
},
{
closed = 1;
nodes = (
(321,149,o),
(390,236,o),
(390,349,cs),
(390,457,o),
(321,551,o),
(201,551,cs),
(79,551,o),
(10,455,o),
(10,349,cs),
(10,236,o),
(79,149,o),
(201,149,cs)
);
},
{
closed = 1;
nodes = (
(153,272,o),
(126,306,o),
(126,350,cs),
(126,392,o),
(153,428,o),
(200,428,cs),
(247,428,o),
(274,391,o),
(274,350,cs),
(274,306,o),
(247,272,o),
(200,272,cs)
);
},
{
closed = 1;
nodes = (
(441,272,o),
(414,306,o),
(414,350,cs),
(414,392,o),
(441,428,o),
(488,428,cs),
(535,428,o),
(562,391,o),
(562,350,cs),
(562,306,o),
(535,272,o),
(488,272,cs)
);
}
);
width = 688;
}
);
metricRight = "=|";
unicode = 8734;
}
{
glyphname = integral;
layers = (
{
layerId = m01;
shapes = (
{
closed = 1;
nodes = (
(390,-114,l),
(474,555,l),
(659,555,l),
(659,700,l),
(289,700,l),
(205,31,l),
(20,31,l),
(20,-114,l)
);
}
);
width = 679;
}
);
unicode = 8747;
}
{
glyphname = notequal;
layers = (
{
layerId = m01;
shapes = (
{
closed = 1;
nodes = (
(361,443,l),
(415,643,l),
(240,643,l),
(186,443,l)
);
},
{
ref = equal;
},
{
closed = 1;
nodes = (
(118,193,l),
(74,32,l),
(249,32,l),
(293,193,l)
);
}
);
width = 489;
}
);
metricLeft = plus;
metricRight = plus;
unicode = 8800;
}
{
glyphname = greaterequal;
layers = (
{
layerId = m01;
shapes = (
{
closed = 1;
nodes = (
(30,164,l),
(30,32,l),
(479,32,l),
(479,164,l)
);
},
{
pos = (10,97);
ref = greater;
}
);
width = 509;
}
);
metricLeft = greater;
metricRight = greater;
unicode = 8805;
}
{
glyphname = A.ss01;
kernLeft = A;
kernRight = A;
layers = (
{
anchors = (
{
name = bottom;
pos = (324,0);
},
{
name = ogonek;
pos = (583,10);
},
{
name = top;
pos = (324,750);
}
);
layerId = m01;
shapes = (
{
closed = 1;
nodes = (
(15,-39,ls),
(-43,-305,o),
(-109,-393,o),
(-255,-393,cs),
(-358,-393,o),
(-396,-335,o),
(-396,-287,cs),
(-396,-224,o),
(-364,-215,o),
(-323,-215,cs),
(-273,-215,o),
(-250,-256,o),
(-284,-270,c),
(-277,-313,l),
(-225,-345,o),
(-91,-342,o),
(-91,-219,cs),
(-91,-141,o),
(-160,-40,o),
(-336,-40,cs),
(-448,-40,o),
(-570,-124,o),
(-570,-287,cs),
(-570,-431,o),
(-453,-563,o),
(-255,-563,cs),
(-86,-563,o),
(93,-496,o),
(187,-89,cs),
(232,105,o),
(221,203,o),
(324,203,cs),
(389,203,o),
(414,183,o),
(437,89,cs),
(458,0,l),
(638,0,l),
(473,700,l),
(175,700,l)
);
},
{
closed = 1;
nodes = (
(312,556,ls),
(316,575,o),
(332,575,o),
(336,556,cs),
(394,268,l),
(429,342,l),
(219,342,l),
(254,268,l)
);
}
);
width = 648;
}
);
unicode = 57344;
}
{
glyphname = e.ss01;
kernLeft = e.ss01;
kernRight = e.ss01;
layers = (
{
anchors = (
{
name = bottom;
pos = (486,0);
},
{
name = ogonek;
pos = (694,10);
},
{
name = top;
pos = (486,750);
},
{
name = topleft;
pos = (246,700);
}
);
layerId = m01;
shapes = (
{
closed = 1;
nodes = (
(551,411,o),
(278,379,o),
(64,522,c),
(0,399,l),
(183,262,o),
(515,240,o),
(721,358,c),
(769,603,o),
(610,716,o),
(477,716,cs),
(300,716,o),
(156,603,o),
(156,351,cs),
(156,98,o),
(300,-16,o),
(477,-16,cs),
(607,-16,o),
(719,46,o),
(769,179,c),
(593,271,l),
(573,200,o),
(528,169,o),
(477,169,cs),
(409,169,o),
(351,223,o),
(351,351,cs),
(351,478,o),
(409,531,o),
(470,531,cs),
(526,531,o),
(551,508,o),
(551,461,cs)
);
}
);
width = 746;
}
);
unicode = 57347;
}
{
glyphname = m.ss01;
kernLeft = M;
kernRight = M;
layers = (
{
layerId = m01;
shapes = (
{
closed = 1;
nodes = (
(245,0,l),
(245,384,ls),
(245,450,o),
(249,516,o),
(337,516,cs),
(420,516,o),
(424,450,o),
(424,384,cs),
(424,0,l),
(599,0,l),
(599,384,ls),
(599,450,o),
(603,516,o),
(691,516,cs),
(774,516,o),
(778,450,o),
(778,384,cs),
(778,0,l),
(973,0,l),
(973,417,ls),
(973,570,o),
(917,716,o),
(714,716,cs),
(607,716,o),
(551,675,o),
(514,621,c),
(483,675,o),
(419,716,o),
(312,716,cs),
(83,716,o),
(50,570,o),
(50,417,cs),
(50,0,l)
);
}
);
width = 1023;
}
);
metricRight = "=|";
unicode = 57348;
}
{
glyphname = n.ss01;
kernLeft = H;
kernRight = H;
layers = (
{
anchors = (
{
name = bottom;
pos = (336,0);
},
{
name = top;
pos = (336,750);
}
);
layerId = m01;
shapes = (
{
closed = 1;
nodes = (
(245,0,l),
(245,384,ls),
(245,450,o),
(249,516,o),
(337,516,cs),
(420,516,o),
(424,450,o),
(424,384,cs),
(424,0,l),
(619,0,l),
(619,426,ls),
(619,593,o),
(563,716,o),
(337,716,cs),
(83,716,o),
(50,546,o),
(50,426,cs),
(50,0,l)
);
}
);
width = 669;
}
);
unicode = 57349;
}
{
glyphname = B.ss01;
kernLeft = H;
kernRight = B.ss01;
layers = (
{
layerId = m01;
shapes = (
{
closed = 1;
nodes = (
(245,0,l),
(245,285,l),
(375,285,ls),
(498,285,o),
(541,223,o),
(541,152,cs),
(541,104,o),
(521,80,o),
(482,80,cs),
(459,80,o),
(436,121,o),
(470,135,c),
(463,178,l),
(411,210,o),
(277,207,o),
(277,84,cs),
(277,6,o),
(346,-95,o),
(502,-95,cs),
(614,-95,o),
(736,-11,o),
(736,152,cs),
(736,265,o),
(666,369,o),
(488,369,c),
(488,375,l),
(540,375,o),
(573,437,o),
(573,511,cs),
(573,670,o),
(449,700,o),
(346,700,cs),
(50,700,l),
(50,0,l)
);
},
{
closed = 1;
nodes = (
(245,543,l),
(314,543,ls),
(342,543,o),
(383,546,o),
(383,475,cs),
(383,420,o),
(342,420,o),
(314,420,cs),
(245,420,l)
);
}
);
width = 736;
}
);
metricLeft = H;
}
{
glyphname = L_A.liga;
kernLeft = H;
kernRight = A;
layers = (
{
anchors = (
{
name = bottom;
pos = (862,0);
},
{
name = center;
pos = (249,350);
},
{
name = ogonek;
pos = (1121,10);
},
{
name = top;
pos = (862,750);
},
{
name = topright;
pos = (478,700);
}
);
layerId = m01;
shapes = (
{
closed = 1;
nodes = (
(245,700,l),
(50,700,l),
(50,0,l),
(568,0,l),
(568,155,l),
(295,155,ls),
(263,155,o),
(245,173,o),
(245,205,cs)
);
},
{
closed = 1;
nodes = (
(312,203,l),
(579,203,l),
(644,203,o),
(669,183,o),
(692,89,cs),
(713,0,l),
(893,0,l),
(728,700,l),
(430,700,l)
);
},
{
closed = 1;
nodes = (
(567,556,ls),
(571,575,o),
(587,575,o),
(591,556,cs),
(649,268,l),
(684,342,l),
(474,342,l),
(509,268,l)
);
}
);
width = 903;
}
);
metricLeft = L;
metricRight = A;
}
{
glyphname = L_E.liga;
kernLeft = H;
kernRight = E;
layers = (
{
anchors = (
{
name = bottom;
pos = (249,0);
},
{
name = center;
pos = (249,350);
},
{
name = ogonek;
pos = (584.976,228.82);
},
{
name = top;
pos = (249,750);
},
{
name = topleft;
pos = (279.459,699.37);
},
{
name = topright;
pos = (478,700);
}
);
layerId = m01;
shapes = (
{
closed = 1;
nodes = (
(245,700,l),
(50,700,l),
(50,0,l),
(607,0,l),
(607,165,l),
(295,165,ls),
(263,165,o),
(245,183,o),
(245,215,cs)
);
},
{
closed = 1;
nodes = (
(293,222,l),
(607,222,l),
(607,342,l),
(447,342,ls),
(425,342,o),
(412,349,o),
(412,367,cs),
(412,390,o),
(430,395,o),
(447,395,cs),
(559,395,l),
(559,528,l),
(447,528,ls),
(425,528,o),
(412,533,o),
(412,554,cs),
(412,577,o),
(426,584,o),
(447,584,cs),
(607,584,l),
(607,699,l),
(293,699,l)
);
}
);
width = 627;
}
);
metricLeft = L;
metricRight = E;
}
{
glyphname = L_I.liga;
kernLeft = H;
kernRight = H;
layers = (
{
anchors = (
{
name = bottom;
pos = (428,0);
},
{
name = center;
pos = (249,350);
},
{
name = ogonek;
pos = (784,10);
},
{
name = top;
pos = (428,750);
},
{
name = topleft;
pos = (538,700);
},
{
name = topright;
pos = (478,700);
}
);
layerId = m01;
shapes = (
{
closed = 1;
nodes = (
(245,700,l),
(50,700,l),
(50,0,l),
(538,0,l),
(538,175,l),
(295,175,ls),
(263,175,o),
(245,193,o),
(245,225,cs)
);
},
{
closed = 1;
nodes = (
(330,244,l),
(525,244,l),
(525,700,l),
(330,700,l)
);
}
);
width = 588;
}
);
metricLeft = L;
metricRight = I;
}
{
glyphname = L_R.liga;
kernLeft = H;
kernRight = R;
layers = (
{
anchors = (
{
name = bottom;
pos = (547,0);
},
{
name = top;
pos = (547,750);
}
);
layerId = m01;
shapes = (
{
ref = L;
},
{
closed = 1;
nodes = (
(739,324,o),
(836,372,o),
(836,500,cs),
(836,585,o),
(799,700,o),
(572,700,cs),
(303,700,l),
(303,225,l),
(498,225,l),
(498,324,l),
(577,324,ls)
);
},
{
closed = 1;
nodes = (
(498,545,l),
(572,545,ls),
(595,545,o),
(656,536,o),
(656,468,cs),
(656,399,o),
(595,390,o),
(572,390,cs),
(498,390,l)
);
},
{
closed = 1;
nodes = (
(644,269,o),
(690,180,o),
(635,0,c),
(840,0,l),
(870,123,o),
(849,326,o),
(691,326,c),
(691,341,l),
(456,351,l),
(446,269,l)
);
}
);
width = 882;
}
);
metricLeft = L;
metricRight = R;
}
{
glyphname = R.ss01;
kernLeft = H;
kernRight = R;
layers = (
{
anchors = (
{
name = bottom;
pos = (310,0);
},
{
name = top;
pos = (310,750);
}
);
layerId = m01;
shapes = (
{
closed = 1;
nodes = (
(486,324,o),
(583,372,o),
(583,500,cs),
(583,585,o),
(546,700,o),
(319,700,cs),
(50,700,l),
(50,0,l),
(245,0,l),
(245,324,l),
(324,324,ls)
);
},
{
closed = 1;
nodes = (
(245,545,l),
(319,545,ls),
(342,545,o),
(403,536,o),
(403,468,cs),
(403,399,o),
(342,390,o),
(319,390,cs),
(245,390,l)
);
},
{
closed = 1;
nodes = (
(409,269,o),
(378,189,o),
(425,-69,cs),
(500,-481,o),
(698,-563,o),
(867,-563,cs),
(1065,-563,o),
(1182,-431,o),
(1182,-287,cs),
(1182,-124,o),
(1060,-40,o),
(948,-40,cs),
(772,-40,o),
(703,-141,o),
(703,-219,cs),
(703,-342,o),
(837,-345,o),
(889,-313,c),
(896,-270,l),
(862,-256,o),
(885,-215,o),
(935,-215,cs),
(976,-215,o),
(1008,-224,o),
(1008,-287,cs),
(1008,-335,o),
(970,-393,o),
(867,-393,cs),
(721,-393,o),
(645,-309,o),
(597,-19,cs),
(566,168,o),
(568,326,o),
(438,326,c),
(438,341,l),
(203,351,l),
(203,269,l)
);
}
);
width = 612;
}
);
metricLeft = H;
}
{
glyphname = R_O.liga;
layers = (
{
anchors = (
{
name = bottom;
pos = (310,0);
},
{
name = top;
pos = (310,750);
}
);
layerId = m01;
shapes = (
{
closed = 1;
nodes = (
(486,324,o),
(583,372,o),
(583,500,cs),
(583,585,o),
(546,700,o),
(319,700,cs),
(50,700,l),
(50,0,l),
(245,0,l),
(245,324,l),
(324,324,ls)
);
},
{
closed = 1;
nodes = (
(245,545,l),
(319,545,ls),
(342,545,o),
(403,536,o),
(403,468,cs),
(403,399,o),
(342,390,o),
(319,390,cs),
(245,390,l)
);
},
{
pos = (619,0);
ref = O;
},
{
closed = 1;
nodes = (
(1235,24,l),
(1184,-39,o),
(1082,-91,o),
(968,-91,cs),
(806,-91,o),
(698,0,o),
(613,139,cs),
(539,259,o),
(470,326,o),
(438,326,c),
(438,341,l),
(193,351,l),
(183,249,l),
(313,249,o),
(342,212,o),
(401,113,cs),
(555,-145,o),
(747,-277,o),
(968,-277,cs),
(1137,-277,o),
(1312,-192,o),
(1395,-68,c)
);
}
);
width = 1292;
}
);
metricLeft = R;
}
{
glyphname = S_S.liga;
kernLeft = S;
kernRight = S;
layers = (
{
anchors = (
{
name = bottom;
pos = (296,0);
},
{
name = top;
pos = (296,750);
}
);
layerId = m01;
shapes = (
{
closed = 1;
nodes = (
(563,322,cs),
(650,146,o),
(710,-13,o),
(951,-14,cs),
(1158,-14,o),
(1229,58,o),
(1229,177,cs),
(1229,298,o),
(1111,358,o),
(1067,384,cs),
(981,435,o),
(906,455,o),
(906,504,cs),
(906,532,o),
(938,541,o),
(979,541,cs),
(1029,541,o),
(1052,500,o),
(1018,486,c),
(1025,443,l),
(1077,411,o),
(1211,414,o),
(1211,537,cs),
(1211,615,o),
(1142,716,o),
(966,716,cs),
(786,716,o),
(700,632,o),
(700,514,cs),
(700,404,o),
(801,344,o),
(884,293,cs),
(965,244,o),
(1034,229,o),
(1034,180,cs),
(1034,146,o),
(994,139,o),
(969,139,cs),
(836,140,o),
(777,235,o),
(691,408,cs),
(573,646,o),
(468,716,o),
(302,716,cs),
(117,716,o),
(21,632,o),
(21,514,cs),
(21,404,o),
(122,344,o),
(205,293,cs),
(286,244,o),
(355,229,o),
(355,180,cs),
(355,143,o),
(299,139,o),
(276,139,cs),
(216,139,o),
(179,174,o),
(202,242,c),
(26,282,l),
(-40,73,o),
(112,-16,o),
(274,-16,cs),
(486,-16,o),
(550,56,o),
(550,177,cs),
(550,298,o),
(432,358,o),
(388,384,cs),
(302,435,o),
(227,455,o),
(227,493,cs),
(227,525,o),
(254,541,o),
(317,541,cs),
(421,541,o),
(501,447,o)
);
}
);
width = 1239;
}
);
metricLeft = S;
metricRight = S;
}
{
glyphname = T_H.liga;
kernLeft = T;
kernRight = H;
layers = (
{
anchors = (
{
name = bottom;
pos = (955,0);
},
{
name = center;
pos = (955,525);
},
{
name = top;
pos = (955,700);
},
{
name = topleft;
pos = (630,700);
}
);
layerId = m01;
shapes = (
{
closed = 1;
nodes = (
(412,485,ls),
(412,517,o),
(430,535,o),
(462,535,cs),
(707,535,l),
(707,700,l),
(30,700,l),
(30,535,l),
(167,535,ls),
(199,535,o),
(217,517,o),
(217,485,cs),
(217,0,l),
(412,0,l)
);
},
{
closed = 1;
nodes = (
(512,0,l),
(707,0,l),
(707,205,ls),
(707,263,o),
(743,295,o),
(807,295,cs),
(871,295,o),
(907,263,o),
(907,205,cs),
(907,0,l),
(1102,0,l),
(1102,700,l),
(907,700,l),
(907,530,ls),
(907,462,o),
(871,430,o),
(807,430,cs),
(723,430,o),
(707,462,o),
(707,486,c),
(512,486,l)
);
}
);
width = 1152;
}
);
metricLeft = T;
metricRight = H;
}
{
glyphname = T_O.liga;
kernLeft = T;
kernRight = T;
layers = (
{
anchors = (
{
name = bottom;
pos = (315,0);
},
{
name = center;
pos = (315,350);
},
{
name = ogonek;
pos = (873.645,2.058);
},
{
name = top;
pos = (315,750);
},
{
name = topleft;
pos = (455.116,489.048);
},
{
name = topright;
pos = (907.523,489.048);
}
);
layerId = m01;
shapes = (
{
closed = 1;
nodes = (
(412,485,ls),
(412,517,o),
(430,535,o),
(462,535,cs),
(972,535,l),
(972,700,l),
(30,700,l),
(30,535,l),
(167,535,ls),
(199,535,o),
(217,517,o),
(217,485,cs),
(217,0,l),
(412,0,l)
);
},
{
closed = 1;
nodes = (
(835,-16,o),
(944,64,o),
(944,243,cs),
(944,421,o),
(835,500,o),
(703,500,cs),
(570,500,o),
(461,421,o),
(461,243,cs),
(461,64,o),
(570,-16,o),
(703,-16,cs)
);
},
{
closed = 1;
nodes = (
(655,128,o),
(614,162,o),
(614,243,cs),
(614,322,o),
(655,356,o),
(703,356,cs),
(750,356,o),
(791,322,o),
(791,243,cs),
(791,162,o),
(750,128,o),
(703,128,cs)
);
}
);
width = 992;
}
);
metricLeft = T;
metricRight = O;
}
{
export = 0;
glyphname = _belakang_ha;
layers = (
{
layerId = m01;
shapes = (
{
closed = 1;
nodes = (
(80,456,o),
(80,521,o),
(114,521,cs),
(246,521,o),
(223,206,o),
(167,0,c),
(357,0,l),
(443,393,o),
(411,716,o),
(139,716,cs),
(69,716,o),
(20,527,o),
(20,419,c),
(80,419,l)
);
}
);
width = 419;
}
);
}
{
export = 0;
glyphname = _belakang_ha_lurus;
layers = (
{
anchors = (
{
name = bottom;
pos = (275,0);
}
);
layerId = m01;
shapes = (
{
closed = 1;
nodes = (
(80,456,o),
(84,521,o),
(118,521,cs),
(204,521,o),
(177,292,o),
(177,96,c),
(177,0,l),
(372,0,l),
(372,91,l),
(372,486,ls),
(372,666,o),
(238,716,o),
(139,716,cs),
(69,716,o),
(20,527,o),
(20,419,c),
(80,419,l)
);
}
);
width = 392;
}
);
}
{
export = 0;
glyphname = _cecek_bangkiang;
layers = (
{
anchors = (
{
name = _cecek_bangkiang;
pos = (163,429);
}
);
layerId = m01;
shapes = (
{
closed = 1;
nodes = (
(310,-278,l),
(267,247,ls),
(255,386,o),
(142,409,o),
(83,357,cs),
(10,291,l),
(54,202,l),
(102,239,ls),
(120,253,o),
(139,241,o),
(142,215,cs),
(200,-278,l)
);
}
);
width = 400;
}
);
}
{
export = 0;
glyphname = _cecek_bawah;
layers = (
{
anchors = (
{
name = _cecek_bawah;
pos = (163,509);
}
);
layerId = m01;
shapes = (
{
closed = 1;
nodes = (
(330,-338,l),
(287,317,ls),
(278,456,o),
(167,473,o),
(103,427,cs),
(10,361,l),
(54,272,l),
(102,309,ls),
(120,323,o),
(140,311,o),
(142,285,cs),
(200,-338,l)
);
}
);
width = 400;
}
);
}
{
export = 0;
glyphname = _dot_ulu_bali;
layers = (
{
anchors = (
{
name = _dot_ulu_bali;
pos = (120,954);
}
);
layerId = m01;
shapes = (
{
closed = 1;
nodes = (
(175,854,o),
(220,899,o),
(220,954,cs),
(220,1009,o),
(175,1054,o),
(121,1054,cs),
(65,1054,o),
(20,1009,o),
(20,954,cs),
(20,899,o),
(65,854,o),
(121,854,cs)
);
}
);
width = 240;
}
);
}
{
export = 0;
glyphname = "_kaMahaprana-bali";
layers = (
{
anchors = (
{
name = _bottom;
pos = (118,0);
}
);
layerId = m01;
shapes = (
{
closed = 1;
nodes = (
(601,-200,l),
(576,-152,o),
(518,-75,o),
(411,-75,cs),
(315,-75,o),
(215,-187,o),
(215,-88,cs),
(215,13,l),
(20,13,l),
(20,-114,ls),
(20,-204,o),
(51,-294,o),
(169,-294,cs),
(296,-294,o),
(345,-223,o),
(399,-223,cs),
(446,-223,o),
(481,-274,o),
(500,-294,c)
);
}
);
width = 581;
}
);
}
{
export = 0;
glyphname = _kempul;
layers = (
{
layerId = m01;
shapes = (
{
closed = 1;
nodes = (
(289,714,ls),
(374,1008,o),
(378,1248,o),
(274,1300,cs),
(174,1350,o),
(69,1280,o),
(20,1180,c),
(141,1120,l),
(158,1153,o),
(174,1171,o),
(191,1171,cs),
(222,1171,o),
(246,1000,o),
(175,747,cs),
(155,676,l),
(271,652,l)
);
}
);
width = 372;
}
);
}
{
export = 0;
glyphname = _pepet_komponen;
layers = (
{
anchors = (
{
name = right;
pos = (914,800);
}
);
layerId = m01;
shapes = (
{
closed = 1;
nodes = (
(281,758,l),
(394,758,l),
(394,867,o),
(393,964,o),
(434,1031,cs),
(502,1141,o),
(687,1177,o),
(687,1070,c),
(462,978,l),
(462,854,l),
(865,937,l),
(869,1093,ls),
(874,1274,o),
(689,1292,o),
(577,1277,cs),
(462,1262,o),
(315,1205,o),
(252,1137,c),
(257,876,l)
);
},
{
closed = 1;
nodes = (
(255,955,l),
(259,935,o),
(259,904,o),
(254,901,cs),
(238,891,o),
(205,988,o),
(182,1052,c),
(20,975,l),
(184,758,l),
(314,758,l)
);
}
);
width = 889;
}
);
}
{
export = 0;
glyphname = _ra_ya_post_depan;
layers = (
{
layerId = m01;
shapes = (
{
closed = 1;
nodes = (
(45,171,l),
(45,-739,ls),
(45,-897,o),
(-33,-928,o),
(-158,-928,cs),
(-291,-928,o),
(-349,-903,o),
(-349,-820,cs),
(-349,-702,o),
(-145,-606,o),
(-27,-528,c),
(-141,-387,l),
(-383,-535,o),
(-662,-782,o),
(-991,-782,cs),
(-1227,-782,o),
(-1358,-688,o),
(-1309,-407,c),
(-1491,-407,l),
(-1566,-701,o),
(-1427,-977,o),
(-991,-977,cs),
(-864,-977,o),
(-651,-923,o),
(-543,-848,c),
(-530,-1067,o),
(-361,-1123,o),
(-158,-1123,cs),
(114,-1123,o),
(240,-1067,o),
(240,-750,cs),
(240,171,l)
);
}
);
width = 260;
}
);
}
{
export = 0;
glyphname = _repa_;
layers = (
{
anchors = (
{
name = _repa;
pos = (236,0);
},
{
name = _top;
pos = (236,-499);
}
);
layerId = m01;
shapes = (
{
closed = 1;
nodes = (
(208,-270,o),
(208,-183,cs),
(208,-164,o),
(221,-158,o),
(236,-158,cs),
(271,-158,o),
(274,-200,o),
(246,-200,c),
(249,-228,l),
(313,-276,o),
(373,-240,o),
(373,-164,cs),
(373,-101,o),
(334,-31,o),
(236,-31,cs),
(136,-31,o),
(73,-89,o),
(73,-171,cs),
(73,-324,o),
(255,-324,o),
(255,-383,cs),
(255,-400,o),
(243,-418,o),
(203,-418,cs),
(170,-418,o),
(136,-390,o),
(164,-335,c),
(35,-301,l),
(-27,-473,o),
(112,-538,o),
(214,-538,cs),
(347,-538,o),
(417,-488,o),
(417,-404,cs),
(417,-265,o)
);
}
);
width = 437;
}
);
}
{
export = 0;
glyphname = _segitiga_bali;
layers = (
{
layerId = m01;
shapes = (
{
closed = 1;
nodes = (
(90,678,l),
(-20,567,l),
(376,224,l),
(444,292,l)
);
}
);
width = 464;
}
);
}
{
export = 0;
glyphname = _surang_komponen;
layers = (
{
anchors = (
{
name = _right;
pos = (12,823);
}
);
layerId = m01;
shapes = (
{
closed = 1;
nodes = (
(325,887,o),
(225,1075,o),
(225,1287,c),
(20,1287,l),
(20,996,o),
(234,757,o),
(491,757,c),
(491,887,l)
);
}
);
width = 511;
}
);
}
{
export = 0;
glyphname = _suwet_ka;
layers = (
{
anchors = (
{
name = _suwet;
pos = (103,507);
}
);
layerId = m01;
shapes = (
{
closed = 1;
nodes = (
(284,-84,l),
(278,-94,o),
(258,-129,o),
(222,-129,cs),
(179,-129,o),
(185,-69,o),
(185,14,cs),
(185,507,l),
(20,507,l),
(20,-42,ls),
(20,-213,o),
(78,-294,o),
(200,-294,cs),
(305,-294,o),
(346,-208,o),
(361,-158,c)
);
}
);
width = 381;
}
);
}
{
export = 0;
glyphname = _suwet_sa;
layers = (
{
anchors = (
{
name = _suwet_sa;
pos = (93,297);
}
);
layerId = m01;
shapes = (
{
closed = 1;
nodes = (
(274,-84,l),
(268,-94,o),
(245,-139,o),
(214,-139,cs),
(149,-139,o),
(155,-69,o),
(155,14,cs),
(155,359,l),
(10,359,l),
(10,-42,ls),
(10,-213,o),
(68,-294,o),
(190,-294,cs),
(295,-294,o),
(336,-208,o),
(351,-158,c)
);
}
);
width = 381;
}
);
}
{
export = 0;
glyphname = _tedung_bali;
layers = (
{
anchors = (
{
name = _right;
pos = (134,800);
}
);
layerId = m01;
shapes = (
{
closed = 1;
nodes = (
(153,436,l),
(201,509,o),
(251,525,o),
(308,525,cs),
(413,525,o),
(446,457,o),
(446,359,cs),
(446,232,o),
(398,179,o),
(329,179,cs),
(295,179,o),
(279,192,o),
(279,212,cs),
(279,228,o),
(295,245,o),
(318,243,c),
(318,354,l),
(182,384,o),
(74,307,o),
(74,192,cs),
(74,84,o),
(156,-16,o),
(340,-16,cs),
(499,-16,o),
(654,97,o),
(654,349,cs),
(654,602,o),
(495,716,o),
(321,716,cs),
(134,716,o),
(46,618,o),
(20,509,c)
);
}
);
width = 674;
}
);
}
{
export = 0;
glyphname = _uluCandra_short;
layers = (
{
anchors = (
{
name = _right;
pos = (14,800);
}
);
layerId = m01;
shapes = (
{
closed = 1;
nodes = (
(665,853,l),
(656,993,ls),
(652,1060,o),
(588,1142,o),
(458,1142,cs),
(328,1142,o),
(268,1060,o),
(260,993,cs),
(242,853,l),
(379,826,l),
(387,941,ls),
(390,981,o),
(409,1011,o),
(458,1011,cs),
(507,1011,o),
(526,981,o),
(529,941,cs),
(537,826,l)
);
},
{
closed = 1;
nodes = (
(521,1120,l),
(506,1304,l),
(402,1304,l),
(386,1120,l)
);
},
{
closed = 1;
nodes = (
(737,1257,l),
(728,942,o),
(613,862,o),
(454,862,cs),
(293,862,o),
(179,942,o),
(170,1257,c),
(20,1257,l),
(20,898,o),
(195,733,o),
(454,733,cs),
(709,733,o),
(887,898,o),
(887,1257,c)
);
}
);
width = 907;
}
);
}
{
export = 0;
glyphname = _ulu_cecek;
layers = (
{
anchors = (
{
name = _dot_ulu_bali;
pos = (142,962);
}
);
layerId = m01;
shapes = (
{
closed = 1;
nodes = (
(210,765,l),
(203,920,o),
(192,1058,o),
(171,1062,cs),
(143,1071,o),
(58,1015,o),
(20,987,c),
(69,912,l),
(83,925,o),
(116,953,o),
(120,951,cs),
(127,948,o),
(127,866,o),
(126,758,c)
);
}
);
width = 230;
}
);
}
{
glyphname = "akara-bali.alt";
layers = (
{
anchors = (
{
name = bottom;
pos = (1639,0);
},
{
name = top;
pos = (953,800);
}
);
layerId = m01;
shapes = (
{
pos = (690,0);
ref = "pa-bali.post.alt";
},
{
pos = (928,0);
ref = _cecek_bangkiang;
},
{
closed = 1;
nodes = (
(808,684,l),
(732,758,o),
(621,800,o),
(463,800,cs),
(113,800,o),
(20,524,o),
(20,364,cs),
(20,59,o),
(230,-16,o),
(404,-16,cs),
(558,-16,o),
(683,38,o),
(683,181,cs),
(683,234,o),
(647,276,o),
(594,292,c),
(631,321,o),
(653,364,o),
(653,418,cs),
(653,513,o),
(570,565,o),
(471,565,cs),
(368,565,o),
(313,495,o),
(295,464,c),
(354,398,l),
(368,414,o),
(387,445,o),
(429,445,cs),
(463,445,o),
(483,425,o),
(483,398,cs),
(483,361,o),
(441,350,o),
(398,350,cs),
(379,350,l),
(379,265,l),
(422,265,ls),
(456,265,o),
(528,252,o),
(528,203,cs),
(528,163,o),
(487,140,o),
(404,140,cs),
(317,140,o),
(195,172,o),
(195,364,cs),
(195,543,o),
(308,635,o),
(464,635,cs),
(566,635,o),
(639,610,o),
(689,557,c)
);
}
);
width = 1756;
}
);
}
{
glyphname = "asyuraSasak-bali.below.alt";
layers = (
{
anchors = (
{
name = _bottom;
pos = (2013,0);
},
{
name = bottom;
pos = (1917,-791);
}
);
layerId = m01;
shapes = (
{
closed = 1;
nodes = (
(887,-273,o),
(894,-295,o),
(894,-330,cs),
(894,-494,l),
(1089,-494,l),
(1089,-324,ls),
(1089,-183,o),
(1009,-75,o),
(853,-75,cs),
(693,-75,o),
(618,-183,o),
(618,-324,cs),
(618,-619,l),
(716,-791,l),
(813,-668,l),
(813,-330,ls),
(813,-295,o),
(819,-273,o),
(853,-273,cs)
);
},
{
closed = 1;
nodes = (
(630,-620,ls),
(529,-616,o),
(474,-400,o),
(256,-400,cs),
(63,-400,o),
(20,-508,o),
(20,-609,cs),
(20,-724,o),
(111,-807,o),
(225,-807,cs),
(441,-807,o),
(473,-588,o),
(473,-432,cs),
(473,-208,o),
(383,-75,o),
(236,-75,cs),
(104,-75,o),
(30,-157,o),
(30,-263,cs),
(30,-356,o),
(135,-386,o),
(212,-356,c),
(212,-287,l),
(201,-287,o),
(185,-279,o),
(185,-263,cs),
(185,-248,o),
(199,-236,o),
(219,-236,cs),
(331,-236,o),
(356,-647,o),
(237,-647,cs),
(210,-647,o),
(200,-632,o),
(200,-601,cs),
(200,-568,o),
(222,-539,o),
(256,-539,cs),
(407,-539,o),
(454,-791,o),
(634,-791,cs),
(716,-791,l),
(709,-623,l)
);
},
{
closed = 1;
nodes = (
(1718,-349,ls),
(1718,-314,o),
(1715,-270,o),
(1757,-270,cs),
(1819,-270,o),
(1819,-314,o),
(1819,-505,cs),
(1819,-791,l),
(2014,-791,l),
(2014,-403,ls),
(2014,-131,o),
(1861,-75,o),
(1729,-75,cs),
(1623,-75,o),
(1523,-110,o),
(1523,-317,cs),
(1523,-527,l),
(1718,-527,l)
);
},
{
closed = 1;
nodes = (
(1297,-664,l),
(1309,-676,l),
(1355,-720,o),
(1405,-807,o),
(1529,-807,cs),
(1645,-807,o),
(1718,-716,o),
(1718,-550,c),
(1718,-490,l),
(1523,-490,l),
(1523,-506,l),
(1523,-594,o),
(1495,-602,o),
(1461,-602,cs),
(1410,-602,o),
(1406,-544,o),
(1406,-494,cs),
(1406,-208,l),
(1292,-208,l)
);
},
{
closed = 1;
nodes = (
(1206,-208,l),
(1206,-494,ls),
(1206,-544,o),
(1202,-602,o),
(1151,-602,cs),
(1117,-602,o),
(1089,-594,o),
(1089,-506,c),
(1089,-490,l),
(894,-490,l),
(894,-550,l),
(894,-716,o),
(967,-807,o),
(1083,-807,cs),
(1207,-807,o),
(1257,-720,o),
(1303,-676,c),
(1314,-665,l),
(1315,-208,l)
);
}
);
width = 2034;
}
);
}
{
glyphname = "asyuraSasak_tedung-bali";
kernRight = tedung;
layers = (
{
anchors = (
{
name = bottom;
pos = (2013,0);
},
{
name = top;
pos = (609,800);
}
);
layerId = m01;
shapes = (
{
closed = 1;
nodes = (
(887,518,o),
(894,496,o),
(894,461,cs),
(894,297,l),
(1089,297,l),
(1089,467,ls),
(1089,608,o),
(1009,716,o),
(853,716,cs),
(693,716,o),
(618,608,o),
(618,467,cs),
(618,172,l),
(716,0,l),
(813,123,l),
(813,461,ls),
(813,496,o),
(819,518,o),
(853,518,cs)
);
},
{
closed = 1;
nodes = (
(630,171,ls),
(529,175,o),
(474,391,o),
(256,391,cs),
(63,391,o),
(20,283,o),
(20,182,cs),
(20,67,o),
(111,-16,o),
(225,-16,cs),
(441,-16,o),
(473,203,o),
(473,359,cs),
(473,583,o),
(383,716,o),
(236,716,cs),
(104,716,o),
(30,634,o),
(30,528,cs),
(30,435,o),
(135,405,o),
(212,435,c),
(212,504,l),
(201,504,o),
(185,512,o),
(185,528,cs),
(185,543,o),
(199,555,o),
(219,555,cs),
(331,555,o),
(356,144,o),
(237,144,cs),
(210,144,o),
(200,159,o),
(200,190,cs),
(200,223,o),
(222,252,o),
(256,252,cs),
(407,252,o),
(454,0,o),
(634,0,cs),
(716,0,l),
(716,168,l)
);
},
{
closed = 1;
nodes = (
(1718,233,l),
(1718,267,ls),
(1718,370,o),
(1743,522,o),
(1937,522,cs),
(2070,522,o),
(2150,457,o),
(2150,330,cs),
(2150,202,o),
(2079,159,o),
(2025,159,cs),
(1985,159,o),
(1960,175,o),
(1960,202,cs),
(1960,224,o),
(1976,245,o),
(1999,243,c),
(1962,368,l),
(1865,390,o),
(1770,310,o),
(1770,186,cs),
(1770,102,o),
(1820,-16,o),
(2022,-16,cs),
(2170,-16,o),
(2345,67,o),
(2345,330,cs),
(2345,602,o),
(2133,716,o),
(1937,716,cs),
(1694,716,o),
(1523,579,o),
(1523,337,cs),
(1523,235,l)
);
},
{
closed = 1;
nodes = (
(1297,127,l),
(1309,115,l),
(1355,71,o),
(1405,-16,o),
(1529,-16,cs),
(1645,-16,o),
(1718,75,o),
(1718,241,c),
(1718,301,l),
(1523,301,l),
(1523,285,l),
(1523,197,o),
(1495,189,o),
(1461,189,cs),
(1410,189,o),
(1406,247,o),
(1406,297,cs),
(1406,583,l),
(1292,583,l)
);
},
{
closed = 1;
nodes = (
(1206,583,l),
(1206,297,ls),
(1206,247,o),
(1202,189,o),
(1151,189,cs),
(1117,189,o),
(1089,197,o),
(1089,285,c),
(1089,301,l),
(894,301,l),
(894,241,l),
(894,75,o),
(967,-16,o),
(1083,-16,cs),
(1207,-16,o),
(1257,71,o),
(1303,115,c),
(1314,126,l),
(1315,583,l)
);
}
);
width = 2365;
}
);
}
{
glyphname = "ba-bali.below";
layers = (
{
anchors = (
{
name = _bottom;
pos = (1615,0);
},
{
name = _nya_gantungan;
pos = (809,0);
},
{
name = bottom;
pos = (1615,-791);
}
);
layerId = m01;
shapes = (
{
closed = 1;
nodes = (
(605,-791,l),
(702,-668,l),
(670,-479,o),
(674,-270,o),
(782,-270,cs),
(816,-270,o),
(822,-345,o),
(822,-402,c),
(1011,-402,l),
(1011,-345,o),
(1017,-270,o),
(1051,-270,cs),
(1183,-270,o),
(1160,-585,o),
(1104,-791,c),
(1294,-791,l),
(1380,-398,o),
(1348,-75,o),
(1076,-75,cs),
(989,-75,o),
(926,-165,o),
(917,-208,c),
(907,-164,o),
(848,-75,o),
(757,-75,cs),
(495,-75,o),
(463,-385,o),
(509,-668,c),
(542,-791,l)
);
},
{
closed = 1;
nodes = (
(1170,-540,l),
(1173,-554,o),
(1174,-569,o),
(1175,-583,cs),
(1176,-655,l),
(1192,-791,l),
(1294,-791,ls),
(1352,-791,o),
(1444,-778,o),
(1496,-742,cs),
(1611,-661,o),
(1652,-446,o),
(1576,-220,c),
(1401,-271,l),
(1475,-518,o),
(1370,-596,o),
(1328,-596,c),
(1328,-540,l)
);
},
{
closed = 1;
nodes = (
(436,-499,l),
(451,-415,o),
(460,-334,o),
(460,-262,cs),
(460,-157,o),
(386,-75,o),
(231,-75,cs),
(80,-75,o),
(20,-183,o),
(20,-280,cs),
(20,-398,o),
(112,-453,o),
(212,-380,c),
(216,-336,l),
(172,-336,o),
(177,-271,o),
(220,-271,cs),
(285,-271,o),
(253,-378,o),
(229,-499,c)
);
},
{
closed = 1;
nodes = (
(229,-499,l),
(226,-513,o),
(223,-527,o),
(221,-541,cs),
(209,-611,o),
(164,-791,o),
(386,-791,cs),
(585,-791,l),
(585,-616,l),
(469,-616,ls),
(433,-616,o),
(416,-605,o),
(423,-569,cs),
(436,-499,l)
);
}
);
width = 1635;
}
);
}
{
glyphname = "baKembang-bali.alt";
layers = (
{
anchors = (
{
name = bottom;
pos = (1189,0);
},
{
name = top;
pos = (747,800);
}
);
layerId = m01;
shapes = (
{
closed = 1;
nodes = (
(723,252,ls),
(811,252,o),
(856,238,o),
(856,195,cs),
(856,166,o),
(847,146,o),
(790,146,cs),
(721,146,o),
(683,195,o),
(668,252,c)
);
},
{
closed = 1;
nodes = (
(1003,520,o),
(1091,465,o),
(1091,271,cs),
(1091,0,l),
(1286,0,l),
(1286,267,ls),
(1286,601,o),
(1127,714,o),
(856,715,cs),
(587,716,o),
(465,586,o),
(465,316,cs),
(465,195,o),
(534,-16,o),
(782,-16,cs),
(995,-16,o),
(1043,90,o),
(1043,205,cs),
(1043,370,o),
(886,411,o),
(755,411,cs),
(678,411,l),
(702,497,o),
(764,520,o),
(883,520,cs)
);
},
{
closed = 1;
nodes = (
(417,387,l),
(452,442,o),
(460,486,o),
(460,529,cs),
(460,634,o),
(386,716,o),
(231,716,cs),
(80,716,o),
(20,608,o),
(20,511,cs),
(20,393,o),
(112,338,o),
(212,411,c),
(216,455,l),
(172,455,o),
(177,520,o),
(220,520,cs),
(267,520,o),
(314,464,o),
(300,387,c)
);
},
{
closed = 1;
nodes = (
(130,264,l),
(130,259,o),
(129,255,o),
(128,250,cs),
(116,180,o),
(73,-16,o),
(280,-16,cs),
(423,-16,o),
(532,192,o),
(657,243,c),
(636,395,l),
(575,370,o),
(493,330,o),
(446,268,cs),
(394,200,o),
(316,196,o),
(329,264,c)
);
}
);
width = 1306;
}
);
}
{
glyphname = "baKembang-bali.below.alt";
layers = (
{
anchors = (
{
name = _bottom;
pos = (1307,0);
},
{
name = _nya_gantungan;
pos = (624,0);
},
{
name = bottom;
pos = (1210,-791);
}
);
layerId = m01;
shapes = (
{
closed = 1;
nodes = (
(508,-807,o),
(594,-583,o),
(678,-548,c),
(655,-380,l),
(594,-405,o),
(449,-609,o),
(325,-609,cs),
(242,-609,o),
(215,-551,o),
(215,-473,cs),
(215,-342,o),
(323,-246,o),
(402,-220,c),
(309,-75,l),
(207,-100,o),
(20,-254,o),
(20,-507,cs),
(20,-656,o),
(134,-807,o),
(298,-807,cs)
);
},
{
closed = 1;
nodes = (
(744,-540,ls),
(832,-540,o),
(877,-554,o),
(877,-597,cs),
(877,-626,o),
(868,-646,o),
(811,-646,cs),
(742,-646,o),
(704,-597,o),
(689,-540,c)
);
},
{
closed = 1;
nodes = (
(1024,-272,o),
(1112,-327,o),
(1112,-521,cs),
(1112,-791,l),
(1307,-791,l),
(1307,-525,ls),
(1307,-191,o),
(1148,-78,o),
(877,-77,cs),
(608,-76,o),
(486,-206,o),
(486,-476,cs),
(486,-597,o),
(555,-807,o),
(803,-807,cs),
(1016,-807,o),
(1064,-702,o),
(1064,-587,cs),
(1064,-422,o),
(907,-381,o),
(776,-381,cs),
(699,-381,l),
(723,-295,o),
(785,-272,o),
(904,-272,cs)
);
}
);
width = 1327;
}
);
}
{
glyphname = "baKembang-bali.below";
layers = (
{
anchors = (
{
name = _bottom;
pos = (1290,0);
},
{
name = _nya_gantungan;
pos = (624,0);
},
{
name = bottom;
pos = (1290,-791);
}
);
layerId = m01;
shapes = (
{
closed = 1;
nodes = (
(508,-807,o),
(594,-583,o),
(678,-548,c),
(655,-380,l),
(594,-405,o),
(449,-609,o),
(325,-609,cs),
(242,-609,o),
(215,-551,o),
(215,-473,cs),
(215,-342,o),
(323,-246,o),
(402,-220,c),
(309,-75,l),
(207,-100,o),
(20,-254,o),
(20,-507,cs),
(20,-656,o),
(134,-807,o),
(298,-807,cs)
);
},
{
closed = 1;
nodes = (
(627,-577,o),
(656,-539,o),
(744,-539,cs),
(832,-539,o),
(877,-553,o),
(877,-596,cs),
(877,-625,o),
(868,-645,o),
(811,-645,cs),
(718,-645,o),
(681,-557,o),
(681,-475,cs),
(681,-307,o),
(754,-270,o),
(876,-270,cs),
(1079,-270,o),
(1149,-413,o),
(1068,-791,c),
(1258,-791,l),
(1350,-310,o),
(1255,-75,o),
(877,-75,cs),
(608,-75,o),
(486,-205,o),
(486,-475,cs),
(486,-596,o),
(555,-807,o),
(796,-807,cs),
(1009,-807,o),
(1057,-701,o),
(1057,-586,cs),
(1057,-421,o),
(900,-380,o),
(769,-380,cs),
(656,-380,o),
(572,-437,o),
(493,-510,c),
(560,-627,l)
);
}
);
width = 1311;
}
);
}
{
glyphname = "baKembang_tedung-bali";
layers = (
{
anchors = (
{
name = bottom;
pos = (1270,0);
},
{
name = top;
pos = (747,800);
}
);
layerId = m01;
shapes = (
{
closed = 1;
nodes = (
(417,387,l),
(452,442,o),
(460,486,o),
(460,529,cs),
(460,634,o),
(386,716,o),
(231,716,cs),
(80,716,o),
(20,608,o),
(20,511,cs),
(20,393,o),
(112,338,o),
(212,411,c),
(216,455,l),
(172,455,o),
(177,520,o),
(220,520,cs),
(267,520,o),
(314,464,o),
(300,387,c)
);
},
{
closed = 1;
nodes = (
(130,264,l),
(130,259,o),
(129,255,o),
(128,250,cs),
(116,180,o),
(73,-16,o),
(280,-16,cs),
(423,-16,o),
(532,192,o),
(657,243,c),
(636,395,l),
(575,370,o),
(493,330,o),
(446,268,cs),
(394,200,o),
(316,196,o),
(329,264,c)
);
},
{
closed = 1;
nodes = (
(1207,296,l),
(1226,390,o),
(1279,522,o),
(1439,522,cs),
(1549,522,o),
(1629,457,o),
(1629,330,cs),
(1629,202,o),
(1558,159,o),
(1504,159,cs),
(1464,159,o),
(1439,175,o),
(1439,202,cs),
(1439,224,o),
(1455,245,o),
(1478,243,c),
(1441,368,l),
(1344,390,o),
(1249,310,o),
(1249,186,cs),
(1249,102,o),
(1299,-16,o),
(1501,-16,cs),
(1649,-16,o),
(1824,67,o),
(1824,330,cs),
(1824,602,o),
(1654,716,o),
(1459,716,cs),
(1189,716,o),
(1127,501,o),
(1123,375,c),
(1160,296,l)
);
},
{
closed = 1;
nodes = (
(1200,296,l),
(1199,578,o),
(1114,716,o),
(856,716,cs),
(587,716,o),
(465,586,o),
(465,316,cs),
(465,195,o),
(534,-16,o),
(775,-16,cs),
(988,-16,o),
(1036,90,o),
(1036,205,cs),
(1036,370,o),
(879,411,o),
(748,411,cs),
(635,411,o),
(551,354,o),
(472,281,c),
(539,164,l),
(606,214,o),
(635,252,o),
(723,252,cs),
(811,252,o),
(856,238,o),
(856,195,cs),
(856,166,o),
(847,146,o),
(790,146,cs),
(697,146,o),
(660,234,o),
(660,316,cs),
(660,484,o),
(733,521,o),
(855,521,cs),
(992,521,o),
(1079,456,o),
(1089,296,c)
);
}
);
width = 1844;
}
);
}
{
glyphname = "ba_tedung-bali";
layers = (
{
layerId = m01;
shapes = (
{
ref = "ba-bali";
},
{
closed = 1;
nodes = (
(1644,219,l),
(1649,278,o),
(1669,522,o),
(1886,522,cs),
(1996,522,o),
(2076,457,o),
(2076,330,cs),
(2076,202,o),
(2005,159,o),
(1951,159,cs),
(1911,159,o),
(1886,175,o),
(1886,202,cs),
(1886,224,o),
(1902,245,o),
(1925,243,c),
(1888,368,l),
(1791,390,o),
(1696,310,o),
(1696,186,cs),
(1696,102,o),
(1746,-16,o),
(1948,-16,cs),
(2096,-16,o),
(2271,67,o),
(2271,330,cs),
(2271,602,o),
(2101,716,o),
(1906,716,cs),
(1636,716,o),
(1574,501,o),
(1570,375,c)
);
}
);
width = 2291;
}
);
}
{
glyphname = "ca-bali.below.alt";
layers = (
{
anchors = (
{
name = _bottom;
pos = (1464,0);
},
{
name = _nya_gantungan;
pos = (848,0);
},
{
name = bottom;
pos = (1367,-791);
}
);
layerId = m01;
shapes = (
{
closed = 0;
nodes = (
(94,-799,l)
);
},
{
closed = 1;
nodes = (
(920,-617,l),
(848,-618,ls),
(676,-618,o),
(773,-257,o),
(814,-91,c),
(614,-91,l),
(548,-238,o),
(423,-791,o),
(766,-791,cs),
(920,-791,l)
);
},
{
closed = 1;
nodes = (
(890,-791,l),
(1072,-791,l),
(1169,-668,l),
(1169,-614,l),
(890,-617,l)
);
},
{
closed = 1;
nodes = (
(1112,-272,o),
(1036,-280,o),
(1036,-265,cs),
(1036,-254,o),
(1065,-251,o),
(1102,-252,cs),
(1199,-255,o),
(1269,-297,o),
(1269,-423,cs),
(1269,-791,l),
(1464,-791,l),
(1464,-425,ls),
(1464,-291,o),
(1440,-75,o),
(1112,-75,cs),
(998,-75,o),
(828,-108,o),
(828,-330,cs),
(828,-373,l),
(1043,-373,o),
(1034,-531,o),
(967,-675,c),
(1072,-791,l),
(1169,-668,l),
(1216,-506,o),
(1203,-404,o),
(1164,-347,cs)
);
},
{
closed = 1;
nodes = (
(20,-716,l),
(62,-779,o),
(115,-807,o),
(213,-807,cs),
(568,-807,o),
(536,-360,o),
(415,-91,c),
(220,-91,l),
(280,-220,o),
(372,-618,o),
(206,-618,cs),
(172,-618,o),
(147,-599,o),
(127,-572,c)
);
}
);
width = 1484;
}
);
}
{
glyphname = "caLaca-bali.alt";
layers = (
{
anchors = (
{
name = bottom;
pos = (1345,0);
},
{
name = top;
pos = (732,800);
}
);
layerId = m01;
shapes = (
{
closed = 1;
nodes = (
(1146,442,ls),
(1146,477,o),
(1143,521,o),
(1185,521,cs),
(1247,521,o),
(1247,477,o),
(1247,286,cs),
(1247,0,l),
(1442,0,l),
(1442,388,ls),
(1442,660,o),
(1289,716,o),
(1157,716,cs),
(1051,716,o),
(951,681,o),
(951,474,cs),
(951,123,l),
(1146,123,l)
);
},
{
closed = 1;
nodes = (
(1049,0,l),
(1146,123,l),
(951,175,l),
(852,175,l),
(777,175,o),
(761,207,o),
(761,245,cs),
(761,424,ls),
(761,658,o),
(561,714,o),
(417,714,cs),
(103,714,o),
(20,488,o),
(20,329,cs),
(20,200,o),
(69,-16,o),
(293,-16,cs),
(439,-16,o),
(489,91,o),
(489,173,cs),
(489,316,o),
(370,344,o),
(286,289,c),
(286,242,l),
(326,242,o),
(336,179,o),
(291,179,cs),
(249,179,o),
(215,239,o),
(215,329,cs),
(215,411,o),
(241,520,o),
(405,520,cs),
(495,520,o),
(565,484,o),
(566,329,cs),
(566,223,ls),
(566,95,o),
(626,0,o),
(792,0,cs)
);
}
);
width = 1462;
}
);
}
{
glyphname = "caLaca-bali.below";
layers = (
{
anchors = (
{
name = _bottom;
pos = (1187,0);
},
{
name = _nya_gantungan;
pos = (624,0);
},
{
name = bottom;
pos = (1187,-791);
}
);
layerId = m01;
shapes = (
{
closed = 1;
nodes = (
(994,-617,l),
(818,-616,ls),
(772,-616,o),
(761,-589,o),
(761,-547,cs),
(761,-365,ls),
(761,-131,o),
(561,-75,o),
(417,-75,cs),
(103,-75,o),
(20,-301,o),
(20,-460,cs),
(20,-589,o),
(69,-805,o),
(293,-805,cs),
(439,-805,o),
(489,-698,o),
(489,-616,cs),
(489,-473,o),
(370,-445,o),
(286,-500,c),
(286,-547,l),
(326,-547,o),
(336,-610,o),
(291,-610,cs),
(249,-610,o),
(215,-550,o),
(215,-460,cs),
(215,-378,o),
(241,-269,o),
(405,-269,cs),
(495,-269,o),
(565,-305,o),
(566,-460,cs),
(566,-566,ls),
(566,-694,o),
(626,-791,o),
(792,-791,cs),
(994,-791,l)
);
},
{
closed = 1;
nodes = (
(909,-255,l),
(1022,-301,o),
(983,-593,o),
(929,-791,c),
(1074,-791,l),
(1171,-668,l),
(1212,-367,o),
(1176,-146,o),
(1025,-74,c)
);
}
);
width = 1207;
}
);
}
{
category = Mark;
glyphname = "caLaca-bali.below_suku-bali.below";
layers = (
{
anchors = (
{
name = _bottom;
pos = (1187,0);
},
{
name = _nya_gantungan;
pos = (624,0);
},
{
name = bottom;
pos = (1187,-791);
}
);
layerId = m01;
shapes = (
{
closed = 1;
nodes = (
(1171,-668,l),
(1001,-668,l),
(1001,-884,ls),
(1001,-1170,o),
(1001,-1428,o),
(891,-1428,cs),
(783,-1428,o),
(937,-1095,o),
(941,-928,c),
(769,-928,l),
(751,-1088,o),
(697,-1200,o),
(672,-1356,cs),
(648,-1508,o),
(739,-1583,o),
(869,-1583,cs),
(1200,-1583,o),
(1171,-1171,o),
(1171,-884,cs)
);
},
{
closed = 1;
nodes = (
(994,-791,l),
(994,-617,l),
(818,-616,ls),
(772,-616,o),
(761,-589,o),
(761,-547,cs),
(761,-365,ls),
(761,-131,o),
(561,-75,o),
(417,-75,cs),
(103,-75,o),
(20,-301,o),
(20,-460,cs),
(20,-589,o),
(69,-805,o),
(293,-805,cs),
(439,-805,o),
(489,-698,o),
(489,-616,cs),
(489,-473,o),
(370,-445,o),
(286,-500,c),
(286,-547,l),
(326,-547,o),
(336,-610,o),
(291,-610,cs),
(249,-610,o),
(215,-550,o),
(215,-460,cs),
(215,-378,o),
(241,-269,o),
(405,-269,cs),
(495,-269,o),
(565,-305,o),
(566,-460,cs),
(566,-566,ls),
(566,-694,o),
(626,-791,o),
(792,-791,cs)
);
},
{
closed = 1;
nodes = (
(909,-255,l),
(1022,-301,o),
(983,-593,o),
(929,-791,c),
(1074,-791,l),
(1171,-668,l),
(1171,-367,o),
(1176,-146,o),
(1025,-74,c)
);
}
);
width = 1192;
}
);
subCategory = Nonspacing;
}
{
glyphname = "caLaca_tedung-bali";
layers = (
{
anchors = (
{
name = bottom;
pos = (1441,0);
},
{
name = top;
pos = (732,800);
}
);
layerId = m01;
shapes = (
{
closed = 1;
nodes = (
(1049,0,l),
(1146,123,l),
(951,175,l),
(852,175,l),
(777,175,o),
(761,207,o),
(761,245,cs),
(761,424,ls),
(761,658,o),
(561,714,o),
(417,714,cs),
(103,714,o),
(20,488,o),
(20,329,cs),
(20,200,o),
(69,-16,o),
(293,-16,cs),
(439,-16,o),
(489,91,o),
(489,173,cs),
(489,316,o),
(370,344,o),
(286,289,c),
(286,242,l),
(326,242,o),
(336,179,o),
(291,179,cs),
(249,179,o),
(215,239,o),
(215,329,cs),
(215,411,o),
(241,520,o),
(405,520,cs),
(495,520,o),
(565,484,o),
(566,329,cs),
(566,223,ls),
(566,95,o),
(626,0,o),
(792,0,cs)
);
},
{
closed = 1;
nodes = (
(1146,123,l),
(1146,267,ls),
(1146,370,o),
(1171,522,o),
(1365,522,cs),
(1498,522,o),
(1578,457,o),
(1578,330,cs),
(1578,202,o),
(1507,159,o),
(1453,159,cs),
(1413,159,o),
(1388,175,o),
(1388,202,cs),
(1388,224,o),
(1404,245,o),
(1427,243,c),
(1390,368,l),
(1293,390,o),
(1198,310,o),
(1198,186,cs),
(1198,102,o),
(1248,-16,o),
(1450,-16,cs),
(1598,-16,o),
(1773,67,o),
(1773,330,cs),
(1773,602,o),
(1561,716,o),
(1365,716,cs),
(1122,716,o),
(951,579,o),
(951,337,cs),
(951,135,l)
);
}
);
width = 1793;
}
);
}
{
glyphname = "ca_tedung-bali";
layers = (
{
guides = (
{
pos = (1123,296);
}
);
layerId = m01;
shapes = (
{
closed = 1;
nodes = (
(1165,296,l),
(1173,500,o),
(1104,716,o),
(838,716,cs),
(752,716,o),
(562,683,o),
(562,461,cs),
(562,418,l),
(777,418,o),
(768,260,o),
(701,116,c),
(687,61,l),
(806,0,l),
(903,123,l),
(950,285,o),
(937,387,o),
(898,444,cs),
(846,519,o),
(770,511,o),
(770,526,cs),
(770,537,o),
(806,539,o),
(827,539,cs),
(919,539,o),
(1028,495,o),
(1029,296,c)
);
},
{
closed = 1;
nodes = (
(760,168,ls),
(529,170,o),
(474,391,o),
(256,391,cs),
(63,391,o),
(20,283,o),
(20,182,cs),
(20,67,o),
(111,-18,o),
(225,-18,cs),
(441,-18,o),
(473,203,o),
(473,359,cs),
(473,583,o),
(383,716,o),
(236,716,cs),
(104,716,o),
(30,634,o),
(30,528,cs),
(30,435,o),
(135,405,o),
(212,435,c),
(212,504,l),
(201,504,o),
(185,512,o),
(185,528,cs),
(185,543,o),
(199,555,o),
(219,555,cs),
(331,555,o),
(356,144,o),
(237,144,cs),
(210,144,o),
(200,159,o),
(200,190,cs),
(200,223,o),
(222,252,o),
(256,252,cs),
(407,252,o),
(454,0,o),
(764,0,cs),
(806,0,l),
(806,168,l)
);
},
{
closed = 1;
nodes = (
(1169,296,l),
(1188,390,o),
(1241,522,o),
(1401,522,cs),
(1511,522,o),
(1591,457,o),
(1591,330,cs),
(1591,202,o),
(1520,159,o),
(1466,159,cs),
(1426,159,o),
(1401,175,o),
(1401,202,cs),
(1401,224,o),
(1417,245,o),
(1440,243,c),
(1403,368,l),
(1306,390,o),
(1211,310,o),
(1211,186,cs),
(1211,102,o),
(1261,-16,o),
(1463,-16,cs),
(1611,-16,o),
(1786,67,o),
(1786,330,cs),
(1786,602,o),
(1616,716,o),
(1421,716,cs),
(1151,716,o),
(1089,501,o),
(1085,375,c),
(1122,296,l)
);
}
);
width = 1806;
}
);
}
{
glyphname = "da-bali.alt";
kernLeft = ha;
layers = (
{
anchors = (
{
name = bottom;
pos = (1233,0);
},
{
name = top;
pos = (747,800);
}
);
layerId = m01;
shapes = (
{
closed = 1;
nodes = (
(452,411,l),
(457,449,o),
(460,486,o),
(460,529,cs),
(460,634,o),
(386,716,o),
(231,716,cs),
(80,716,o),
(20,608,o),
(20,511,cs),
(20,393,o),
(112,338,o),
(212,411,c),
(216,455,l),
(172,455,o),
(177,520,o),
(220,520,cs),
(262,520,o),
(264,475,o),
(253,411,c)
);
},
{
closed = 1;
nodes = (
(766,252,ls),
(854,252,o),
(899,238,o),
(899,195,cs),
(899,166,o),
(890,146,o),
(833,146,cs),
(764,146,o),
(726,195,o),
(711,252,c)
);
},
{
closed = 1;
nodes = (
(253,411,l),
(245,364,o),
(231,307,o),
(221,250,cs),
(209,180,o),
(166,-16,o),
(373,-16,cs),
(516,-16,o),
(585,192,o),
(710,243,c),
(689,395,l),
(628,370,o),
(546,330,o),
(499,268,cs),
(446,199,o),
(407,196,o),
(423,268,cs),
(436,327,o),
(446,369,o),
(452,411,c)
);
},
{
closed = 1;
nodes = (
(1046,520,o),
(1134,465,o),
(1134,271,cs),
(1134,0,l),
(1329,0,l),
(1329,267,ls),
(1329,601,o),
(1170,714,o),
(899,715,cs),
(630,716,o),
(508,586,o),
(508,316,cs),
(508,195,o),
(577,-16,o),
(825,-16,cs),
(1038,-16,o),
(1086,90,o),
(1086,205,cs),
(1086,370,o),
(929,411,o),
(798,411,cs),
(721,411,l),
(745,497,o),
(807,520,o),
(926,520,cs)
);
}
);
width = 1350;
}
);
}
{
glyphname = "daMadu-bali.alt";
layers = (
{
anchors = (
{
name = bottom;
pos = (1309,0);
},
{
name = top;
pos = (695,800);
}
);
layerId = m01;
shapes = (
{
closed = 1;
nodes = (
(436,292,l),
(451,376,o),
(460,457,o),
(460,529,cs),
(460,634,o),
(386,716,o),
(231,716,cs),
(80,716,o),
(20,608,o),
(20,511,cs),
(20,393,o),
(112,338,o),
(212,411,c),
(216,455,l),
(172,455,o),
(177,520,o),
(220,520,cs),
(285,520,o),
(253,413,o),
(229,292,c)
);
},
{
closed = 1;
nodes = (
(1406,354,ls),
(1406,578,o),
(1312,716,o),
(1096,716,cs),
(930,716,o),
(809,657,o),
(809,461,cs),
(809,348,l),
(927,348,o),
(955,316,o),
(955,264,c),
(1150,276,l),
(1150,345,ls),
(1150,492,o),
(1020,434,o),
(1020,481,cs),
(1020,527,o),
(1159,561,o),
(1194,464,cs),
(1221,376,o),
(1211,264,o),
(1211,135,cs),
(1211,0,l),
(1406,0,l)
);
},
{
closed = 1;
nodes = (
(955,265,l),
(955,221,o),
(920,179,o),
(862,179,cs),
(795,179,o),
(744,225,o),
(744,280,cs),
(744,346,l),
(549,346,l),
(549,279,ls),
(549,225,o),
(532,179,o),
(481,179,cs),
(455,179,o),
(419,193,o),
(436,292,cs),
(441,321,l),
(235,320,l),
(221,250,ls),
(192,105,o),
(251,-16,o),
(424,-16,cs),
(550,-16,o),
(601,71,o),
(647,115,c),
(683,71,o),
(727,-16,o),
(873,-16,cs),
(1082,-16,o),
(1150,115,o),
(1150,285,c)
);
}
);
width = 1426;
}
);
}
{
glyphname = "daMadu-bali.below.alt";
layers = (
{
anchors = (
{
name = _bottom;
pos = (1262,0);
},
{
name = _nya_gantungan;
pos = (565,0);
},
{
name = bottom;
pos = (1147,-791);
}
);
layerId = m01;
shapes = (
{
closed = 1;
nodes = (
(793,-526,l),
(793,-570,o),
(751,-612,o),
(693,-612,cs),
(626,-612,o),
(582,-566,o),
(582,-511,cs),
(582,-445,l),
(387,-445,l),
(387,-512,ls),
(387,-566,o),
(350,-612,o),
(302,-612,cs),
(256,-612,o),
(213,-572,o),
(215,-450,cs),
(216,-391,o),
(256,-248,o),
(306,-175,c),
(130,-91,l),
(67,-191,o),
(20,-319,o),
(20,-450,cs),
(20,-656,o),
(99,-807,o),
(280,-807,cs),
(388,-807,o),
(449,-720,o),
(485,-676,c),
(521,-720,o),
(565,-807,o),
(711,-807,cs),
(920,-807,o),
(988,-676,o),
(988,-506,c)
);
},
{
closed = 1;
nodes = (
(1244,-437,ls),
(1244,-213,o),
(1150,-75,o),
(958,-75,cs),
(768,-75,o),
(647,-134,o),
(647,-330,cs),
(647,-443,l),
(765,-443,o),
(793,-475,o),
(793,-527,c),
(988,-515,l),
(988,-446,ls),
(988,-299,o),
(858,-357,o),
(858,-310,cs),
(858,-264,o),
(997,-230,o),
(1032,-327,cs),
(1059,-415,o),
(1049,-527,o),
(1049,-656,cs),
(1049,-791,l),
(1244,-791,l)
);
}
);
width = 1282;
}
);
}
{
glyphname = "daMadu-bali.below";
layers = (
{
anchors = (
{
name = _bottom;
pos = (1245,0);
},
{
name = _nya_gantungan;
pos = (565,0);
},
{
name = bottom;
pos = (1245,-791);
}
);
layerId = m01;
shapes = (
{
closed = 1;
nodes = (
(988,-506,l),
(988,-456,ls),
(988,-290,o),
(858,-357,o),
(858,-310,cs),
(858,-264,o),
(997,-230,o),
(1032,-327,cs),
(1063,-427,o),
(1060,-585,o),
(1004,-791,c),
(1204,-791,l),
(1290,-398,o),
(1256,-75,o),
(961,-75,cs),
(771,-75,o),
(647,-134,o),
(647,-330,cs),
(647,-443,l),
(765,-443,o),
(793,-475,o),
(793,-527,c)
);
},
{
closed = 1;
nodes = (
(793,-526,l),
(793,-570,o),
(751,-612,o),
(693,-612,cs),
(626,-612,o),
(582,-566,o),
(582,-511,cs),
(582,-445,l),
(387,-445,l),
(387,-512,ls),
(387,-566,o),
(350,-612,o),
(302,-612,cs),
(256,-612,o),
(213,-572,o),
(215,-450,cs),
(216,-391,o),
(256,-248,o),
(306,-175,c),
(130,-91,l),
(67,-191,o),
(20,-319,o),
(20,-450,cs),
(20,-656,o),
(99,-807,o),
(280,-807,cs),
(388,-807,o),
(449,-720,o),
(485,-676,c),
(521,-720,o),
(565,-807,o),
(711,-807,cs),
(920,-807,o),
(988,-676,o),
(988,-506,c)
);
}
);
width = 1265;
}
);
}
{
glyphname = "daMadu_tedung-bali";
kernLeft = ha;
kernRight = tedung;
layers = (
{
anchors = (
{
name = bottom;
pos = (1397,0);
},
{
name = top;
pos = (695,800);
}
);
guides = (
{
pos = (1489,296);
}
);
layerId = m01;
shapes = (
{
closed = 1;
nodes = (
(1357,296,l),
(1375,500,o),
(1308,716,o),
(1082,716,cs),
(923,716,o),
(809,657,o),
(809,461,cs),
(809,348,l),
(927,348,o),
(955,316,o),
(955,264,c),
(955,265,l),
(1150,285,l),
(1150,335,ls),
(1150,501,o),
(1020,434,o),
(1020,481,cs),
(1020,527,o),
(1165,520,o),
(1201,444,cs),
(1218,408,o),
(1215,363,o),
(1213,296,c)
);
},
{
closed = 1;
nodes = (
(436,292,l),
(451,376,o),
(460,457,o),
(460,529,cs),
(460,634,o),
(386,716,o),
(231,716,cs),
(80,716,o),
(20,608,o),
(20,511,cs),
(20,393,o),
(112,338,o),
(212,411,c),
(216,455,l),
(172,455,o),
(177,520,o),
(220,520,cs),
(285,520,o),
(253,413,o),
(229,292,c)
);
},
{
closed = 1;
nodes = (
(1367,296,l),
(1386,390,o),
(1439,522,o),
(1599,522,cs),
(1709,522,o),
(1789,457,o),
(1789,330,cs),
(1789,202,o),
(1718,159,o),
(1664,159,cs),
(1624,159,o),
(1599,175,o),
(1599,202,cs),
(1599,224,o),
(1615,245,o),
(1638,243,c),
(1601,368,l),
(1504,390,o),
(1409,310,o),
(1409,186,cs),
(1409,102,o),
(1459,-16,o),
(1661,-16,cs),
(1809,-16,o),
(1984,67,o),
(1984,330,cs),
(1984,602,o),
(1814,716,o),
(1619,716,cs),
(1349,716,o),
(1287,501,o),
(1283,375,c),
(1320,296,l)
);
},
{
closed = 1;
nodes = (
(955,265,l),
(955,221,o),
(920,179,o),
(862,179,cs),
(795,179,o),
(744,225,o),
(744,280,cs),
(744,346,l),
(549,346,l),
(549,279,ls),
(549,225,o),
(532,186,o),
(485,186,cs),
(444,186,o),
(424,221,o),
(436,292,cs),
(441,321,l),
(235,320,l),
(221,250,ls),
(192,105,o),
(251,-16,o),
(424,-16,cs),
(550,-16,o),
(601,71,o),
(647,115,c),
(683,71,o),
(727,-16,o),
(873,-16,cs),
(1082,-16,o),
(1150,115,o),
(1150,285,c)
);
}
);
width = 2004;
}
);
}
{
glyphname = "daMurdaAlpaprana-bali.alt";
layers = (
{
anchors = (
{
name = bottom;
pos = (1255,0);
},
{
name = top;
pos = (695,800);
}
);
layerId = m01;
shapes = (
{
closed = 1;
nodes = (
(436,292,l),
(451,376,o),
(460,457,o),
(460,529,cs),
(460,634,o),
(386,716,o),
(231,716,cs),
(80,716,o),
(20,608,o),
(20,511,cs),
(20,393,o),
(112,338,o),
(212,411,c),
(216,455,l),
(172,455,o),
(177,520,o),
(220,520,cs),
(285,520,o),
(253,413,o),
(229,292,c)
);
},
{
closed = 1;
nodes = (
(1056,442,ls),
(1056,477,o),
(1053,521,o),
(1095,521,cs),
(1157,521,o),
(1157,477,o),
(1157,286,cs),
(1157,0,l),
(1352,0,l),
(1352,388,ls),
(1352,660,o),
(1199,716,o),
(1067,716,cs),
(961,716,o),
(861,681,o),
(861,474,cs),
(861,225,l),
(1056,225,l)
);
},
{
closed = 1;
nodes = (
(661,346,l),
(549,346,l),
(549,264,ls),
(549,225,o),
(532,189,o),
(490,189,cs),
(464,189,o),
(421,206,o),
(436,292,cs),
(441,321,l),
(235,320,l),
(221,250,ls),
(192,105,o),
(251,-16,o),
(424,-16,cs),
(550,-16,o),
(601,71,o),
(647,115,c),
(661,104,l)
);
},
{
closed = 1;
nodes = (
(630,102,l),
(647,115,l),
(693,71,o),
(743,-16,o),
(867,-16,cs),
(983,-16,o),
(1056,75,o),
(1056,241,c),
(1056,301,l),
(861,301,l),
(861,285,l),
(861,197,o),
(833,189,o),
(799,189,cs),
(748,189,o),
(744,247,o),
(744,297,cs),
(744,346,l),
(630,346,l)
);
}
);
width = 1372;
}
);
}
{
glyphname = "daMurdaAlpaprana-bali.below.alt";
layers = (
{
anchors = (
{
name = _bottom;
pos = (1188,0);
},
{
name = _nya_gantungan;
pos = (565,0);
},
{
name = bottom;
pos = (1090,-791);
}
);
layerId = m01;
shapes = (
{
closed = 1;
nodes = (
(892,-349,ls),
(892,-314,o),
(889,-270,o),
(931,-270,cs),
(993,-270,o),
(993,-314,o),
(993,-505,cs),
(993,-791,l),
(1188,-791,l),
(1188,-403,ls),
(1188,-131,o),
(1035,-75,o),
(903,-75,cs),
(797,-75,o),
(697,-110,o),
(697,-317,cs),
(697,-566,l),
(892,-566,l)
);
},
{
closed = 1;
nodes = (
(522,-445,l),
(387,-445,l),
(387,-512,ls),
(387,-566,o),
(350,-612,o),
(302,-612,cs),
(256,-612,o),
(213,-572,o),
(215,-450,cs),
(216,-391,o),
(256,-248,o),
(306,-175,c),
(130,-91,l),
(67,-191,o),
(20,-319,o),
(20,-450,cs),
(20,-656,o),
(99,-807,o),
(280,-807,cs),
(388,-807,o),
(449,-720,o),
(485,-676,c)
);
},
{
closed = 1;
nodes = (
(485,-676,l),
(521,-720,o),
(579,-807,o),
(703,-807,cs),
(819,-807,o),
(892,-716,o),
(892,-550,c),
(892,-490,l),
(697,-490,l),
(697,-506,l),
(697,-574,o),
(689,-612,o),
(643,-612,cs),
(584,-612,o),
(580,-544,o),
(580,-494,cs),
(580,-445,l),
(466,-445,l)
);
}
);
width = 1208;
}
);
}
{
glyphname = "daMurdaAlpaprana-bali.below";
layers = (
{
anchors = (
{
name = _bottom;
pos = (1188,0);
},
{
name = _nya_gantungan;
pos = (565,0);
},
{
name = bottom;
pos = (1188,-791);
}
);
layerId = m01;
shapes = (
{
closed = 1;
nodes = (
(892,-495,l),
(892,-330,ls),
(892,-283,o),
(903,-270,o),
(934,-270,cs),
(1035,-270,o),
(1012,-585,o),
(956,-791,c),
(1146,-791,l),
(1232,-398,o),
(1198,-75,o),
(903,-75,cs),
(797,-75,o),
(697,-110,o),
(697,-317,cs),
(697,-558,l)
);
},
{
closed = 1;
nodes = (
(522,-445,l),
(387,-445,l),
(387,-512,ls),
(387,-566,o),
(350,-612,o),
(302,-612,cs),
(256,-612,o),
(213,-572,o),
(215,-450,cs),
(216,-391,o),
(256,-248,o),
(306,-175,c),
(130,-91,l),
(67,-191,o),
(20,-319,o),
(20,-450,cs),
(20,-656,o),
(99,-807,o),
(280,-807,cs),
(388,-807,o),
(449,-720,o),
(485,-676,c)
);
},
{
closed = 1;
nodes = (
(485,-676,l),
(521,-720,o),
(579,-807,o),
(703,-807,cs),
(819,-807,o),
(892,-716,o),
(892,-550,c),
(892,-490,l),
(697,-490,l),
(697,-506,l),
(697,-574,o),
(689,-612,o),
(643,-612,cs),
(584,-612,o),
(580,-544,o),
(580,-494,cs),
(580,-445,l),
(466,-445,l)
);
}
);
width = 1207;
}
);
}
{
glyphname = "daMurdaMahaprana-bali.below";
layers = (
{
anchors = (
{
name = _bottom;
pos = (1039,0);
},
{
name = _nya_gantungan;
pos = (453,0);
},
{
name = bottom;
pos = (941,-791);
}
);
guides = (
{
angle = 90;
pos = (941,119);
}
);
layerId = m01;
shapes = (
{
closed = 1;
nodes = (
(522,-445,l),
(387,-445,l),
(387,-512,ls),
(387,-566,o),
(350,-612,o),
(302,-612,cs),
(256,-612,o),
(213,-572,o),
(215,-450,cs),
(216,-391,o),
(256,-248,o),
(306,-175,c),
(130,-91,l),
(67,-191,o),
(20,-319,o),
(20,-450,cs),
(20,-656,o),
(99,-807,o),
(280,-807,cs),
(388,-807,o),
(449,-720,o),
(485,-676,c)
);
},
{
closed = 1;
nodes = (
(521,-720,o),
(582,-807,o),
(690,-807,cs),
(871,-807,o),
(950,-656,o),
(950,-450,cs),
(950,-319,o),
(903,-191,o),
(840,-91,c),
(664,-175,l),
(714,-248,o),
(754,-391,o),
(755,-450,cs),
(757,-572,o),
(714,-612,o),
(668,-612,cs),
(620,-612,o),
(583,-566,o),
(583,-512,cs),
(583,-445,l),
(448,-445,l),
(485,-676,l)
);
}
);
width = 970;
}
);
}
{
category = Mark;
glyphname = "daMurdaMahaprana-bali.below_suku-bali.below";
layers = (
{
anchors = (
{
name = _bottom;
pos = (1039,0);
},
{
name = _nya_gantungan;
pos = (453,0);
},
{
name = bottom;
pos = (941,-791);
}
);
layerId = m01;
shapes = (
{
closed = 1;
nodes = (
(1042,-1583,o),
(1018,-1171,o),
(1008,-884,cs),
(989,-352,o),
(910,-209,o),
(847,-102,c),
(827,-619,l),
(840,-701,o),
(843,-753,o),
(843,-884,cs),
(843,-1170,o),
(843,-1428,o),
(733,-1428,cs),
(625,-1428,o),
(779,-1095,o),
(783,-928,c),
(611,-928,l),
(593,-1088,o),
(539,-1200,o),
(514,-1356,cs),
(490,-1508,o),
(581,-1583,o),
(711,-1583,cs)
);
},
{
ref = "daMurdaMahaprana-bali.below";
}
);
width = 1033;
}
);
subCategory = Nonspacing;
}
{
glyphname = "da_tedung-bali";
kernLeft = ha;
kernRight = tedung;
layers = (
{
anchors = (
{
name = bottom;
pos = (1313,0);
},
{
name = top;
pos = (717,800);
}
);
layerId = m01;
shapes = (
{
closed = 1;
nodes = (
(452,411,l),
(457,449,o),
(460,486,o),
(460,529,cs),
(460,634,o),
(386,716,o),
(231,716,cs),
(80,716,o),
(20,608,o),
(20,511,cs),
(20,393,o),
(112,338,o),
(212,411,c),
(216,455,l),
(172,455,o),
(177,520,o),
(220,520,cs),
(262,520,o),
(264,475,o),
(253,411,c)
);
},
{
closed = 1;
nodes = (
(253,411,l),
(245,364,o),
(231,307,o),
(221,250,cs),
(209,180,o),
(166,-16,o),
(373,-16,cs),
(516,-16,o),
(585,192,o),
(710,243,c),
(689,395,l),
(628,370,o),
(546,330,o),
(499,268,cs),
(446,199,o),
(407,196,o),
(423,268,cs),
(436,327,o),
(446,369,o),
(452,411,c)
);
},
{
closed = 1;
nodes = (
(1250,296,l),
(1269,390,o),
(1322,522,o),
(1482,522,cs),
(1592,522,o),
(1672,457,o),
(1672,330,cs),
(1672,202,o),
(1601,159,o),
(1547,159,cs),
(1507,159,o),
(1482,175,o),
(1482,202,cs),
(1482,224,o),
(1498,245,o),
(1521,243,c),
(1484,368,l),
(1387,390,o),
(1292,310,o),
(1292,186,cs),
(1292,102,o),
(1342,-16,o),
(1544,-16,cs),
(1692,-16,o),
(1867,67,o),
(1867,330,cs),
(1867,602,o),
(1697,716,o),
(1502,716,cs),
(1232,716,o),
(1170,501,o),
(1166,375,c),
(1203,296,l)
);
},
{
closed = 1;
nodes = (
(1243,296,l),
(1242,578,o),
(1157,716,o),
(899,716,cs),
(630,716,o),
(508,586,o),
(508,316,cs),
(508,195,o),
(577,-16,o),
(818,-16,cs),
(1031,-16,o),
(1079,90,o),
(1079,205,cs),
(1079,370,o),
(922,411,o),
(791,411,cs),
(678,411,o),
(594,354,o),
(515,281,c),
(582,164,l),
(649,214,o),
(678,252,o),
(766,252,cs),
(854,252,o),
(899,238,o),
(899,195,cs),
(899,166,o),
(890,146,o),
(833,146,cs),
(740,146,o),
(703,234,o),
(703,316,cs),
(703,484,o),
(776,521,o),
(898,521,cs),
(1035,521,o),
(1122,456,o),
(1132,296,c)
);
}
);
width = 1887;
}
);
}
{
glyphname = "ekara-bali.alt";
layers = (
{
anchors = (
{
name = bottom;
pos = (683,0);
}
);
layerId = m01;
shapes = (
{
closed = 1;
nodes = (
(229,218,l),
(204,261,o),
(175,521,o),
(433,521,c),
(433,716,l),
(-83,716,o),
(-84,-16,o),
(257,-16,c),
(344,123,l),
(344,174,o),
(361,234,o),
(466,234,cs),
(569,234,o),
(585,165,o),
(586,90,c),
(586,0,l),
(781,0,l),
(781,93,l),
(784,339,o),
(680,429,o),
(493,429,cs),
(336,429,o),
(251,321,o),
(245,218,c)
);
}
);
width = 801;
}
);
}
{
glyphname = "ga-bali.below.alt";
layers = (
{
anchors = (
{
name = _bottom;
pos = (1317,0);
},
{
name = _nya_gantungan;
pos = (624,0);
},
{
name = bottom;
pos = (1220,-791);
},
{
name = cecek_bangkiang;
pos = (891,-362);
}
);
layerId = m01;
shapes = (
{
closed = 1;
nodes = (
(717,-668,l),
(674,-443,o),
(670,-270,o),
(910,-270,cs),
(1088,-270,o),
(1122,-353,o),
(1122,-464,cs),
(1122,-791,l),
(1317,-791,l),
(1317,-427,ls),
(1317,-222,o),
(1239,-75,o),
(910,-75,cs),
(445,-75,o),
(429,-340,o),
(550,-791,c),
(620,-791,l)
);
},
{
closed = 1;
nodes = (
(436,-499,l),
(451,-415,o),
(460,-334,o),
(460,-262,cs),
(460,-157,o),
(386,-75,o),
(231,-75,cs),
(80,-75,o),
(20,-183,o),
(20,-280,cs),
(20,-398,o),
(112,-453,o),
(212,-380,c),
(216,-336,l),
(172,-336,o),
(177,-271,o),
(220,-271,cs),
(285,-271,o),
(253,-378,o),
(229,-499,c)
);
},
{
closed = 1;
nodes = (
(229,-499,l),
(226,-513,o),
(223,-527,o),
(221,-541,cs),
(209,-611,o),
(164,-791,o),
(386,-791,cs),
(585,-791,l),
(585,-616,l),
(469,-616,ls),
(433,-616,o),
(416,-605,o),
(423,-569,cs),
(436,-499,l)
);
}
);
width = 1337;
}
);
}
{
glyphname = "ga-bali.below";
layers = (
{
anchors = (
{
name = _bottom;
pos = (1319,0);
},
{
name = _nya_gantungan;
pos = (624,0);
},
{
name = bottom;
pos = (1319,-791);
},
{
name = cecek_bangkiang;
pos = (893,-362);
}
);
layerId = m01;
shapes = (
{
closed = 1;
nodes = (
(436,-499,l),
(451,-415,o),
(460,-334,o),
(460,-262,cs),
(460,-157,o),
(386,-75,o),
(231,-75,cs),
(80,-75,o),
(20,-183,o),
(20,-280,cs),
(20,-398,o),
(112,-453,o),
(212,-380,c),
(216,-336,l),
(172,-336,o),
(177,-271,o),
(220,-271,cs),
(285,-271,o),
(253,-378,o),
(229,-499,c)
);
},
{
closed = 1;
nodes = (
(229,-499,l),
(226,-513,o),
(223,-527,o),
(221,-541,cs),
(209,-611,o),
(164,-791,o),
(386,-791,cs),
(585,-791,l),
(585,-616,l),
(469,-616,ls),
(433,-616,o),
(416,-605,o),
(423,-569,cs),
(436,-499,l)
);
},
{
closed = 1;
nodes = (
(620,-791,l),
(717,-668,l),
(674,-443,o),
(670,-270,o),
(910,-270,cs),
(1165,-270,o),
(1142,-585,o),
(1086,-791,c),
(1276,-791,l),
(1362,-398,o),
(1354,-75,o),
(910,-75,cs),
(511,-75,o),
(429,-340,o),
(550,-791,c)
);
}
);
width = 1339;
}
);
}
{
glyphname = "gaGora-bali.alt";
layers = (
{
anchors = (
{
name = bottom;
pos = (1851,0);
},
{
name = top;
pos = (948,800);
}
);
layerId = m01;
shapes = (
{
closed = 1;
nodes = (
(773,518,o),
(780,496,o),
(780,461,cs),
(780,297,l),
(975,297,l),
(975,467,ls),
(975,608,o),
(895,716,o),
(739,716,cs),
(579,716,o),
(504,608,o),
(504,467,cs),
(504,0,l),
(602,0,l),
(699,123,l),
(699,461,ls),
(699,496,o),
(705,518,o),
(739,518,cs)
);
},
{
closed = 1;
nodes = (
(436,292,l),
(451,376,o),
(460,457,o),
(460,529,cs),
(460,634,o),
(386,716,o),
(231,716,cs),
(80,716,o),
(20,608,o),
(20,511,cs),
(20,393,o),
(112,338,o),
(212,411,c),
(216,455,l),
(172,455,o),
(177,520,o),
(220,520,cs),
(285,520,o),
(253,413,o),
(229,292,c)
);
},
{
closed = 1;
nodes = (
(229,292,l),
(226,278,o),
(223,264,o),
(221,250,cs),
(209,180,o),
(164,0,o),
(386,0,cs),
(585,0,l),
(585,175,l),
(469,175,ls),
(433,175,o),
(416,186,o),
(423,222,cs),
(436,292,l)
);
},
{
closed = 1;
nodes = (
(1174,100,l),
(1179,105,o),
(1184,110,o),
(1189,115,c),
(1225,71,o),
(1269,-16,o),
(1415,-16,cs),
(1624,-16,o),
(1692,115,o),
(1692,285,c),
(1497,265,l),
(1497,221,o),
(1462,179,o),
(1404,179,cs),
(1337,179,o),
(1286,225,o),
(1286,280,cs),
(1286,346,l),
(1174,346,l)
);
},
{
closed = 1;
nodes = (
(1092,346,l),
(1092,297,ls),
(1092,247,o),
(1088,189,o),
(1037,189,cs),
(1003,189,o),
(975,197,o),
(975,285,c),
(975,301,l),
(780,301,l),
(780,241,l),
(780,75,o),
(853,-16,o),
(969,-16,cs),
(1093,-16,o),
(1143,71,o),
(1189,115,c),
(1200,126,l),
(1201,346,l)
);
},
{
closed = 1;
nodes = (
(1948,354,ls),
(1948,578,o),
(1854,716,o),
(1638,716,cs),
(1472,716,o),
(1351,657,o),
(1351,461,cs),
(1351,348,l),
(1469,348,o),
(1497,316,o),
(1497,264,c),
(1692,276,l),
(1692,345,ls),
(1692,492,o),
(1562,434,o),
(1562,481,cs),
(1562,527,o),
(1701,561,o),
(1736,464,cs),
(1763,376,o),
(1753,264,o),
(1753,135,cs),
(1753,0,l),
(1948,0,l)
);
}
);
width = 1968;
}
);
}
{
glyphname = "gaGora_tedung-bali";
kernLeft = ha;
kernRight = tedung;
layers = (
{
anchors = (
{
name = top;
pos = (1031,800);
}
);
layerId = m01;
shapes = (
{
closed = 1;
nodes = (
(773,518,o),
(780,496,o),
(780,461,cs),
(780,297,l),
(975,297,l),
(975,467,ls),
(975,608,o),
(895,716,o),
(739,716,cs),
(579,716,o),
(504,608,o),
(504,467,cs),
(504,0,l),
(602,0,l),
(699,123,l),
(699,461,ls),
(699,496,o),
(705,518,o),
(739,518,cs)
);
},
{
closed = 1;
nodes = (
(1899,296,l),
(1917,500,o),
(1850,716,o),
(1624,716,cs),
(1465,716,o),
(1351,657,o),
(1351,461,cs),
(1351,348,l),
(1469,348,o),
(1497,316,o),
(1497,264,c),
(1497,265,l),
(1692,285,l),
(1692,335,ls),
(1692,501,o),
(1562,434,o),
(1562,481,cs),
(1562,527,o),
(1707,520,o),
(1743,444,cs),
(1760,408,o),
(1757,363,o),
(1755,296,c)
);
},
{
closed = 1;
nodes = (
(1909,296,l),
(1928,390,o),
(1981,522,o),
(2141,522,cs),
(2251,522,o),
(2331,457,o),
(2331,330,cs),
(2331,202,o),
(2260,159,o),
(2206,159,cs),
(2166,159,o),
(2141,175,o),
(2141,202,cs),
(2141,224,o),
(2157,245,o),
(2180,243,c),
(2143,368,l),
(2046,390,o),
(1951,310,o),
(1951,186,cs),
(1951,102,o),
(2001,-16,o),
(2203,-16,cs),
(2351,-16,o),
(2526,67,o),
(2526,330,cs),
(2526,602,o),
(2356,716,o),
(2161,716,cs),
(1891,716,o),
(1829,501,o),
(1825,375,c),
(1862,296,l)
);
},
{
closed = 1;
nodes = (
(1174,100,l),
(1179,105,o),
(1184,110,o),
(1189,115,c),
(1225,71,o),
(1269,-16,o),
(1415,-16,cs),
(1624,-16,o),
(1692,115,o),
(1692,285,c),
(1497,265,l),
(1497,221,o),
(1462,179,o),
(1404,179,cs),
(1337,179,o),
(1286,225,o),
(1286,280,cs),
(1286,346,l),
(1174,346,l)
);
},
{
closed = 1;
nodes = (
(1092,346,l),
(1092,297,ls),
(1092,247,o),
(1088,189,o),
(1037,189,cs),
(1003,189,o),
(975,197,o),
(975,285,c),
(975,301,l),
(780,301,l),
(780,241,l),
(780,75,o),
(853,-16,o),
(969,-16,cs),
(1093,-16,o),
(1143,71,o),
(1189,115,c),
(1200,126,l),
(1201,346,l)
);
},
{
closed = 1;
nodes = (
(436,292,l),
(451,376,o),
(460,457,o),
(460,529,cs),
(460,634,o),
(386,716,o),
(231,716,cs),
(80,716,o),
(20,608,o),
(20,511,cs),
(20,393,o),
(112,338,o),
(212,411,c),
(216,455,l),
(172,455,o),
(177,520,o),
(220,520,cs),
(285,520,o),
(253,413,o),
(229,292,c)
);
},
{
closed = 1;
nodes = (
(229,292,l),
(226,278,o),
(223,264,o),
(221,250,cs),
(209,180,o),
(164,0,o),
(386,0,cs),
(585,0,l),
(585,175,l),
(469,175,ls),
(433,175,o),
(416,186,o),
(423,222,cs),
(436,292,l)
);
}
);
width = 2546;
}
);
}
{
glyphname = "ga_tedung-bali";
kernLeft = ha;
kernRight = tedung;
layers = (
{
anchors = (
{
name = bottom;
pos = (1631,0);
},
{
name = cecek_bangkiang;
pos = (903,429);
},
{
name = top;
pos = (831,800);
}
);
layerId = m01;
shapes = (
{
closed = 1;
nodes = (
(717,123,l),
(674,348,o),
(670,521,o),
(910,521,cs),
(1165,521,o),
(1142,206,o),
(1086,0,c),
(1276,0,l),
(1362,393,o),
(1354,716,o),
(910,716,cs),
(511,716,o),
(429,451,o),
(550,0,c),
(620,0,l)
);
},
{
closed = 1;
nodes = (
(1313,219,l),
(1318,278,o),
(1338,522,o),
(1555,522,cs),
(1665,522,o),
(1745,457,o),
(1745,330,cs),
(1745,202,o),
(1674,159,o),
(1620,159,cs),
(1580,159,o),
(1555,175,o),
(1555,202,cs),
(1555,224,o),
(1571,245,o),
(1594,243,c),
(1557,368,l),
(1460,390,o),
(1365,310,o),
(1365,186,cs),
(1365,102,o),
(1415,-16,o),
(1617,-16,cs),
(1765,-16,o),
(1940,67,o),
(1940,330,cs),
(1940,602,o),
(1770,716,o),
(1575,716,cs),
(1305,716,o),
(1243,501,o),
(1239,375,c)
);
},
{
closed = 1;
nodes = (
(436,292,l),
(451,376,o),
(460,457,o),
(460,529,cs),
(460,634,o),
(386,716,o),
(231,716,cs),
(80,716,o),
(20,608,o),
(20,511,cs),
(20,393,o),
(112,338,o),
(212,411,c),
(216,455,l),
(172,455,o),
(177,520,o),
(220,520,cs),
(285,520,o),
(253,413,o),
(229,292,c)
);
},
{
closed = 1;
nodes = (
(229,292,l),
(226,278,o),
(223,264,o),
(221,250,cs),
(209,180,o),
(164,0,o),
(386,0,cs),
(585,0,l),
(585,175,l),
(469,175,ls),
(433,175,o),
(416,186,o),
(423,222,cs),
(436,292,l)
);
}
);
width = 1960;
}
);
}
{
glyphname = "ha-bali.alt";
kernLeft = ha;
layers = (
{
anchors = (
{
name = bottom;
pos = (1424,0);
},
{
name = top;
pos = (892,800);
}
);
guides = (
{
angle = 90;
pos = (1521,486);
}
);
layerId = m01;
shapes = (
{
pos = (1149,0);
ref = _belakang_ha_lurus;
},
{
closed = 1;
nodes = (
(858,123,l),
(858,175,l),
(509,175,l),
(509,0,l),
(761,0,l)
);
},
{
closed = 1;
nodes = (
(229,292,l),
(226,278,o),
(223,264,o),
(221,250,cs),
(209,180,o),
(164,0,o),
(448,0,cs),
(585,0,l),
(585,175,l),
(525,175,ls),
(490,175,o),
(411,175,o),
(423,228,cs),
(428,250,o),
(432,271,o),
(436,292,c)
);
},
{
closed = 1;
nodes = (
(436,292,l),
(451,376,o),
(460,457,o),
(460,529,cs),
(460,634,o),
(386,716,o),
(231,716,cs),
(80,716,o),
(20,608,o),
(20,511,cs),
(20,393,o),
(112,338,o),
(212,411,c),
(216,455,l),
(172,455,o),
(177,520,o),
(220,520,cs),
(285,520,o),
(253,413,o),
(229,292,c)
);
},
{
closed = 1;
nodes = (
(858,123,l),
(858,381,ls),
(858,467,o),
(869,521,o),
(935,521,cs),
(1109,521,o),
(1043,229,o),
(1002,0,c),
(1192,0,l),
(1288,535,o),
(1215,716,o),
(924,716,cs),
(758,716,o),
(663,612,o),
(663,394,cs),
(663,123,l)
);
}
);
width = 1541;
}
);
}
{
glyphname = "ha-bali.below.alt";
layers = (
{
anchors = (
{
name = _bottom;
pos = (1234,0);
},
{
name = _nya_gantungan;
pos = (601,0);
},
{
name = bottom;
pos = (1139,-791);
},
{
name = top;
pos = (792,800);
}
);
layerId = m01;
shapes = (
{
closed = 1;
nodes = (
(858,-410,ls),
(858,-324,o),
(869,-270,o),
(935,-270,cs),
(987,-270,o),
(1041,-314,o),
(1041,-415,cs),
(1041,-791,l),
(1236,-791,l),
(1236,-403,ls),
(1236,-302,o),
(1201,-75,o),
(949,-75,cs),
(758,-75,o),
(663,-179,o),
(663,-317,cs),
(663,-668,l),
(858,-668,l)
);
},
{
closed = 1;
nodes = (
(858,-668,l),
(858,-616,l),
(509,-616,l),
(509,-791,l),
(761,-791,l)
);
},
{
closed = 1;
nodes = (
(436,-499,l),
(451,-415,o),
(460,-334,o),
(460,-262,cs),
(460,-157,o),
(386,-75,o),
(231,-75,cs),
(80,-75,o),
(20,-183,o),
(20,-280,cs),
(20,-398,o),
(112,-453,o),
(212,-380,c),
(216,-336,l),
(172,-336,o),
(177,-271,o),
(220,-271,cs),
(285,-271,o),
(253,-378,o),
(229,-499,c)
);
},
{
closed = 1;
nodes = (
(229,-499,l),
(226,-513,o),
(223,-527,o),
(221,-541,cs),
(209,-611,o),
(164,-791,o),
(386,-791,cs),
(585,-791,l),
(585,-616,l),
(469,-616,ls),
(433,-616,o),
(416,-605,o),
(423,-569,cs),
(436,-499,l)
);
}
);
width = 1244;
}
);
}
{
glyphname = "ha_tedung-bali";
kernLeft = ha;
kernRight = tedung;
layers = (
{
anchors = (
{
name = bottom;
pos = (1548,0);
},
{
name = top;
pos = (792,800);
}
);
layerId = m01;
shapes = (
{
closed = 1;
nodes = (
(858,123,l),
(858,175,l),
(509,175,l),
(509,0,l),
(761,0,l)
);
},
{
closed = 1;
nodes = (
(436,292,l),
(451,376,o),
(460,457,o),
(460,529,cs),
(460,634,o),
(386,716,o),
(231,716,cs),
(80,716,o),
(20,608,o),
(20,511,cs),
(20,393,o),
(112,338,o),
(212,411,c),
(216,455,l),
(172,455,o),
(177,520,o),
(220,520,cs),
(285,520,o),
(253,413,o),
(229,292,c)
);
},
{
closed = 1;
nodes = (
(229,292,l),
(226,278,o),
(223,264,o),
(221,250,cs),
(209,180,o),
(164,0,o),
(386,0,cs),
(585,0,l),
(585,175,l),
(469,175,ls),
(433,175,o),
(416,186,o),
(423,222,cs),
(436,292,l)
);
},
{
closed = 1;
nodes = (
(1227,219,l),
(1232,278,o),
(1252,522,o),
(1469,522,cs),
(1579,522,o),
(1659,457,o),
(1659,330,cs),
(1659,202,o),
(1588,159,o),
(1534,159,cs),
(1494,159,o),
(1469,175,o),
(1469,202,cs),
(1469,224,o),
(1485,245,o),
(1508,243,c),
(1471,368,l),
(1374,390,o),
(1279,310,o),
(1279,186,cs),
(1279,102,o),
(1329,-16,o),
(1531,-16,cs),
(1679,-16,o),
(1854,67,o),
(1854,330,cs),
(1854,602,o),
(1684,716,o),
(1489,716,cs),
(1219,716,o),
(1157,501,o),
(1153,375,c)
);
},
{
closed = 1;
nodes = (
(858,123,l),
(858,381,ls),
(858,467,o),
(869,521,o),
(935,521,cs),
(1109,521,o),
(1037,130,o),
(1002,0,c),
(1192,0,l),
(1298,521,o),
(1201,716,o),
(949,716,cs),
(758,716,o),
(663,612,o),
(663,394,cs),
(663,123,l)
);
}
);
width = 1874;
}
);
}
{
glyphname = "ja-bali.below.alt";
layers = (
{
anchors = (
{
name = _bottom;
pos = (1031,0);
},
{
name = _gantungan_cenik;
pos = (380,0);
},
{
name = _nya_gantungan;
pos = (380,0);
},
{
name = bottom;
pos = (803,-791);
}
);
guides = (
{
angle = 90;
pos = (901,119);
}
);
layerId = m01;
shapes = (
{
closed = 1;
nodes = (
(509,-791,l),
(509,-652,l),
(504,-652,o),
(433,-652,o),
(427,-652,cs),
(297,-652,o),
(215,-547,o),
(215,-450,cs),
(215,-334,o),
(399,-217,o),
(685,-297,c),
(685,-102,l),
(191,12,o),
(20,-264,o),
(20,-448,cs),
(20,-665,o),
(142,-800,o),
(443,-791,c)
);
},
{
closed = 1;
nodes = (
(538,-479,o),
(706,-440,o),
(706,-639,cs),
(706,-791,l),
(901,-791,l),
(901,-644,ls),
(901,-489,o),
(842,-351,o),
(602,-351,cs),
(498,-351,o),
(356,-388,o),
(356,-519,cs),
(356,-544,l),
(441,-544,o),
(461,-563,o),
(461,-636,cs),
(461,-791,l),
(548,-791,l),
(645,-684,l),
(645,-630,ls),
(645,-505,o),
(538,-520,o),
(538,-503,cs)
);
}
);
width = 921;
}
);
}
{
glyphname = "ja-bali.below";
layers = (
{
anchors = (
{
name = _bottom;
pos = (1031,0);
},
{
name = _gantungan_cenik;
pos = (460,0);
},
{
name = _nya_gantungan;
pos = (380,0);
},
{
name = bottom;
pos = (901,-791);
}
);
guides = (
{
angle = 90;
pos = (901,119);
}
);
layerId = m01;
shapes = (
{
closed = 1;
nodes = (
(509,-791,l),
(509,-652,l),
(504,-652,o),
(433,-652,o),
(427,-652,cs),
(297,-652,o),
(215,-547,o),
(215,-450,cs),
(215,-334,o),
(399,-217,o),
(685,-297,c),
(685,-102,l),
(191,12,o),
(20,-264,o),
(20,-448,cs),
(20,-665,o),
(142,-800,o),
(443,-791,c)
);
},
{
closed = 1;
nodes = (
(538,-477,o),
(789,-439,o),
(679,-791,c),
(874,-791,l),
(951,-523,o),
(866,-351,o),
(602,-351,cs),
(498,-351,o),
(356,-388,o),
(356,-519,cs),
(356,-544,l),
(441,-544,o),
(461,-563,o),
(461,-636,cs),
(461,-791,l),
(548,-791,l),
(645,-684,l),
(645,-630,ls),
(645,-505,o),
(538,-520,o),
(538,-503,cs)
);
}
);
width = 921;
}
);
}
{
glyphname = "jaJera-bali.post";
layers = (
{
layerId = m01;
shapes = (
{
closed = 1;
nodes = (
(-746,-213,l),
(-1028,-287,o),
(-1168,-509,o),
(-1170,-729,cs),
(-1172,-998,o),
(-983,-1123,o),
(-774,-1123,cs),
(-583,-1123,o),
(-510,-1079,o),
(-469,-992,c),
(-422,-1077,o),
(-312,-1123,o),
(-150,-1123,cs),
(156,-1123,o),
(285,-931,o),
(285,-621,cs),
(285,393,l),
(90,393,l),
(90,-612,ls),
(90,-861,o),
(2,-928,o),
(-164,-928,cs),
(-312,-928,o),
(-349,-862,o),
(-360,-791,c),
(-579,-791,l),
(-587,-860,o),
(-618,-928,o),
(-770,-928,cs),
(-895,-928,o),
(-976,-887,o),
(-975,-729,cs),
(-974,-584,o),
(-894,-443,o),
(-643,-381,c)
);
},
{
closed = 1;
nodes = (
(339,911,o),
(222,849,o),
(135,849,cs),
(57,849,o),
(19,858,o),
(19,911,cs),
(19,940,o),
(35,950,o),
(57,950,cs),
(75,950,o),
(90,937,o),
(90,911,cs),
(90,294,l),
(285,294,l),
(285,878,ls),
(285,1088,o),
(168,1145,o),
(57,1145,cs),
(-68,1145,o),
(-150,1065,o),
(-150,945,cs),
(-150,793,o),
(-43,708,o),
(135,708,cs),
(268,708,o),
(454,770,o),
(492,1014,c),
(352,1039,l)
);
}
);
width = 352;
}
);
}
{
glyphname = "ka_tedung-bali";
layers = (
{
layerId = m01;
shapes = (
{
ref = "na-bali";
},
{
closed = 1;
nodes = (
(1298,219,l),
(1303,278,o),
(1323,522,o),
(1540,522,cs),
(1650,522,o),
(1730,457,o),
(1730,330,cs),
(1730,202,o),
(1659,159,o),
(1605,159,cs),
(1565,159,o),
(1540,175,o),
(1540,202,cs),
(1540,224,o),
(1556,245,o),
(1579,243,c),
(1542,368,l),
(1445,390,o),
(1350,310,o),
(1350,186,cs),
(1350,102,o),
(1400,-16,o),
(1602,-16,cs),
(1750,-16,o),
(1925,67,o),
(1925,330,cs),
(1925,602,o),
(1755,716,o),
(1560,716,cs),
(1290,716,o),
(1228,501,o),
(1224,375,c)
);
}
);
width = 1945;
}
);
}
{
glyphname = "kafSasak-bali.below.alt";
layers = (
{
anchors = (
{
name = _bottom;
pos = (1512,0);
},
{
name = _nya_gantungan;
pos = (674,0);
},
{
name = bottom;
pos = (1424,-791);
}
);
layerId = m01;
shapes = (
{
closed = 1;
nodes = (
(608,-380,o),
(354,-380,o),
(256,-380,cs),
(63,-380,o),
(20,-508,o),
(20,-609,cs),
(20,-724,o),
(111,-807,o),
(225,-807,cs),
(441,-807,o),
(473,-588,o),
(473,-432,cs),
(473,-208,o),
(383,-75,o),
(236,-75,cs),
(104,-75,o),
(30,-157,o),
(30,-263,cs),
(30,-356,o),
(135,-386,o),
(212,-356,c),
(212,-287,l),
(201,-287,o),
(185,-279,o),
(185,-263,cs),
(185,-248,o),
(199,-236,o),
(219,-236,cs),
(331,-236,o),
(356,-647,o),
(237,-647,cs),
(210,-647,o),
(200,-632,o),
(200,-601,cs),
(200,-568,o),
(222,-539,o),
(256,-539,cs),
(354,-539,o),
(608,-539,o),
(629,-539,c),
(629,-380,l)
);
},
{
pos = (491,-791);
ref = _suwet_ka;
},
{
closed = 1;
nodes = (
(1238,-271,o),
(1326,-326,o),
(1326,-520,cs),
(1326,-791,l),
(1521,-791,l),
(1521,-524,ls),
(1521,-190,o),
(1362,-75,o),
(1117,-75,cs),
(862,-75,o),
(740,-175,o),
(713,-380,c),
(651,-380,l),
(651,-539,l),
(713,-539,l),
(734,-659,o),
(815,-807,o),
(1017,-807,cs),
(1230,-807,o),
(1278,-701,o),
(1278,-586,cs),
(1278,-421,o),
(1121,-380,o),
(990,-380,cs),
(913,-380,l),
(937,-294,o),
(999,-271,o),
(1118,-271,cs)
);
},
{
closed = 1;
nodes = (
(965,-539,ls),
(1053,-539,o),
(1098,-553,o),
(1098,-596,cs),
(1098,-625,o),
(1089,-645,o),
(1032,-645,cs),
(963,-645,o),
(925,-596,o),
(910,-539,c)
);
}
);
width = 1541;
}
);
}
{
glyphname = "kafSasak-bali.below";
layers = (
{
anchors = (
{
name = _bottom;
pos = (1512,0);
},
{
name = _nya_gantungan;
pos = (674,0);
},
{
name = bottom;
pos = (1512,-791);
}
);
guides = (
{
angle = 90;
pos = (1512,-28);
}
);
layerId = m01;
shapes = (
{
closed = 1;
nodes = (
(608,-380,o),
(354,-380,o),
(256,-380,cs),
(63,-380,o),
(20,-508,o),
(20,-609,cs),
(20,-724,o),
(111,-807,o),
(225,-807,cs),
(441,-807,o),
(473,-588,o),
(473,-432,cs),
(473,-208,o),
(383,-75,o),
(236,-75,cs),
(104,-75,o),
(30,-157,o),
(30,-263,cs),
(30,-356,o),
(135,-386,o),
(212,-356,c),
(212,-287,l),
(201,-287,o),
(185,-279,o),
(185,-263,cs),
(185,-248,o),
(199,-236,o),
(219,-236,cs),
(331,-236,o),
(356,-647,o),
(237,-647,cs),
(210,-647,o),
(200,-632,o),
(200,-601,cs),
(200,-568,o),
(222,-539,o),
(256,-539,cs),
(354,-539,o),
(608,-539,o),
(629,-539,c),
(629,-380,l)
);
},
{
closed = 1;
nodes = (
(664,-539,o),
(877,-539,o),
(965,-539,cs),
(1053,-539,o),
(1098,-553,o),
(1098,-596,cs),
(1098,-625,o),
(1089,-645,o),
(1032,-645,cs),
(939,-645,o),
(902,-557,o),
(902,-475,cs),
(902,-307,o),
(975,-270,o),
(1097,-270,cs),
(1300,-270,o),
(1370,-413,o),
(1289,-791,c),
(1479,-791,l),
(1571,-310,o),
(1476,-75,o),
(1098,-75,cs),
(829,-75,o),
(707,-205,o),
(707,-475,cs),
(707,-596,o),
(776,-807,o),
(1017,-807,cs),
(1230,-807,o),
(1278,-701,o),
(1278,-586,cs),
(1278,-421,o),
(1121,-380,o),
(990,-380,cs),
(877,-380,o),
(664,-380,o),
(551,-380,c),
(551,-539,l)
);
},
{
pos = (491,-791);
ref = _suwet_ka;
}
);
width = 1532;
}
);
}
{
glyphname = "kafSasak_tedung-bali";
layers = (
{
anchors = (
{
name = top;
pos = (958,800);
}
);
layerId = m01;
shapes = (
{
closed = 1;
nodes = (
(608,411,o),
(354,411,o),
(256,411,cs),
(63,411,o),
(20,283,o),
(20,182,cs),
(20,67,o),
(111,-16,o),
(225,-16,cs),
(441,-16,o),
(473,203,o),
(473,359,cs),
(473,583,o),
(383,716,o),
(236,716,cs),
(104,716,o),
(30,634,o),
(30,528,cs),
(30,435,o),
(135,405,o),
(212,435,c),
(212,504,l),
(201,504,o),
(185,512,o),
(185,528,cs),
(185,543,o),
(199,555,o),
(219,555,cs),
(331,555,o),
(356,144,o),
(237,144,cs),
(210,144,o),
(200,159,o),
(200,190,cs),
(200,223,o),
(222,252,o),
(256,252,cs),
(354,252,o),
(608,252,o),
(629,252,c),
(629,411,l)
);
},
{
closed = 1;
nodes = (
(664,252,o),
(877,252,o),
(965,252,cs),
(1053,252,o),
(1098,238,o),
(1098,195,cs),
(1098,166,o),
(1089,146,o),
(1032,146,cs),
(939,146,o),
(902,234,o),
(902,316,cs),
(902,484,o),
(975,521,o),
(1097,521,cs),
(1300,521,o),
(1370,378,o),
(1289,0,c),
(1479,0,l),
(1571,481,o),
(1476,716,o),
(1098,716,cs),
(829,716,o),
(707,586,o),
(707,316,cs),
(707,195,o),
(776,-16,o),
(1017,-16,cs),
(1230,-16,o),
(1278,90,o),
(1278,205,cs),
(1278,370,o),
(1121,411,o),
(990,411,cs),
(877,411,o),
(664,411,o),
(551,411,c),
(551,252,l)
);
},
{
pos = (491,0);
ref = _suwet_ka;
},
{
closed = 1;
nodes = (
(1509,219,l),
(1514,278,o),
(1534,522,o),
(1751,522,cs),
(1861,522,o),
(1941,457,o),
(1941,330,cs),
(1941,202,o),
(1870,159,o),
(1816,159,cs),
(1776,159,o),
(1751,175,o),
(1751,202,cs),
(1751,224,o),
(1767,245,o),
(1790,243,c),
(1753,368,l),
(1656,390,o),
(1561,310,o),
(1561,186,cs),
(1561,102,o),
(1611,-16,o),
(1813,-16,cs),
(1961,-16,o),
(2136,67,o),
(2136,330,cs),
(2136,602,o),
(1966,716,o),
(1771,716,cs),
(1501,716,o),
(1439,501,o),
(1435,375,c)
);
}
);
width = 2156;
}
);
}
{
glyphname = "khotSasak_tedung-bali";
kernLeft = na;
kernRight = tedung;
layers = (
{
anchors = (
{
name = top;
pos = (1305,800);
}
);
layerId = m01;
shapes = (
{
closed = 1;
nodes = (
(508,411,o),
(354,411,o),
(256,411,cs),
(63,411,o),
(20,283,o),
(20,182,cs),
(20,67,o),
(111,-18,o),
(225,-18,cs),
(441,-18,o),
(473,203,o),
(473,359,cs),
(473,583,o),
(383,716,o),
(236,716,cs),
(104,716,o),
(30,634,o),
(30,528,cs),
(30,435,o),
(135,405,o),
(212,435,c),
(212,504,l),
(201,504,o),
(185,512,o),
(185,528,cs),
(185,543,o),
(199,555,o),
(219,555,cs),
(331,555,o),
(356,144,o),
(237,144,cs),
(210,144,o),
(200,159,o),
(200,190,cs),
(200,223,o),
(222,252,o),
(256,252,cs),
(354,252,o),
(508,252,o),
(529,252,c),
(529,411,l)
);
},
{
closed = 1;
nodes = (
(1111,0,l),
(1338,0,l),
(1475,0,l),
(1475,175,l),
(1415,175,l),
(1242,175,l)
);
},
{
closed = 1;
nodes = (
(1708,123,l),
(1708,175,l),
(1449,175,l),
(1449,0,l),
(1611,0,l)
);
},
{
closed = 1;
nodes = (
(1708,123,l),
(1708,381,ls),
(1708,467,o),
(1719,521,o),
(1785,521,cs),
(1959,521,o),
(1893,229,o),
(1852,0,c),
(2042,0,l),
(2138,535,o),
(2065,716,o),
(1774,716,cs),
(1608,716,o),
(1513,612,o),
(1513,394,cs),
(1513,123,l)
);
},
{
closed = 1;
nodes = (
(554,252,o),
(667,252,o),
(755,252,cs),
(843,252,o),
(888,238,o),
(888,195,cs),
(888,166,o),
(879,146,o),
(822,146,cs),
(729,146,o),
(692,234,o),
(692,316,cs),
(692,484,o),
(765,521,o),
(887,521,cs),
(1090,521,o),
(1160,378,o),
(1079,0,c),
(1269,0,l),
(1361,481,o),
(1266,716,o),
(888,716,cs),
(619,716,o),
(497,586,o),
(497,316,cs),
(497,195,o),
(566,-16,o),
(807,-16,cs),
(1020,-16,o),
(1068,90,o),
(1068,205,cs),
(1068,370,o),
(911,411,o),
(780,411,cs),
(667,411,o),
(554,411,o),
(441,411,c),
(441,252,l)
);
},
{
closed = 1;
nodes = (
(2074,219,l),
(2079,278,o),
(2099,522,o),
(2316,522,cs),
(2426,522,o),
(2506,457,o),
(2506,330,cs),
(2506,202,o),
(2435,159,o),
(2381,159,cs),
(2341,159,o),
(2316,175,o),
(2316,202,cs),
(2316,224,o),
(2332,245,o),
(2355,243,c),
(2318,368,l),
(2221,390,o),
(2126,310,o),
(2126,186,cs),
(2126,102,o),
(2176,-16,o),
(2378,-16,cs),
(2526,-16,o),
(2701,67,o),
(2701,330,cs),
(2701,602,o),
(2531,716,o),
(2336,716,cs),
(2066,716,o),
(2004,501,o),
(2000,375,c)
);
}
);
width = 2721;
}
);
}
{
glyphname = "la-bali.alt";
layers = (
{
anchors = (
{
name = bottom;
pos = (1609,0);
},
{
name = top;
pos = (948,800);
}
);
layerId = m01;
shapes = (
{
closed = 1;
nodes = (
(1410,442,ls),
(1410,477,o),
(1407,521,o),
(1449,521,cs),
(1511,521,o),
(1511,477,o),
(1511,286,cs),
(1511,0,l),
(1706,0,l),
(1706,388,ls),
(1706,660,o),
(1553,716,o),
(1421,716,cs),
(1315,716,o),
(1215,681,o),
(1215,474,cs),
(1215,123,l),
(1410,123,l)
);
},
{
closed = 1;
nodes = (
(602,0,l),
(699,123,l),
(699,461,ls),
(699,508,o),
(710,521,o),
(741,521,cs),
(842,521,o),
(840,239,o),
(763,0,c),
(884,0,l),
(981,123,l),
(1048,502,o),
(966,716,o),
(730,716,cs),
(599,716,o),
(504,653,o),
(504,474,cs),
(504,0,l)
);
},
{
closed = 1;
nodes = (
(436,292,l),
(451,376,o),
(460,457,o),
(460,529,cs),
(460,634,o),
(386,716,o),
(231,716,cs),
(80,716,o),
(20,608,o),
(20,511,cs),
(20,393,o),
(112,338,o),
(212,411,c),
(216,455,l),
(172,455,o),
(177,520,o),
(220,520,cs),
(285,520,o),
(253,413,o),
(229,292,c)
);
},
{
closed = 1;
nodes = (
(1410,123,l),
(1410,175,l),
(856,175,l),
(856,0,l),
(1313,0,l)
);
},
{
closed = 1;
nodes = (
(229,292,l),
(226,278,o),
(223,264,o),
(221,250,cs),
(209,180,o),
(164,0,o),
(386,0,cs),
(585,0,l),
(585,175,l),
(469,175,ls),
(433,175,o),
(416,186,o),
(423,222,cs),
(436,292,l)
);
}
);
width = 1726;
}
);
}
{
glyphname = "la-bali.below";
layers = (
{
anchors = (
{
name = _bottom;
pos = (1475,0);
},
{
name = _nya_gantungan;
pos = (741,0);
},
{
name = bottom;
pos = (1475,-791);
}
);
layerId = m01;
shapes = (
{
closed = 1;
nodes = (
(1197,-255,l),
(1310,-301,o),
(1271,-593,o),
(1217,-791,c),
(1362,-791,l),
(1459,-668,l),
(1500,-367,o),
(1464,-146,o),
(1313,-74,c)
);
},
{
closed = 1;
nodes = (
(602,-791,l),
(699,-668,l),
(699,-330,ls),
(699,-283,o),
(710,-270,o),
(741,-270,cs),
(842,-270,o),
(840,-552,o),
(763,-791,c),
(884,-791,l),
(981,-668,l),
(1048,-289,o),
(966,-75,o),
(730,-75,cs),
(599,-75,o),
(504,-138,o),
(504,-317,cs),
(504,-791,l)
);
},
{
closed = 1;
nodes = (
(1410,-668,l),
(1410,-616,l),
(856,-616,l),
(856,-791,l),
(1313,-791,l)
);
},
{
closed = 1;
nodes = (
(436,-499,l),
(451,-415,o),
(460,-334,o),
(460,-262,cs),
(460,-157,o),
(386,-75,o),
(231,-75,cs),
(80,-75,o),
(20,-183,o),
(20,-280,cs),
(20,-398,o),
(112,-453,o),
(212,-380,c),
(216,-336,l),
(172,-336,o),
(177,-271,o),
(220,-271,cs),
(285,-271,o),
(253,-378,o),
(229,-499,c)
);
},
{
closed = 1;
nodes = (
(229,-499,l),
(226,-513,o),
(223,-527,o),
(221,-541,cs),
(209,-611,o),
(164,-791,o),
(386,-791,cs),
(585,-791,l),
(585,-616,l),
(469,-616,ls),
(433,-616,o),
(416,-605,o),
(423,-569,cs),
(436,-499,l)
);
}
);
width = 1495;
}
);
}
{
glyphname = "la_tedung-bali";
kernLeft = ha;
kernRight = tedung;
layers = (
{
anchors = (
{
name = bottom;
pos = (1705,0);
},
{
name = top;
pos = (948,800);
}
);
layerId = m01;
shapes = (
{
closed = 1;
nodes = (
(602,0,l),
(699,123,l),
(699,461,ls),
(699,508,o),
(710,521,o),
(741,521,cs),
(842,521,o),
(840,239,o),
(763,0,c),
(884,0,l),
(981,123,l),
(1048,502,o),
(966,716,o),
(730,716,cs),
(599,716,o),
(504,653,o),
(504,474,cs),
(504,0,l)
);
},
{
closed = 1;
nodes = (
(436,292,l),
(451,376,o),
(460,457,o),
(460,529,cs),
(460,634,o),
(386,716,o),
(231,716,cs),
(80,716,o),
(20,608,o),
(20,511,cs),
(20,393,o),
(112,338,o),
(212,411,c),
(216,455,l),
(172,455,o),
(177,520,o),
(220,520,cs),
(285,520,o),
(253,413,o),
(229,292,c)
);
},
{
closed = 1;
nodes = (
(1410,123,l),
(1410,175,l),
(856,175,l),
(856,0,l),
(1313,0,l)
);
},
{
closed = 1;
nodes = (
(229,292,l),
(226,278,o),
(223,264,o),
(221,250,cs),
(209,180,o),
(164,0,o),
(386,0,cs),
(585,0,l),
(585,175,l),
(469,175,ls),
(433,175,o),
(416,186,o),
(423,222,cs),
(436,292,l)
);
},
{
closed = 1;
nodes = (
(1410,154,l),
(1410,267,ls),
(1410,370,o),
(1435,522,o),
(1629,522,cs),
(1762,522,o),
(1842,457,o),
(1842,330,cs),
(1842,202,o),
(1771,159,o),
(1717,159,cs),
(1677,159,o),
(1652,175,o),
(1652,202,cs),
(1652,224,o),
(1668,245,o),
(1691,243,c),
(1654,368,l),
(1557,390,o),
(1462,310,o),
(1462,186,cs),
(1462,102,o),
(1512,-16,o),
(1714,-16,cs),
(1862,-16,o),
(2037,67,o),
(2037,330,cs),
(2037,602,o),
(1825,716,o),
(1629,716,cs),
(1386,716,o),
(1215,579,o),
(1215,337,cs),
(1215,154,l)
);
}
);
width = 2057;
}
);
}
{
glyphname = "ma-bali.alt";
layers = (
{
anchors = (
{
name = bottom;
pos = (1155,0);
},
{
name = top;
pos = (712,800);
}
);
guides = (
{
angle = 90;
pos = (1252,660);
}
);
layerId = m01;
shapes = (
{
closed = 1;
nodes = (
(956,442,ls),
(956,477,o),
(953,521,o),
(995,521,cs),
(1057,521,o),
(1057,477,o),
(1057,286,cs),
(1057,0,l),
(1252,0,l),
(1252,388,ls),
(1252,660,o),
(1099,716,o),
(967,716,cs),
(861,716,o),
(761,681,o),
(761,474,cs),
(761,123,l),
(956,123,l)
);
},
{
closed = 1;
nodes = (
(561,533,l),
(561,700,l),
(456,700,l),
(276,700,o),
(20,672,o),
(20,441,cs),
(20,342,o),
(97,239,o),
(240,298,c),
(245,342,l),
(120,366,o),
(218,533,o),
(324,533,c)
);
},
{
closed = 1;
nodes = (
(603,175,l),
(526,175,ls),
(489,175,o),
(469,185,o),
(469,225,cs),
(469,272,o),
(489,279,o),
(526,279,cs),
(626,279,l),
(626,426,l),
(532,426,ls),
(489,426,o),
(469,426,o),
(469,468,cs),
(469,510,o),
(489,510,o),
(532,510,cs),
(694,510,l),
(694,700,l),
(686,700,o),
(572,700,o),
(563,700,cs),
(348,700,o),
(276,601,o),
(276,481,cs),
(276,398,o),
(310,350,o),
(378,350,c),
(310,350,o),
(276,286,o),
(276,205,cs),
(276,83,o),
(347,0,o),
(490,0,c),
(603,0,l)
);
},
{
closed = 1;
nodes = (
(603,0,l),
(859,0,l),
(956,123,l),
(761,175,l),
(603,175,l)
);
}
);
width = 1272;
}
);
}
{
glyphname = "ma-bali.below.alt";
layers = (
{
anchors = (
{
name = _bottom;
pos = (1031,0);
},
{
name = _gantungan_cenik;
pos = (380,0);
},
{
name = _nya_gantungan;
pos = (380,0);
},
{
name = bottom;
pos = (679,-791);
}
);
layerId = m01;
shapes = (
{
closed = 1;
nodes = (
(646,-555,l),
(600,-588,o),
(538,-610,o),
(454,-610,cs),
(331,-610,o),
(215,-560,o),
(215,-429,cs),
(215,-344,o),
(260,-270,o),
(367,-270,cs),
(413,-270,o),
(434,-290,o),
(434,-313,cs),
(434,-338,o),
(407,-349,o),
(374,-355,c),
(374,-471,l),
(510,-501,o),
(639,-398,o),
(639,-285,cs),
(639,-175,o),
(567,-75,o),
(351,-75,cs),
(161,-75,o),
(20,-218,o),
(20,-429,cs),
(20,-706,o),
(247,-807,o),
(454,-807,cs),
(595,-807,o),
(700,-765,o),
(776,-706,c)
);
}
);
width = 796;
}
);
}
{
glyphname = "ma-bali.below";
layers = (
{
anchors = (
{
name = _bottom;
pos = (1031,0);
},
{
name = _gantungan_cenik;
pos = (380,0);
},
{
name = _nya_gantungan;
pos = (380,0);
},
{
name = bottom;
pos = (781,-791);
}
);
guides = (
{
angle = 90;
pos = (781,119);
}
);
layerId = m01;
shapes = (
{
closed = 1;
nodes = (
(676,-555,l),
(630,-588,o),
(568,-610,o),
(484,-610,cs),
(361,-610,o),
(245,-560,o),
(245,-429,cs),
(245,-344,o),
(290,-270,o),
(397,-270,cs),
(443,-270,o),
(464,-290,o),
(464,-313,cs),
(464,-338,o),
(437,-349,o),
(404,-355,c),
(404,-471,l),
(540,-501,o),
(669,-398,o),
(669,-285,cs),
(669,-175,o),
(597,-75,o),
(381,-75,cs),
(191,-75,o),
(50,-218,o),
(50,-429,cs),
(50,-706,o),
(277,-807,o),
(484,-807,cs),
(625,-807,o),
(730,-765,o),
(806,-706,c)
);
}
);
width = 826;
}
);
}
{
glyphname = "ma_tedung-bali";
layers = (
{
anchors = (
{
name = bottom;
pos = (1251,0);
},
{
name = top;
pos = (712,800);
}
);
layerId = m01;
shapes = (
{
closed = 1;
nodes = (
(603,175,l),
(526,175,ls),
(489,175,o),
(469,185,o),
(469,225,cs),
(469,272,o),
(489,279,o),
(526,279,cs),
(626,279,l),
(626,426,l),
(532,426,ls),
(489,426,o),
(469,426,o),
(469,468,cs),
(469,510,o),
(489,510,o),
(532,510,cs),
(694,510,l),
(694,700,l),
(686,700,o),
(572,700,o),
(563,700,cs),
(348,700,o),
(276,601,o),
(276,481,cs),
(276,398,o),
(310,350,o),
(378,350,c),
(310,350,o),
(276,286,o),
(276,205,cs),
(276,83,o),
(347,0,o),
(490,0,c),
(603,0,l)
);
},
{
closed = 1;
nodes = (
(603,0,l),
(859,0,l),
(956,123,l),
(761,175,l),
(626,175,l),
(618,175,o),
(610,175,o),
(603,175,c)
);
},
{
closed = 1;
nodes = (
(525,533,l),
(561,700,l),
(456,700,l),
(276,700,o),
(20,672,o),
(20,441,cs),
(20,342,o),
(97,239,o),
(240,298,c),
(245,342,l),
(120,366,o),
(218,533,o),
(324,533,c)
);
},
{
closed = 1;
nodes = (
(956,123,l),
(956,267,ls),
(956,370,o),
(981,522,o),
(1175,522,cs),
(1308,522,o),
(1388,457,o),
(1388,330,cs),
(1388,202,o),
(1317,159,o),
(1263,159,cs),
(1223,159,o),
(1198,175,o),
(1198,202,cs),
(1198,224,o),
(1214,245,o),
(1237,243,c),
(1200,368,l),
(1103,390,o),
(1008,310,o),
(1008,186,cs),
(1008,102,o),
(1058,-16,o),
(1260,-16,cs),
(1408,-16,o),
(1583,67,o),
(1583,330,cs),
(1583,602,o),
(1371,716,o),
(1175,716,cs),
(932,716,o),
(761,579,o),
(761,337,cs),
(761,125,l)
);
}
);
width = 1603;
}
);
}
{
glyphname = "na-bali.alt";
kernLeft = na;
layers = (
{
anchors = (
{
name = bottom;
pos = (1214,0);
},
{
name = top;
pos = (714,800);
}
);
layerId = m01;
shapes = (
{
closed = 1;
nodes = (
(508,411,o),
(354,411,o),
(256,411,cs),
(63,411,o),
(20,283,o),
(20,182,cs),
(20,67,o),
(111,-16,o),
(225,-16,cs),
(441,-16,o),
(473,203,o),
(473,359,cs),
(473,583,o),
(383,716,o),
(236,716,cs),
(104,716,o),
(30,634,o),
(30,528,cs),
(30,435,o),
(135,405,o),
(212,435,c),
(212,504,l),
(201,504,o),
(185,512,o),
(185,528,cs),
(185,543,o),
(199,555,o),
(219,555,cs),
(331,555,o),
(356,144,o),
(237,144,cs),
(210,144,o),
(200,159,o),
(200,190,cs),
(200,223,o),
(222,252,o),
(256,252,cs),
(354,252,o),
(508,252,o),
(529,252,c),
(529,411,l)
);
},
{
closed = 1;
nodes = (
(1028,520,o),
(1116,465,o),
(1116,271,cs),
(1116,0,l),
(1311,0,l),
(1311,267,ls),
(1311,601,o),
(1152,716,o),
(907,716,cs),
(652,716,o),
(530,616,o),
(503,411,c),
(441,411,l),
(441,252,l),
(503,252,l),
(524,132,o),
(605,-16,o),
(807,-16,cs),
(1020,-16,o),
(1068,90,o),
(1068,205,cs),
(1068,370,o),
(911,411,o),
(780,411,cs),
(703,411,l),
(727,497,o),
(789,520,o),
(908,520,cs)
);
},
{
closed = 1;
nodes = (
(755,252,ls),
(843,252,o),
(888,238,o),
(888,195,cs),
(888,166,o),
(879,146,o),
(822,146,cs),
(753,146,o),
(715,195,o),
(700,252,c)
);
}
);
width = 1331;
}
);
}
{
category = Mark;
glyphname = "na-bali.below";
layers = (
{
anchors = (
{
name = _Gantungan_Lurus;
pos = (1012,0);
},
{
name = _bottom;
pos = (1012,0);
},
{
name = bottom;
pos = (1075,-386);
}
);
layerId = m01;
shapes = (
{
closed = 1;
nodes = (
(284,-283,o),
(585,-238,o),
(974,-362,c),
(914,-269,l),
(914,-859,l),
(932,-788,l),
(798,-666,o),
(170,-818,o),
(239,-494,cs)
);
},
{
closed = 1;
nodes = (
(914,64,l),
(914,-145,l),
(975,-165,l),
(576,-25,o),
(25,-106,o),
(20,-516,cs),
(13,-1092,o),
(905,-767,o),
(876,-1026,cs),
(867,-1107,l),
(1012,-1107,l),
(1109,-984,l),
(1109,64,l)
);
}
);
width = 1129;
}
);
subCategory = Nonspacing;
}
{
glyphname = "naRambat-bali.alt";
layers = (
{
anchors = (
{
name = bottom;
pos = (1294,0);
},
{
name = top;
pos = (692,800);
}
);
layerId = m01;
shapes = (
{
closed = 1;
nodes = (
(451,284,l),
(447,379,o),
(460,521,o),
(548,521,cs),
(582,521,o),
(588,446,o),
(588,389,c),
(777,389,l),
(777,446,o),
(783,521,o),
(817,521,cs),
(949,521,o),
(926,206,o),
(870,0,c),
(1060,0,l),
(1146,393,o),
(1114,716,o),
(842,716,cs),
(755,716,o),
(692,626,o),
(683,583,c),
(673,627,o),
(614,716,o),
(523,716,cs),
(329,716,o),
(261,546,o),
(258,343,c)
);
},
{
closed = 1;
nodes = (
(47,608,l),
(20,517,o),
(14,426,o),
(27,335,cs),
(59,112,o),
(233,148,o),
(344,148,c),
(451,284,l),
(453,475,l),
(322,475,l),
(322,438,o),
(292,343,o),
(258,343,cs),
(217,343,o),
(202,461,o),
(237,608,c)
);
},
{
pos = (1019,0);
ref = _belakang_ha_lurus;
}
);
width = 1411;
}
);
}
{
glyphname = "naRambat_tedung-bali";
kernRight = tedung;
layers = (
{
layerId = m01;
shapes = (
{
closed = 1;
nodes = (
(217,343,o),
(202,461,o),
(237,608,c),
(47,608,l),
(20,517,o),
(14,426,o),
(27,335,cs),
(59,112,o),
(233,148,o),
(344,148,c),
(451,284,l),
(452,356,ls),
(457,437,o),
(481,521,o),
(548,521,cs),
(582,521,o),
(588,446,o),
(588,389,c),
(777,389,l),
(777,446,o),
(783,521,o),
(817,521,cs),
(949,521,o),
(926,206,o),
(870,0,c),
(1060,0,l),
(1146,393,o),
(1114,716,o),
(842,716,cs),
(755,716,o),
(692,626,o),
(683,583,c),
(673,627,o),
(614,716,o),
(523,716,cs),
(329,716,o),
(261,546,o),
(258,343,c)
);
},
{
closed = 1;
nodes = (
(1096,218,l),
(1101,277,o),
(1121,521,o),
(1338,521,cs),
(1448,521,o),
(1528,456,o),
(1528,329,cs),
(1528,201,o),
(1457,158,o),
(1403,158,cs),
(1363,158,o),
(1338,174,o),
(1338,201,cs),
(1338,223,o),
(1354,244,o),
(1377,242,c),
(1340,367,l),
(1243,389,o),
(1148,309,o),
(1148,185,cs),
(1148,101,o),
(1198,-17,o),
(1400,-17,cs),
(1548,-17,o),
(1723,66,o),
(1723,329,cs),
(1723,601,o),
(1553,715,o),
(1358,715,cs),
(1088,715,o),
(1026,500,o),
(1022,374,c)
);
}
);
width = 1743;
}
);
}
{
glyphname = "na_tedung-bali";
layers = (
{
anchors = (
{
name = bottom;
pos = (1302,0);
},
{
name = top;
pos = (574,800);
}
);
guides = (
{
pos = (1247,296);
}
);
layerId = m01;
shapes = (
{
closed = 1;
nodes = (
(508,411,o),
(354,411,o),
(256,411,cs),
(63,411,o),
(20,283,o),
(20,182,cs),
(20,67,o),
(111,-16,o),
(225,-16,cs),
(441,-16,o),
(473,203,o),
(473,359,cs),
(473,583,o),
(383,716,o),
(236,716,cs),
(104,716,o),
(30,634,o),
(30,528,cs),
(30,435,o),
(135,405,o),
(212,435,c),
(212,504,l),
(201,504,o),
(185,512,o),
(185,528,cs),
(185,543,o),
(199,555,o),
(219,555,cs),
(331,555,o),
(356,144,o),
(237,144,cs),
(210,144,o),
(200,159,o),
(200,190,cs),
(200,223,o),
(222,252,o),
(256,252,cs),
(354,252,o),
(508,252,o),
(529,252,c),
(529,411,l)
);
},
{
closed = 1;
nodes = (
(1239,296,l),
(1258,390,o),
(1311,522,o),
(1471,522,cs),
(1581,522,o),
(1661,457,o),
(1661,330,cs),
(1661,202,o),
(1590,159,o),
(1536,159,cs),
(1496,159,o),
(1471,175,o),
(1471,202,cs),
(1471,224,o),
(1487,245,o),
(1510,243,c),
(1473,368,l),
(1376,390,o),
(1281,310,o),
(1281,186,cs),
(1281,102,o),
(1331,-16,o),
(1533,-16,cs),
(1681,-16,o),
(1856,67,o),
(1856,330,cs),
(1856,602,o),
(1686,716,o),
(1491,716,cs),
(1221,716,o),
(1159,501,o),
(1155,375,c),
(1192,296,l)
);
},
{
closed = 1;
nodes = (
(1232,296,l),
(1231,578,o),
(1146,716,o),
(888,716,cs),
(619,716,o),
(497,586,o),
(497,316,cs),
(497,195,o),
(566,-16,o),
(807,-16,cs),
(1020,-16,o),
(1068,90,o),
(1068,205,cs),
(1068,370,o),
(911,411,o),
(780,411,cs),
(667,411,o),
(554,411,o),
(441,411,c),
(441,252,l),
(554,252,o),
(667,252,o),
(755,252,cs),
(843,252,o),
(888,238,o),
(888,195,cs),
(888,166,o),
(879,146,o),
(822,146,cs),
(729,146,o),
(692,234,o),
(692,316,cs),
(692,484,o),
(765,521,o),
(887,521,cs),
(1024,521,o),
(1111,456,o),
(1121,296,c)
);
}
);
width = 1876;
}
);
}
{
glyphname = "nya-bali.alt";
layers = (
{
anchors = (
{
name = bottom;
pos = (1486,14);
},
{
name = nya_below;
pos = (1929,0);
},
{
name = top;
pos = (928,800);
}
);
layerId = m01;
shapes = (
{
ref = "nga-bali";
},
{
closed = 1;
nodes = (
(1388,26,l),
(1437,-5,o),
(1505,-16,o),
(1586,-16,cs),
(1848,-16,o),
(1929,207,o),
(1929,320,cs),
(1929,674,o),
(1562,716,o),
(1414,716,cs),
(1334,716,o),
(1279,475,o),
(1302,419,c),
(1334,279,l),
(1348,413,o),
(1420,514,o),
(1514,514,cs),
(1620,514,o),
(1734,439,o),
(1734,320,cs),
(1734,199,o),
(1642,125,o),
(1562,125,cs),
(1514,125,o),
(1477,136,o),
(1433,177,c),
(1388,114,l)
);
}
);
width = 1949;
}
);
}
{
category = Letter;
glyphname = "pa-bali.post.alt";
layers = (
{
anchors = (
{
name = bottom;
pos = (949,0);
},
{
name = cecek_bangkiang;
pos = (401,429);
},
{
name = suwet_sa;
pos = (403,297);
},
{
name = top;
pos = (402,800);
}
);
layerId = m01;
shapes = (
{
closed = 1;
nodes = (
(750,442,ls),
(750,477,o),
(747,521,o),
(789,521,cs),
(851,521,o),
(851,477,o),
(851,286,cs),
(851,0,l),
(1046,0,l),
(1046,388,ls),
(1046,660,o),
(893,716,o),
(761,716,cs),
(655,716,o),
(555,681,o),
(555,474,cs),
(555,0,l),
(653,0,l),
(750,123,l)
);
},
{
closed = 1;
nodes = (
(750,123,l),
(750,175,l),
(340,175,ls),
(255,175,o),
(215,200,o),
(215,245,cs),
(215,252,l),
(20,252,l),
(20,147,o),
(77,0,o),
(315,0,cs),
(653,0,l)
);
}
);
width = 1065;
}
);
}
{
category = Letter;
glyphname = "pa-bali.post";
layers = (
{
anchors = (
{
name = bottom;
pos = (1045,0);
},
{
name = cecek_bangkiang;
pos = (401,429);
},
{
name = suwet_sa;
pos = (403,297);
},
{
name = top;
pos = (402,800);
}
);
layerId = m01;
shapes = (
{
closed = 1;
nodes = (
(750,123,l),
(750,461,ls),
(750,508,o),
(761,521,o),
(792,521,cs),
(893,521,o),
(870,206,o),
(814,0,c),
(1004,0,l),
(1090,393,o),
(1056,716,o),
(761,716,cs),
(655,716,o),
(555,681,o),
(555,474,cs),
(555,123,l)
);
},
{
closed = 1;
nodes = (
(750,123,l),
(750,175,l),
(340,175,ls),
(255,175,o),
(215,200,o),
(215,245,cs),
(215,252,l),
(20,252,l),
(20,147,o),
(77,0,o),
(315,0,cs),
(653,0,l)
);
}
);
width = 1065;
}
);
}
{
category = Letter;
glyphname = "paKapal-bali.post";
layers = (
{
anchors = (
{
name = bottom;
pos = (1115,0);
},
{
name = top;
pos = (279,800);
}
);
layerId = m01;
shapes = (
{
closed = 1;
nodes = (
(1129,911,o),
(1012,849,o),
(925,849,cs),
(847,849,o),
(809,858,o),
(809,911,cs),
(809,940,o),
(825,950,o),
(847,950,cs),
(865,950,o),
(880,937,o),
(880,911,cs),
(880,294,l),
(1075,294,l),
(1075,878,ls),
(1075,1088,o),
(958,1145,o),
(847,1145,cs),
(722,1145,o),
(640,1065,o),
(640,945,cs),
(640,793,o),
(747,708,o),
(925,708,cs),
(1058,708,o),
(1244,770,o),
(1282,1014,c),
(1142,1039,l)
);
},
{
closed = 1;
nodes = (
(529,102,l),
(546,115,l),
(592,71,o),
(652,-16,o),
(825,-16,cs),
(1002,-16,o),
(1075,75,o),
(1075,241,c),
(1075,301,l),
(880,301,l),
(880,285,l),
(880,227,o),
(842,189,o),
(788,189,cs),
(669,189,o),
(643,247,o),
(643,297,cs),
(643,346,l),
(529,346,l)
);
},
{
closed = 1;
nodes = (
(20,39,l),
(73,4,o),
(130,-16,o),
(247,-16,cs),
(448,-16,o),
(500,71,o),
(546,115,c),
(560,104,l),
(560,346,l),
(448,346,l),
(448,301,ls),
(448,223,o),
(363,179,o),
(247,179,cs),
(175,179,o),
(127,187,o),
(83,208,c)
);
}
);
width = 1302;
}
);
}
{
glyphname = "pa_tedung-bali";
kernLeft = ha;
kernRight = tedung;
layers = (
{
anchors = (
{
name = bottom;
pos = (1233,0);
},
{
name = cecek_bangkiang;
pos = (608,429);
},
{
name = repa;
pos = (598,0);
},
{
name = suwet_sa;
pos = (598,297);
},
{
name = top;
pos = (560,800);
}
);
layerId = m01;
shapes = (
{
closed = 1;
nodes = (
(938,123,l),
(938,175,l),
(569,175,l),
(569,0,l),
(841,0,l)
);
},
{
closed = 1;
nodes = (
(436,292,l),
(451,376,o),
(460,457,o),
(460,529,cs),
(460,634,o),
(386,716,o),
(231,716,cs),
(80,716,o),
(20,608,o),
(20,511,cs),
(20,393,o),
(112,338,o),
(212,411,c),
(216,455,l),
(172,455,o),
(177,520,o),
(220,520,cs),
(285,520,o),
(253,413,o),
(229,292,c)
);
},
{
closed = 1;
nodes = (
(229,292,l),
(226,278,o),
(223,264,o),
(221,250,cs),
(209,180,o),
(164,0,o),
(386,0,cs),
(585,0,l),
(585,175,l),
(469,175,ls),
(433,175,o),
(416,186,o),
(423,222,cs),
(436,292,l)
);
},
{
closed = 1;
nodes = (
(938,123,l),
(938,267,ls),
(938,370,o),
(963,522,o),
(1157,522,cs),
(1290,522,o),
(1370,457,o),
(1370,330,cs),
(1370,202,o),
(1299,159,o),
(1245,159,cs),
(1205,159,o),
(1180,175,o),
(1180,202,cs),
(1180,224,o),
(1196,245,o),
(1219,243,c),
(1182,368,l),
(1085,390,o),
(990,310,o),
(990,186,cs),
(990,102,o),
(1040,-16,o),
(1242,-16,cs),
(1390,-16,o),
(1565,67,o),
(1565,330,cs),
(1565,602,o),
(1353,716,o),
(1157,716,cs),
(914,716,o),
(743,579,o),
(743,337,cs),
(743,135,l)
);
}
);
width = 1585;
}
);
}
{
glyphname = "ra-bali.alt";
layers = (
{
anchors = (
{
name = bottom;
pos = (1032,0);
},
{
name = gantungan_cenik;
pos = (624,0);
},
{
name = top;
pos = (667,800);
}
);
layerId = m01;
shapes = (
{
closed = 0;
nodes = (
(1129,0,l)
);
},
{
closed = 1;
nodes = (
(680,365,ls),
(695,502,o),
(748,521,o),
(816,521,cs),
(931,521,o),
(934,438,o),
(934,327,cs),
(934,0,l),
(1129,0,l),
(1129,336,ls),
(1129,520,o),
(1099,700,o),
(816,716,cs),
(673,724,o),
(536,680,o),
(505,475,cs),
(468,228,o),
(462,151,o),
(414,151,cs),
(381,151,l),
(471,318,o),
(524,716,o),
(231,716,cs),
(80,716,o),
(20,608,o),
(20,511,cs),
(20,393,o),
(112,338,o),
(212,411,c),
(216,455,l),
(172,455,o),
(177,520,o),
(220,520,cs),
(312,520,o),
(217,146,o),
(140,123,c),
(140,0,l),
(561,0,l),
(653,123,l)
);
}
);
width = 1149;
}
);
}
{
glyphname = "ra-bali.below";
layers = (
{
anchors = (
{
name = _Gantungan_Lurus;
pos = (1175,0);
},
{
name = _bottom;
pos = (1175,0);
},
{
name = bottom;
pos = (1225,-402);
},
{
name = cecek_bangkiang;
pos = (660,-653);
}
);
guides = (
{
angle = 90;
pos = (1368,-278);
}
);
layerId = m01;
shapes = (
{
closed = 1;
nodes = (
(119,-204,l),
(-67,-576,o),
(-42,-1123,o),
(654,-1123,cs),
(983,-1123,o),
(1272,-1012,o),
(1272,-530,cs),
(1272,27,l),
(1077,27,l),
(1077,-516,ls),
(1077,-814,o),
(946,-928,o),
(654,-928,cs),
(306,-928,o),
(118,-717,o),
(289,-286,c)
);
}
);
width = 1292;
}
);
}
{
glyphname = "ra-bali.below.ss01";
layers = (
{
anchors = (
{
name = _Gantungan_Lurus;
pos = (1350,0);
},
{
name = _bottom;
pos = (1350,0);
},
{
name = bottom;
pos = (1377,-402);
},
{
name = cecek_bangkiang;
pos = (740,-653);
}
);
guides = (
{
angle = 90;
pos = (1543,-278);
}
);
layerId = m01;
shapes = (
{
closed = 1;
nodes = (
(94,-204,l),
(-92,-576,o),
(53,-1123,o),
(746,-1123,cs),
(1158,-1123,o),
(1447,-946,o),
(1447,-464,cs),
(1447,27,l),
(1252,27,l),
(1252,-450,ls),
(1252,-748,o),
(1121,-928,o),
(746,-928,cs),
(401,-928,o),
(73,-747,o),
(274,-286,c)
);
}
);
width = 1467;
}
);
}
